<svg width="27" height="27" viewBox="0 0 27 27" fill="none" xmlns="http://www.w3.org/2000/svg">
<path fill-rule="evenodd" clip-rule="evenodd" d="M13.4484 26.9999L13.4605 27H13.4563L13.4484 26.9999ZM13.5437 27H13.5395L13.5516 26.9999L13.5437 27ZM13.4072 26.9997L13.4202 26.9998H13.4127L13.4072 26.9997ZM13.5873 26.9998H13.5798L13.5928 26.9997L13.5873 26.9998ZM13.3674 26.9994L13.3761 26.9995L13.3692 26.9994H13.3674ZM13.6308 26.9994L13.6239 26.9995L13.6326 26.9994H13.6308ZM13.6744 26.9989L13.6713 26.999L13.6831 26.9988L13.6744 26.9989ZM13.3169 26.9988L13.3287 26.999L13.3256 26.9989L13.3169 26.9988ZM13.7179 26.9983L13.7108 26.9984L13.7253 26.9982L13.7179 26.9983ZM13.2747 26.9982L13.2892 26.9984L13.2821 26.9983L13.2747 26.9982ZM13.7614 26.9976L13.7518 26.9977L13.7651 26.9975L13.7614 26.9976ZM13.2349 26.9975L13.2482 26.9977L13.2386 26.9976L13.2349 26.9975ZM13.1854 26.9965L13.1973 26.9967L13.1952 26.9967L13.1854 26.9965ZM13.8048 26.9967L13.8027 26.9967L13.8146 26.9965L13.8048 26.9967ZM13.1421 26.9954L13.1584 26.9958L13.1518 26.9956L13.1421 26.9954ZM13.8482 26.9956L13.8416 26.9958L13.8579 26.9954L13.8482 26.9956ZM13.8916 26.9945L13.881 26.9948L13.8977 26.9943L13.8916 26.9945ZM13.1023 26.9943L13.119 26.9948L13.1084 26.9945L13.1023 26.9943ZM13.0644 26.9931L13.0762 26.9935L13.065 26.9931L13.0548 26.9928L13.0644 26.9931ZM13.935 26.9931L13.9238 26.9935L13.9356 26.9931L13.9452 26.9928L13.935 26.9931ZM13.9782 26.9917L13.9723 26.9919L13.9905 26.9913L13.9782 26.9917ZM13.0095 26.9913L13.0277 26.9919L13.0218 26.9917L13.0095 26.9913ZM12.97 26.9898L12.9891 26.9905L12.9785 26.9901L12.97 26.9898ZM14.0215 26.9901L14.0109 26.9905L14.03 26.9898L14.0215 26.9901ZM12.9312 26.9882L12.9499 26.989L12.9353 26.9885L12.9312 26.9882ZM14.0647 26.9885L14.0501 26.989L14.0688 26.9882L14.0647 26.9885ZM12.8769 26.9859L12.8969 26.9868L12.892 26.9866L12.8769 26.9859ZM14.108 26.9866L14.1031 26.9868L14.1231 26.9859L14.108 26.9866ZM12.8379 26.9841L12.8587 26.985L12.8489 26.9846L12.8379 26.9841ZM14.1511 26.9846L14.1413 26.985L14.1621 26.9841L14.1511 26.9846ZM12.7995 26.9821L12.8205 26.9832L12.8058 26.9825L12.7995 26.9821ZM14.1942 26.9825L14.1795 26.9832L14.2005 26.9821L14.1942 26.9825ZM14.2374 26.9802L14.2183 26.9812L14.2352 26.9803L14.2552 26.9792L14.2374 26.9802ZM12.7648 26.9803L12.7817 26.9812L12.7626 26.9802L12.7448 26.9792L12.7648 26.9803ZM14.2804 26.9778L14.272 26.9783L14.2934 26.9771L14.2804 26.9778ZM12.7066 26.9771L12.728 26.9783L12.7196 26.9778L12.7066 26.9771ZM12.6685 26.9748L12.6899 26.9761L12.6766 26.9753L12.6685 26.9748ZM14.3234 26.9753L14.3101 26.9761L14.3315 26.9748L14.3234 26.9753ZM12.6322 26.9725L12.6515 26.9737L12.6335 26.9726L12.6155 26.9715L12.6322 26.9725ZM14.3665 26.9726L14.3485 26.9737L14.3678 26.9725L14.3845 26.9715L14.3665 26.9726ZM14.4094 26.9698L14.403 26.9703L14.4234 26.9689L14.4094 26.9698ZM12.5766 26.9689L12.597 26.9703L12.5906 26.9698L12.5766 26.9689ZM12.5386 26.9663L12.5586 26.9677L12.5477 26.9669L12.5386 26.9663ZM14.4523 26.9669L14.4414 26.9677L14.4614 26.9663L14.4523 26.9669ZM12.5007 26.9636L12.5191 26.9649L12.5048 26.9639L12.5007 26.9636ZM14.4952 26.9639L14.4809 26.9649L14.4993 26.9636L14.4952 26.9639ZM12.4497 26.9597L12.4658 26.9609L12.4619 26.9607L12.4497 26.9597ZM14.5381 26.9607L14.5342 26.9609L14.5503 26.9597L14.5381 26.9607ZM14.5808 26.9573L14.5731 26.9579L14.5895 26.9566L14.5808 26.9573ZM12.4105 26.9566L12.4269 26.9579L12.4192 26.9573L12.4105 26.9566ZM12.3722 26.9535L12.3861 26.9546L12.3763 26.9539L12.3722 26.9535ZM14.6237 26.9539L14.6139 26.9546L14.6278 26.9535L14.6237 26.9539ZM12.3301 26.95L12.3343 26.9503L12.3336 26.9503L12.3301 26.95ZM14.6664 26.9503L14.6657 26.9503L14.6699 26.95L14.6664 26.9503ZM14.7091 26.9465L14.7053 26.9468L14.7148 26.946L14.7091 26.9465ZM12.2852 26.946L12.2947 26.9468L12.2909 26.9465L12.2852 26.946ZM12.2456 26.9424L12.2527 26.9431L12.2483 26.9427L12.2456 26.9424ZM14.7517 26.9427L14.7473 26.9431L14.7544 26.9424L14.7517 26.9427ZM11.3906 26.8359C4.94021 25.822 0 20.2334 0 13.5C0 6.04917 6.04916 0 13.5 0C20.9508 0 27 6.04917 27 13.5C27 20.2334 22.0598 25.822 15.6094 26.8359V17.4024H18.755L19.3535 13.5H15.6094V10.9677C15.6094 9.90005 16.1324 8.85939 17.8094 8.85939H19.5117V5.53712C19.5117 5.53712 17.9668 5.27345 16.4898 5.27345C13.4061 5.27345 11.3906 7.14236 11.3906 10.5258V13.5H7.96289V17.4024H11.3906V26.8359Z" fill="white"/>
</svg>
