<svg width="27" height="27" viewBox="0 0 27 27" fill="none" xmlns="http://www.w3.org/2000/svg">
<path fill-rule="evenodd" clip-rule="evenodd" d="M13.5 0C20.9508 0 27 6.04916 27 13.5C27 20.9508 20.9508 27 13.5 27C6.04916 27 0 20.9508 0 13.5C0 6.04916 6.04916 0 13.5 0ZM9.2793 21.0869V10.5442H5.77436V21.0869H9.2793ZM21.9155 21.0869V15.0412C21.9155 11.8028 20.1865 10.2963 17.8809 10.2963C16.0217 10.2963 15.1889 11.3188 14.7226 12.0369V10.5442H11.2186C11.2651 11.5334 11.2186 21.0869 11.2186 21.0869H14.7226V15.1992C14.7226 14.884 14.7453 14.569 14.8381 14.3438C15.091 13.7144 15.668 13.0624 16.6361 13.0624C17.9035 13.0624 18.4113 14.0295 18.4113 15.4462V21.0869H21.9155ZM7.55051 5.46064C6.35133 5.46064 5.56785 6.24902 5.56785 7.28235C5.56785 8.2939 6.32749 9.10401 7.5041 9.10401H7.52672C8.74884 9.10401 9.50954 8.2939 9.50954 7.28235C9.48686 6.24902 8.7489 5.46064 7.55051 5.46064Z" fill="white"/>
</svg>
