<svg width="282" height="86" viewBox="0 0 282 86" fill="none" xmlns="http://www.w3.org/2000/svg">
<g clip-path="url(#clip0)">
<path d="M280.625 2.08069H2.69556V82.759H280.625V2.08069Z" fill="white"/>
<path d="M0 43.0014V86.0029H281.522V0H0V43.0014ZM62.3379 2.3729C62.3379 3.44359 61.0639 11.2278 60.5427 13.2824L60.2242 14.5267H51.9434L51.6539 13.4271C51.4801 12.8483 51.0169 10.8516 50.6115 9.02857C50.2062 7.20549 49.7719 5.17985 49.5981 4.54322C49.4507 3.94472 49.3538 3.33488 49.3086 2.72015V2.08352H55.8232C59.9926 2.08352 62.3379 2.19927 62.3379 2.3729ZM41.491 25.5231V29.8348L27.9116 29.9216C14.7086 30.0084 14.3033 30.0373 13.5215 30.6161C11.4947 32.1209 10.9446 34.0018 11.9291 36.0275C13.0293 38.2846 12.8266 38.2557 26.3481 38.2557C33.5576 38.2557 38.5667 38.3714 39.2326 38.545C39.8839 38.7465 40.4592 39.1399 40.883 39.6736C41.4331 40.4549 41.491 41.0047 41.5489 47.9787L41.6358 55.4736L45.3419 55.5604C48.7295 55.6183 49.1349 55.5893 49.9166 55.0395C51.6828 53.7663 51.6539 54.2003 51.6249 37.4165C51.6249 28.9956 51.7118 21.9058 51.7986 21.6454C51.9434 21.2403 52.5804 21.1824 56.1417 21.1824H60.3111V23.8447C60.398 34.8121 60.2532 45.9241 60.0505 46.011C59.9347 46.0399 59.8768 46.4161 59.9636 46.7923C60.0319 47.1935 59.9495 47.6057 59.732 47.9498C59.4135 48.326 59.4425 48.3549 59.8189 48.2102C60.1953 48.0655 60.3111 48.3839 60.4559 49.7439C60.8323 53.3033 60.9191 53.5637 61.9036 54.4029C62.6853 55.1263 62.8591 55.4447 62.8011 56.3707C62.7722 57.8465 63.3223 58.1359 63.4381 56.689L63.525 55.6183H66.1887C68.9683 55.6183 69.6053 55.3868 70.8214 54.0556C71.661 53.1007 71.8637 51.6249 71.8927 45.982C71.8927 42.8278 72.0085 40.2813 72.1822 39.963C72.4787 39.5502 72.8405 39.1886 73.2535 38.8923C73.9484 38.4582 75.2513 38.4003 86.2828 38.2557L98.5303 38.111L99.5727 37.0403C102.15 34.4938 100.557 30.4135 96.8799 30.0084C96.2719 29.9505 91.2629 29.8927 85.7037 29.8927L75.6278 29.8637L75.7146 25.5809L75.8015 21.3271L91.1471 21.2403C102.15 21.1824 106.724 21.2692 107.303 21.5007C107.882 21.7884 108.394 22.1924 108.809 22.6872L109.533 23.5553V37.8505C109.533 53.6505 109.504 53.4769 111.328 54.8659C112.341 55.6183 112.341 55.6183 117.727 55.6183C122.62 55.6183 123.199 55.5604 124.097 55.0395C126.123 53.8242 126.095 54.1425 126.152 36.8377L126.181 21.3271L130.351 21.2403C134.231 21.1824 134.549 21.2113 134.925 21.7322C135.331 22.311 135.331 22.311 136.257 21.7612C137.097 21.2403 137.734 21.1824 144.162 21.1824C150.763 21.1824 151.169 21.2113 151.661 21.7612C151.901 22.0468 152.225 22.2494 152.587 22.3399C153.015 22.2454 153.413 22.0465 153.746 21.7612C154.44 21.2113 154.933 21.1824 161.042 21.1824C167.035 21.1824 167.672 21.2403 168.512 21.7612C170.365 22.8897 170.336 22.5714 170.336 38.2846C170.336 52.1458 170.365 52.5219 170.944 53.5637C172.015 55.5025 171.813 55.4447 182.468 55.6183L192.138 55.763L192.167 59.8143L192.196 63.8655L177.69 63.9523L163.214 64.0102L162.432 63.2L161.65 62.3608L161.621 47.834C161.592 31.8025 161.65 32.2945 159.739 30.8187C158.928 30.211 158.32 30.0373 156.583 29.9216C155.425 29.8637 154.122 29.8637 153.717 29.9795L152.964 30.1531V64.0392L148.563 63.9523L144.133 63.8655L143.988 48.2392C143.843 33.1916 143.814 32.5839 143.264 31.8315C142.222 30.4425 141.18 30.0373 138.226 29.9216C136.142 29.8058 135.476 29.8927 135.273 30.182C135.128 30.4135 135.012 37.5033 135.012 45.9531C135.012 56.4285 134.897 61.6084 134.694 62.245C134.086 63.9813 133.883 64.0102 121.462 64.0102C113.123 64.0102 110.141 63.9234 109.88 63.663C109.62 63.4025 109.446 63.4025 109.185 63.663C108.693 64.1549 72.4428 64.1549 71.9506 63.663C71.69 63.4025 71.5163 63.4025 71.2557 63.663C70.7635 64.1549 42.3307 64.1549 41.8385 63.663C41.6068 63.4315 41.4042 63.4315 41.1146 63.663C40.8251 63.8945 35.845 63.9813 21.7734 63.9523L2.8375 63.8655L2.75063 59.9879C2.69272 57.0652 2.77958 56.0523 3.04017 55.8498C3.24284 55.734 9.38108 55.6183 16.6485 55.6183C29.5909 55.6183 29.9095 55.6183 30.9228 55.0106C33.4129 53.5348 33.4129 49.3388 30.9228 47.8051C30.0253 47.2553 29.5041 47.2263 17.7777 47.2263C4.37206 47.2263 3.99565 47.1974 3.15599 45.519C2.75063 44.7666 2.69273 43.1172 2.69273 34.1465C2.72169 22.6004 2.69273 22.6582 4.45892 21.7322C5.38544 21.2403 6.68836 21.2113 23.4817 21.1824H41.491V25.5231ZM246.485 36.9535C246.572 45.3743 246.543 52.4062 246.427 52.5798C246.311 52.7535 246.196 52.6088 246.196 52.3483C246.196 52.0879 246.08 51.8564 245.935 51.8564C245.79 51.8564 245.674 52.4641 245.703 53.2165C245.735 53.8693 245.666 54.523 245.501 55.1553C245.298 55.5604 245.327 55.6762 245.645 55.5604C245.781 55.4942 245.899 55.3967 245.99 55.276C246.08 55.1552 246.141 55.0147 246.167 54.8659C246.34 53.9399 246.861 53.882 247.383 54.7502C248.28 56.197 248.628 56.2549 255.606 56.1392C262.931 56.0523 263.076 55.9945 264.408 53.5926L265.102 52.3773L265.074 41.6124C265.074 35.7091 265.045 30.3846 265.045 29.8058L265.016 28.7351L261.338 28.6483L257.632 28.5615L257.546 25.2626C257.488 22.8319 257.574 21.9058 257.835 21.7322C258.038 21.5875 263.134 21.5007 269.127 21.5007L280.072 21.4718V28.7062H272.63L272.457 30.645C272.341 31.7447 272.283 39.6157 272.283 48.1813C272.283 56.7469 272.196 63.8655 272.109 64.0102C272.022 64.1549 270.14 64.2996 267.535 64.2996C264.089 64.2996 262.989 64.2128 262.497 63.8655C262.004 63.5183 261.86 63.4893 261.541 63.8655C261.078 64.4443 252.884 64.5022 251.986 63.9523C251.552 63.663 251.349 63.663 251.06 63.9523C250.568 64.4443 234.382 64.4443 233.311 63.9523C232.732 63.6919 232.413 63.6919 232.008 63.9234C231.197 64.4443 217.531 64.5022 216.72 63.9813C216.228 63.663 216.025 63.663 215.736 63.9523C215.446 64.2417 213.912 64.2996 210.148 64.2996C203.546 64.2996 203.459 64.2417 201.259 59.6696C199.695 56.3996 199.869 56.8047 197.727 50.6989C196.684 47.7472 195.381 44.0432 194.802 42.4516C194.223 40.8601 193.644 39.2395 193.499 38.8344C193.355 38.4293 192.775 36.8088 192.196 35.2172C191.617 33.6256 191.038 32.0051 190.893 31.6C190.749 31.1949 190.314 29.9505 189.909 28.8509C188.925 26.3333 187.998 22.8608 188.172 22.5714C188.259 22.4557 190.257 22.3399 192.602 22.3399H196.858L198.682 27.6066C199.667 30.5293 200.796 33.8861 201.172 35.0725C202.157 38.2267 206.268 50.4095 206.673 51.4223C206.876 51.8853 207.195 52.7245 207.397 53.2454C207.6 53.7663 207.861 54.0846 207.976 53.9688C208.092 53.8531 209.482 49.9465 211.045 45.3454C212.609 40.7443 214.983 33.6256 216.344 29.5743L218.834 22.1952L220.137 22.1663C220.861 22.1374 222.714 22.1952 224.277 22.282C227.086 22.4267 227.086 22.4267 227.086 23.1791C227.086 24.1051 226.073 27.2883 224.509 31.3106C222.945 35.3329 222.337 36.8666 219.413 44.9113C218.052 48.6443 216.807 52.0011 216.634 52.3773C216.17 53.5058 216.344 54.374 217.213 55.3L218.081 56.226L226.333 56.1392C234.093 56.0523 234.614 56.0234 235.367 55.4736C235.897 55.0297 236.339 54.4897 236.67 53.882C237.191 52.9271 237.22 51.9143 237.22 37.3586C237.22 28.8509 237.307 21.7612 237.423 21.6454C237.538 21.5297 239.594 21.5007 241.968 21.5297L246.34 21.6165L246.485 36.9535ZM27.2457 73.2413C27.2043 73.3798 27.1258 73.5043 27.0186 73.6012C26.9114 73.6982 26.7796 73.7639 26.6376 73.7912C26.0296 73.9069 25.6243 73.0098 26.1454 72.6915C26.6666 72.3732 27.3615 72.6915 27.2457 73.2413ZM56.3155 73.0677C56.4253 73.2505 56.4759 73.4628 56.4602 73.6754C56.2575 74.2831 55.7653 74.1095 55.1283 73.2413L54.4334 72.3153L55.2731 72.5179C55.6652 72.6002 56.0263 72.7907 56.3155 73.0677ZM126.094 78.8553C126.181 82.6461 126.152 82.8197 125.602 82.8197C125.052 82.8197 125.023 82.6461 125.11 78.3055C125.168 75.3538 125.11 73.6754 124.907 73.4729C124.415 72.9809 124.531 72.7494 125.255 72.6337C125.979 72.5179 125.979 72.4022 126.094 78.8553ZM187.593 73.5307C187.274 74.0516 186.55 73.9069 186.55 73.3282C186.539 73.0625 186.61 72.7999 186.753 72.5758C187.043 72.2864 187.824 73.1545 187.593 73.5307ZM201.635 74.9197C201.722 78.4212 201.838 81.4018 201.954 82.0963C202.012 82.5014 201.867 82.704 201.404 82.7619C200.998 82.8197 200.738 82.704 200.709 82.4725V79.6366C200.709 78.2765 200.564 77.0322 200.419 76.8586C200.217 76.6271 200.246 76.4534 200.448 76.3088C200.825 76.0772 200.825 73.2703 200.448 73.2703C200.376 73.2707 200.307 73.2442 200.253 73.196C200.2 73.1479 200.166 73.0815 200.159 73.0098C200.159 72.7784 200.622 72.5468 201.404 72.4311C201.52 72.4311 201.635 73.5307 201.635 74.9197ZM232.587 77.6109C232.587 82.6172 232.558 82.8197 232.008 82.8197C231.458 82.8197 231.429 82.6172 231.429 77.7846C231.429 72.8073 231.487 72.5179 232.384 72.4311C232.5 72.4022 232.587 74.7461 232.587 77.6109ZM269.069 73.1545C269.069 73.7044 268.258 74.0227 267.853 73.6175C267.621 73.386 267.621 73.1835 267.882 72.8652C268.287 72.3732 269.069 72.5758 269.069 73.1545ZM5.038 73.5018C4.40101 74.0227 4.11147 74.4857 4.16938 74.8619C4.22729 75.2381 5.32754 76.1351 6.74629 77.0901C9.35214 78.8553 9.8154 79.434 9.52586 80.6205C9.29423 81.5175 8.04919 82.8197 7.41221 82.8197C7.06476 82.8197 7.15165 82.6461 7.73073 82.0963C8.13608 81.7201 8.48352 81.286 8.48352 81.1703C8.45457 80.1285 7.93341 79.5208 6.13826 78.4501C3.90881 77.1769 3.12704 76.0772 3.41658 74.7172C3.61926 73.849 4.83533 72.7205 5.58813 72.6915C5.81976 72.6915 5.55917 73.0388 5.038 73.5018ZM7.47014 72.9809C7.557 73.1256 7.96235 73.2703 8.3677 73.2703C8.97573 73.2703 9.0626 73.415 9.0626 74.2831V75.3249L8.16504 74.2831C7.67282 73.7333 7.09373 73.2703 6.89106 73.2703C6.77907 73.2682 6.66897 73.2411 6.56879 73.191C6.46861 73.1409 6.38088 73.0692 6.31198 72.9809C6.22512 72.8073 6.39885 72.6915 6.71734 72.6915C7.03583 72.6915 7.38327 72.8073 7.47014 72.9809ZM53.3911 73.3571C53.2463 73.7333 53.1595 76.0194 53.1595 78.4212C53.2174 82.6461 53.1884 82.8197 52.6383 82.8197C52.0303 82.8197 52.0303 82.7619 52.204 75.2959C52.204 74.6304 53.1884 72.6915 53.5069 72.6915C53.5648 72.6915 53.5359 72.9809 53.3911 73.3571ZM74.5854 72.8941C74.7012 72.9809 74.6433 73.2413 74.4696 73.4439C74.2959 73.6465 74.209 75.4406 74.2669 78.3055L74.3538 82.8197H72.9061L72.9929 78.3633C73.0798 75.4406 72.9929 73.7044 72.7903 73.2992C72.4718 72.7494 72.5297 72.6915 73.4272 72.6915C73.9774 72.6915 74.4985 72.7784 74.5854 72.8941ZM89.5546 77.0901C89.5546 79.5208 89.6415 81.8069 89.7283 82.1542C89.8731 82.675 89.7862 82.8197 89.3519 82.8197C89.0219 82.8097 88.7052 82.6871 88.4543 82.4725C88.1938 82.212 88.02 82.212 87.7594 82.4725C87.5568 82.675 86.9198 82.8197 86.3407 82.8197C85.4142 82.8197 85.1536 82.675 84.6614 81.8358C84.1618 81.0111 83.9691 80.0366 84.1174 79.0839C84.2657 78.1311 84.7454 77.2612 85.4721 76.6271C85.8196 76.3087 86.167 76.1641 86.2539 76.2509C86.3407 76.3377 86.1381 76.6849 85.7617 77.0033C85.1826 77.4663 85.0667 77.8424 85.0667 79.0289C85.0667 80.2732 85.1826 80.6205 85.9643 81.4018C86.8329 82.241 86.9198 82.2699 87.7016 81.9227C88.4833 81.5754 88.5412 81.3439 88.6281 79.8681C88.686 78.7974 88.5702 77.9003 88.2806 77.3505C87.8753 76.6271 87.8753 76.4824 88.2517 76.3377C88.7439 76.1641 88.8597 73.7044 88.3965 73.415C87.8753 73.0967 88.1069 72.6915 88.8308 72.6915H89.5546V77.0901ZM115.468 73.2703C115.452 73.3979 115.395 73.5169 115.307 73.6105C115.218 73.704 115.103 73.7673 114.976 73.7912C114.6 73.849 114.455 73.7044 114.455 73.2703C114.455 72.8362 114.6 72.6915 114.976 72.7494C115.103 72.7733 115.218 72.8366 115.307 72.9301C115.395 73.0237 115.452 73.1427 115.468 73.2703ZM151.227 77.1479C151.227 79.6945 151.342 81.6912 151.516 81.8069C151.892 82.0384 151.545 82.8197 151.053 82.8197C150.998 82.8179 150.943 82.8052 150.893 82.7823C150.843 82.7595 150.798 82.727 150.76 82.6867C150.722 82.6464 150.693 82.599 150.674 82.5474C150.654 82.4957 150.646 82.4408 150.647 82.3857C150.647 82.1542 150.561 81.9516 150.416 81.9516C150.271 81.9516 150.242 80.9967 150.3 79.8102C150.358 78.6238 150.271 77.4373 150.097 77.0901C149.895 76.6849 149.866 76.4245 150.068 76.3088C150.445 76.0772 150.445 73.6465 150.068 73.415C149.547 73.0967 149.779 72.6915 150.503 72.6915H151.227V77.1479ZM183.308 77.8424C183.365 82.4435 183.336 82.8197 182.873 82.8197C182.41 82.8197 182.352 82.4146 182.352 77.7556C182.352 73.386 182.41 72.6915 182.786 72.7494C183.163 72.8073 183.221 73.6754 183.308 77.8424ZM210.177 74.341C210.582 75.267 211.248 76.7139 211.625 77.5531C211.905 78.121 212.138 78.7115 212.319 79.3183C212.447 79.6396 212.633 79.9341 212.87 80.1864C213.449 80.852 213.333 81.9516 212.667 82.1831C212.348 82.2699 211.132 79.926 210.148 77.1769C208.961 73.9359 208.555 74.2831 208.555 78.5659C208.555 80.9388 208.671 82.241 208.903 82.4725C209.163 82.7329 209.134 82.8197 208.7 82.8197C208.15 82.8197 208.121 82.6172 208.208 78.508C208.266 75.8747 208.179 73.9648 208.005 73.6175C207.658 72.952 207.86 72.6915 208.758 72.6915C209.337 72.6915 209.598 73.0099 210.177 74.341ZM217.965 77.7556V82.8197H216.518L216.634 79.0578C216.72 75.7589 216.662 75.2959 216.257 75.2959C215.997 75.2959 215.794 75.4117 215.794 75.5564C215.794 76.1062 214.607 78.5659 214.433 78.3633C214.346 78.2765 214.375 77.9003 214.549 77.5241C214.723 77.1479 215.215 76.0483 215.678 75.0066C216.547 73.0388 216.836 72.6915 217.531 72.6915C217.907 72.6915 217.965 73.4439 217.965 77.7556ZM161.042 73.7912C161.187 74.0805 161.94 75.8168 162.663 77.6399C163.387 79.463 164.256 81.3729 164.545 81.8648L165.096 82.8197H163.966C162.866 82.8197 162.808 82.7619 162.808 81.9516C162.778 81.3346 162.641 80.7275 162.403 80.1575C162.171 79.6366 161.621 78.3344 161.187 77.2926C160.666 75.9904 160.26 75.4117 160 75.4985C159.903 75.53 159.818 75.587 159.751 75.6635C159.685 75.7399 159.641 75.8329 159.623 75.9326C159.488 76.4359 159.293 76.9215 159.044 77.3794C158.782 77.8821 158.587 78.4173 158.465 78.971C158.399 79.3689 158.241 79.7457 158.002 80.0707C157.709 80.6051 157.541 81.1985 157.51 81.8069C157.481 82.675 157.394 82.8197 156.815 82.8197C155.975 82.8197 155.975 82.7619 156.873 81.3728C157.278 80.7362 157.596 80.0417 157.596 79.8102C157.599 79.6942 157.626 79.5799 157.676 79.4751C157.726 79.3703 157.797 79.2774 157.886 79.2025C157.979 79.1381 158.054 79.0513 158.105 78.9501C158.155 78.849 158.18 78.7368 158.176 78.6238C158.176 78.4212 158.552 77.4084 159.015 76.3956C159.478 75.3827 159.942 74.2831 160.058 73.9069C160.289 73.1256 160.666 73.0967 161.042 73.7912ZM228.823 82.0674C229.257 82.5014 229.171 82.8197 228.592 82.8197C227.607 82.8197 227.375 82.212 227.375 79.4919C227.375 78.045 227.231 76.7139 227.086 76.5692C226.883 76.3666 227.028 75.9904 227.578 75.3827L228.389 74.4857L228.476 78.1608C228.505 80.1575 228.678 81.9227 228.823 82.0674ZM264.494 77.7556C264.35 81.4886 264.523 82.3567 265.334 82.1542C265.711 82.0674 265.884 82.1252 265.797 82.3278C265.711 82.5304 265.305 82.704 264.813 82.7619C263.713 82.8776 263.597 82.6461 263.51 79.3761C263.481 77.9582 263.307 76.8296 263.105 76.6271C262.844 76.3956 262.96 76.1062 263.539 75.4117C263.944 74.9197 264.379 74.5435 264.465 74.6014C264.552 74.6593 264.581 76.0772 264.494 77.7556ZM37.4664 75.4985C37.4908 75.8652 37.4812 76.2333 37.4375 76.5981C37.3506 76.9454 37.3506 78.9421 37.4085 80.7362C37.4375 81.749 37.5533 82.0384 38.0166 82.1542C38.9141 82.3857 38.7115 82.8197 37.727 82.8197C36.6268 82.8197 36.5399 82.5882 36.482 79.5787C36.453 77.9871 36.2793 76.9454 36.0187 76.656C35.7002 76.2219 35.7292 76.0772 36.3083 75.4406C37.2058 74.5146 37.4375 74.5436 37.4664 75.4985ZM106.058 75.4117C106.058 75.7879 106.232 76.1641 106.435 76.2509C106.724 76.3666 106.724 76.4534 106.435 76.7717C106.203 77.0033 106.058 78.0161 106.058 79.434C106.058 81.4597 106.116 81.7201 106.637 81.8648C107.651 82.1252 107.332 82.8776 106.29 82.7619L105.335 82.675L105.248 80.0707C105.219 78.6238 105.045 77.1769 104.871 76.8296C104.611 76.3377 104.64 76.0772 105.074 75.4696C105.769 74.5435 106.058 74.5146 106.058 75.4117ZM23.1921 76.5113C23.6843 77.0033 23.6264 77.9003 23.1342 77.9003C22.9026 77.9003 22.5262 77.4952 22.2656 77.0322C21.8892 76.2219 21.8892 76.1641 22.3525 76.1641C22.6641 76.1795 22.9607 76.3022 23.1921 76.5113ZM27.0141 79.4919C27.0141 82.6172 26.9851 82.8197 26.435 82.8197C25.8849 82.8197 25.8559 82.6172 25.8559 79.6945C25.8559 76.5113 25.9427 76.1641 26.6376 76.1641C26.9272 76.1641 27.0141 76.9164 27.0141 79.4919ZM33.8182 76.8875C34.7448 77.7846 34.7448 78.3633 33.8472 78.537C33.2681 78.6527 33.1233 78.5369 33.0075 77.9293C32.9338 77.4945 32.8174 77.068 32.6601 76.656C32.3416 75.9326 33.0075 76.0483 33.8182 76.8875ZM41.6069 77.3505C42.0991 78.7395 42.9966 80.2732 43.4309 80.4179C43.6047 80.4758 43.8363 80.0996 43.9521 79.5787C44.0532 79.0996 44.2086 78.6336 44.4154 78.1897C44.6242 77.7867 44.808 77.3711 44.9655 76.9454C45.1103 76.4824 45.3998 76.2219 45.5446 76.3088C45.6894 76.3956 45.8052 76.5692 45.7473 76.6849C44.8128 78.5419 43.9721 80.4446 43.2283 82.3857C42.4176 84.6718 41.3463 86.0608 40.5355 85.945C39.8117 85.8582 39.5222 84.8743 40.0723 84.5271C40.1854 84.4649 40.3143 84.4373 40.4429 84.4476C40.5716 84.4579 40.6944 84.5056 40.7961 84.5849C41.2884 84.9901 41.8674 84.6717 42.3017 83.7747C42.8229 82.6461 42.765 82.2699 41.6358 79.9549C41.2421 79.2089 40.9034 78.4352 40.6224 77.6399C40.5465 77.3961 40.3943 77.183 40.1881 77.0322C39.638 76.5692 39.9275 76.1062 40.6803 76.2219C41.0567 76.2798 41.3752 76.6849 41.6069 77.3505ZM60.9481 77.0322C61.7588 77.8425 61.8167 78.074 61.7009 79.3472C61.5561 80.7362 60.369 82.8197 59.7031 82.8197C59.5583 82.8197 59.7031 82.4435 60.0505 81.9805C60.6006 81.2282 60.6585 80.8809 60.5138 79.463C60.398 78.4501 60.1084 77.4663 59.732 76.9743C59.2398 76.2798 59.2109 76.1641 59.5873 76.1641C59.8479 76.1641 60.4559 76.5692 60.9481 77.0322ZM64.6832 76.5113C64.7121 76.7139 64.7411 78.2186 64.77 79.8392C64.799 82.6461 64.77 82.8197 64.2199 82.8197C63.6698 82.8197 63.6408 82.6461 63.6987 79.5787C63.7277 77.7846 63.7566 76.2798 63.7566 76.2219C63.8145 75.9615 64.6542 76.2219 64.6832 76.5113ZM67.1732 76.5981C67.26 76.8586 67.2601 77.1479 67.1442 77.2348C66.8837 77.5241 65.4649 76.7718 65.6676 76.4534C65.9571 75.9904 66.9705 76.1062 67.1732 76.5981ZM78.1467 76.5692C78.2336 76.7718 78.3205 78.2765 78.3494 79.897L78.4073 82.8197H76.9596L77.0175 79.5787C77.0465 77.7846 77.0755 76.2798 77.1044 76.2219C77.1334 75.9615 78.0309 76.2509 78.1467 76.5692ZM81.6791 76.5113C81.8239 76.7139 82.0266 78.2186 82.0845 79.8681C82.1713 82.675 82.1424 82.8197 81.5923 82.8197C81.0422 82.8197 81.0132 82.675 81.129 80.3311C81.1869 78.2765 81.129 77.7846 80.6947 77.2926C80.4655 77.0142 80.1494 76.8206 79.7971 76.7428C79.5655 76.7428 79.4786 76.5981 79.5655 76.4534C79.8261 76.0483 81.3317 76.1062 81.6791 76.5113ZM92.7395 78.5659C92.7395 81.286 93.2318 82.4146 94.2451 82.0674C94.6795 81.9516 94.7953 82.0095 94.7084 82.2699C94.6215 82.5303 94.1293 82.704 93.5792 82.7619C92.2184 82.8776 91.9288 82.241 91.8709 79.1736C91.813 75.9615 91.7841 76.1641 92.3052 76.1641C92.6527 76.1641 92.7395 76.6271 92.7395 78.5659ZM96.6773 78.9421C96.7062 80.389 96.8221 81.8648 96.9379 82.212C97.0826 82.675 96.9958 82.8197 96.5615 82.8197C96.0113 82.8197 95.4902 81.8937 95.6349 81.2282C95.6639 81.0545 95.6928 79.8681 95.6928 78.537C95.6928 76.4824 95.7507 76.1351 96.1561 76.2219C96.5615 76.3088 96.6194 76.8007 96.6773 78.9421ZM102.816 77.0033C102.931 77.6688 102.931 77.6688 102.179 77.1479C101.252 76.4534 101.223 76.1062 102.092 76.2219C102.286 76.2428 102.467 76.3335 102.6 76.4771C102.733 76.6207 102.81 76.8076 102.816 77.0033ZM110.257 76.656C110.382 76.7966 110.459 76.9744 110.475 77.1623C110.49 77.3503 110.444 77.5383 110.344 77.6978C110.025 78.3055 110.141 81.5175 110.517 82.2989C110.72 82.7329 110.604 82.8197 109.822 82.8197C109.041 82.8197 108.925 82.7329 109.07 82.3278C109.214 81.9227 109.359 77.582 109.214 76.8586C109.07 76.0194 109.707 75.9036 110.257 76.656ZM112.631 76.5981C112.676 76.6931 112.699 76.7969 112.699 76.902C112.699 77.007 112.676 77.1108 112.631 77.2058C112.341 77.4952 111.27 77.0033 111.27 76.5692C111.27 76.0194 112.399 76.0483 112.631 76.5981ZM115.266 79.5787C115.324 82.5304 115.295 82.8197 114.831 82.8197C114.368 82.8197 114.31 82.5304 114.368 79.6945C114.397 75.8747 114.368 76.0773 114.831 76.2219C115.063 76.3088 115.208 77.3216 115.266 79.5787ZM121.694 76.4534C122.012 76.656 122.157 77.4084 122.215 79.3472C122.273 81.286 122.417 81.9516 122.736 81.9516C122.967 81.9516 123.054 82.1252 122.967 82.3857C122.765 82.9065 121.867 82.9644 121.462 82.4436C121.288 82.241 121.172 80.9967 121.172 79.6945C121.201 78.2186 121.085 77.1769 120.883 76.9743C120.159 76.2509 120.767 75.8747 121.694 76.4534ZM133.478 76.6849C133.206 76.9585 133.033 77.3149 132.986 77.6978C132.993 77.759 132.987 77.821 132.968 77.8797C132.95 77.9385 132.919 77.9926 132.878 78.0387C132.837 78.0847 132.786 78.1215 132.73 78.1467C132.674 78.1719 132.613 78.1849 132.551 78.1849C132.49 78.1849 132.429 78.1719 132.372 78.1467C132.316 78.1215 132.266 78.0847 132.225 78.0387C132.184 77.9926 132.153 77.9385 132.134 77.8797C132.116 77.821 132.11 77.759 132.117 77.6978C132.117 77.0901 132.957 76.1641 133.507 76.1641C133.883 76.1641 133.883 76.2509 133.478 76.6849ZM136.17 76.7139C136.315 77.0322 136.46 78.2765 136.46 79.4919C136.46 81.1992 136.547 81.7201 136.894 81.8358C137.473 82.0674 136.894 82.8197 136.17 82.8197C135.447 82.8197 135.244 81.6912 135.36 79.2315C135.389 78.0161 135.302 77.2058 135.07 76.9743C134.549 76.4534 134.636 76.1641 135.302 76.1641C135.478 76.186 135.648 76.2466 135.798 76.3417C135.948 76.4367 136.075 76.5639 136.17 76.7139ZM140.195 76.656C140.687 77.0611 140.687 77.1769 140.34 77.5241C139.819 78.045 139.761 81.9516 140.282 82.4725C140.543 82.7329 140.427 82.8197 139.79 82.8197H138.921L138.979 79.5787C139.008 77.7846 139.037 76.2798 139.037 76.2219C139.095 76.0194 139.703 76.2219 140.195 76.656ZM143.699 76.9164C143.872 77.3216 143.988 78.8263 143.988 80.2443C143.988 82.6172 143.959 82.8197 143.409 82.8197C142.859 82.8197 142.83 82.6172 142.83 80.1285C142.83 77.2926 142.627 76.7428 141.556 76.7428C141.064 76.7428 141.035 76.6849 141.382 76.4534C141.77 76.2629 142.195 76.1639 142.627 76.1641C142.867 76.1357 143.109 76.1968 143.307 76.3356C143.504 76.4744 143.644 76.6812 143.699 76.9164ZM168.194 76.5113C168.338 76.7139 168.396 77.9003 168.338 79.1446C168.28 81.1703 168.338 81.5175 168.917 82.1252L169.554 82.8197H168.946C168.367 82.8197 168.309 82.9644 168.309 84.4402C168.309 85.9161 168.251 86.0318 167.73 85.945C167.151 85.8582 167.122 85.6556 167.122 81.2282C167.122 78.6816 167.122 76.5113 167.151 76.3666C167.151 76.0194 167.962 76.1351 168.194 76.5113ZM172.044 76.9164C172.479 77.4952 172.652 78.1029 172.652 79.2315C172.652 80.5337 172.508 80.9388 171.755 81.8069C171.234 82.3857 170.597 82.8197 170.22 82.8197C169.612 82.7908 169.612 82.7908 170.191 82.4725C171.176 81.9516 171.494 81.315 171.494 79.9549C171.494 77.9003 171.234 77.3794 170.162 76.9743C169.004 76.5692 169.149 76.1641 170.481 76.1641C170.784 76.1441 171.088 76.2029 171.362 76.3347C171.636 76.4666 171.871 76.6669 172.044 76.9164ZM175.837 76.656C176.127 77.1479 176.127 77.1479 176.416 76.656C176.851 75.9615 178.559 75.9904 179.312 76.7428C180.557 77.9871 180.441 80.6205 179.109 81.9805C178.675 82.4146 178.125 82.8197 177.893 82.8197C177.604 82.8197 177.661 82.6461 178.096 82.241C178.878 81.5175 179.138 80.5047 178.935 79.1446C178.675 77.582 177.864 76.9164 176.59 77.1479L175.548 77.3505V79.5787C175.548 81.7201 175.577 81.8359 176.359 82.2989C177.14 82.7619 177.111 82.7908 176.503 82.8197C175.895 82.8487 175.837 82.9644 175.837 84.4113C175.837 85.8582 175.779 86.0029 175.2 86.0029C174.534 86.0029 174.534 86.0029 174.592 81.286C174.621 78.7106 174.65 76.5113 174.65 76.3666C174.708 75.9615 175.519 76.1641 175.837 76.656ZM187.419 79.4919C187.419 82.4725 187.361 82.8197 186.927 82.8197C186.492 82.8197 186.406 82.5014 186.464 79.6945C186.492 77.9871 186.521 76.5113 186.521 76.3666C186.521 76.2219 186.753 76.1641 186.985 76.1641C187.332 76.1641 187.419 76.7139 187.419 79.4919ZM194.368 76.9454C195.092 77.8714 195.034 78.6238 194.223 78.6238C193.818 78.6238 193.615 78.3923 193.557 77.9003C193.462 77.4245 193.206 76.9957 192.833 76.6849L192.196 76.1641H192.978C193.254 76.178 193.524 76.2559 193.765 76.3914C194.006 76.527 194.213 76.7166 194.368 76.9454ZM221.932 76.5113C221.723 76.7426 221.6 77.0391 221.585 77.3505C221.585 77.9871 221.035 78.3344 220.658 77.9582C220.484 77.7846 220.513 77.4663 220.745 77.0611C221.092 76.5692 221.295 76.4245 222.164 76.193C222.222 76.193 222.135 76.3088 221.932 76.5113ZM224.538 76.656C224.972 77.0322 225.059 77.5531 225.059 79.5498C225.059 80.9677 225.175 81.9516 225.349 81.9516C225.522 81.9516 225.638 82.1542 225.638 82.3857C225.638 82.9065 224.741 82.9644 224.248 82.4725C223.988 82.212 223.64 82.241 222.714 82.5304C221.324 82.9934 220.629 82.704 220.484 81.5754C220.369 80.7073 221.179 79.3472 221.758 79.3472C222.106 79.3472 222.106 79.463 221.729 80.0417C221.353 80.6205 221.324 80.8809 221.585 81.3439C221.932 82.0095 223.003 82.1542 223.554 81.6043C224.104 81.0545 224.017 77.3505 223.409 76.6849C222.974 76.193 222.974 76.1641 223.467 76.1641C223.869 76.2033 224.246 76.3765 224.538 76.656ZM236.177 76.8007C236.438 77.2348 236.641 78.4501 236.699 80.1575C236.786 82.8487 236.785 82.8487 236.091 82.7619C235.396 82.675 235.425 82.5882 235.367 79.926C235.338 77.4084 235.28 77.1769 234.701 76.8586C233.948 76.4824 234.122 76.1641 235.077 76.1641C235.296 76.1839 235.508 76.2512 235.698 76.3611C235.888 76.4711 236.051 76.6211 236.177 76.8007ZM242.924 76.8007C243.59 77.4373 243.792 78.3055 243.329 78.5948C242.866 78.8842 242.258 78.4791 242.229 77.8714C242.155 77.4426 241.964 77.0422 241.679 76.7139C241.215 76.193 241.215 76.1641 241.708 76.1641C242.167 76.2511 242.59 76.4727 242.924 76.8007ZM246.746 76.7139C246.919 77.0033 246.977 77.3216 246.861 77.4084C246.746 77.4952 246.688 78.7685 246.688 80.2153C246.659 82.6461 246.63 82.8197 246.08 82.8197C245.53 82.8197 245.472 82.675 245.53 79.5787C245.559 77.7846 245.588 76.2798 245.588 76.2219C245.674 75.9326 246.514 76.2798 246.746 76.7139ZM250.22 76.8296C250.394 77.1769 250.654 78.6816 250.77 80.1575L251.002 82.8197H250.249C249.525 82.8197 249.525 82.8197 249.525 80.2443C249.525 77.5241 249.207 76.7428 248.164 76.7428C247.875 76.7428 247.701 76.5981 247.788 76.4534C247.875 76.3088 248.396 76.1641 248.917 76.1641C249.612 76.1641 249.96 76.3377 250.22 76.8296ZM253.955 76.3956C254.187 76.5692 254.39 77.5531 254.476 79.0868C254.509 80.1143 254.605 81.1387 254.766 82.1542C254.882 82.7329 254.766 82.8197 254.042 82.8197C253.202 82.8197 253.173 82.7908 253.492 81.9227C253.839 80.8809 253.608 77.7267 253.116 77.1479C252.992 77.0197 252.843 76.9177 252.679 76.8481C252.515 76.7785 252.338 76.7427 252.16 76.7428C251.668 76.7428 251.639 76.6849 251.986 76.4534C252.284 76.2809 252.62 76.1852 252.963 76.1751C253.307 76.165 253.648 76.2408 253.955 76.3956ZM260.615 76.5113C260.817 76.7139 260.962 77.7846 260.962 79.2604C260.962 81.1703 261.049 81.6912 261.425 81.8937C262.004 82.212 261.715 82.8197 260.991 82.8197C260.122 82.8197 259.92 82.212 259.978 79.6655C260.007 77.6399 259.949 77.1769 259.485 76.7139C258.935 76.1641 258.935 76.1641 259.601 76.1641C259.969 76.1584 260.328 76.2812 260.615 76.5113ZM269.069 79.5787L269.214 82.8197H267.766L267.824 79.6945C267.882 75.8168 267.824 76.1062 268.432 76.2219C268.866 76.3088 268.953 76.7718 269.069 79.5787ZM275.931 76.9454C276.337 77.5531 276.337 77.6109 275.873 77.7846C275.526 77.9293 275.178 77.7556 274.831 77.2926C274.596 77.018 274.409 76.7047 274.281 76.3666C274.281 75.8747 275.526 76.3377 275.931 76.9454ZM281.461 77.0611C281.577 77.7556 281.577 77.7556 280.998 77.1769C280.419 76.5981 280.448 76.0483 281.027 76.2509C281.23 76.3087 281.432 76.656 281.461 77.0611ZM16.359 76.9454C16.8012 77.4604 17.0856 78.0918 17.178 78.7641C17.2705 79.4364 17.167 80.1211 16.8802 80.7362C16.689 81.2022 16.4358 81.6402 16.1274 82.0384C15.9826 82.1252 15.8668 81.1703 15.8668 79.926C15.8668 78.1029 15.751 77.5531 15.3167 77.0611C14.7665 76.4534 14.7665 76.4534 15.3456 76.4534C15.7318 76.4896 16.0918 76.6643 16.359 76.9454ZM19.8624 77.3505C18.7332 79.6366 20.8469 82.8776 22.7289 81.6912C23.4527 81.2571 23.3948 81.6043 22.613 82.2699C21.8023 82.9934 20.3836 82.9644 19.515 82.212C18.878 81.6912 18.7911 81.3728 18.7911 79.6077C18.7622 77.7846 18.849 77.4952 19.4571 77.0033C20.3547 76.2798 20.3836 76.3087 19.8624 77.3505ZM57.3288 76.9743C56.2575 78.1318 56.9814 81.8069 58.3712 82.4725C58.9792 82.7619 58.9792 82.7908 58.2264 82.7908C57.7342 82.8197 57.1262 82.5014 56.576 81.9227C55.7943 81.1703 55.6785 80.823 55.6785 79.5498C55.6785 78.3344 55.8232 77.9293 56.4602 77.2637C57.2999 76.3666 58.1106 76.1062 57.3288 76.9743ZM99.7753 77.0322C99.5727 77.7846 100.036 78.3055 101.599 79.0578C103.163 79.8102 103.453 80.6494 102.7 81.9227C102.41 82.4146 102.005 82.8197 101.802 82.8197C101.281 82.8197 101.339 82.3278 101.86 82.1252C102.671 81.8358 102.294 81.1124 100.673 79.926C98.8488 78.5659 98.6172 78.1608 99.0515 77.1479C99.4568 76.3087 99.978 76.2219 99.7753 77.0322ZM119.146 76.8007C118.931 77.0401 118.808 77.3476 118.798 77.6688C118.807 77.7949 118.767 77.9196 118.686 78.0167C118.605 78.1138 118.49 78.1758 118.364 78.1897C117.843 78.1897 117.785 77.2926 118.277 76.8007C118.49 76.5983 118.766 76.4757 119.059 76.4534C119.406 76.4534 119.406 76.5403 119.146 76.8007ZM257.69 77.3216C257.343 78.2765 256.619 78.508 256.619 77.6688C256.619 77.0611 257.14 76.4534 257.661 76.4534C257.922 76.4534 257.951 76.656 257.69 77.3216ZM278.711 77.2348C278.595 77.9582 278.769 78.1318 280.072 78.8553C281.954 79.926 282.417 80.7941 281.635 81.8648C281.38 82.2454 281.031 82.5542 280.622 82.7619C280.332 82.8776 280.39 82.704 280.767 82.2989C281.461 81.4886 281.288 81.1124 279.753 80.0707C279.169 79.7047 278.626 79.2779 278.132 78.7974C277.668 78.2476 277.64 77.2637 278.103 76.8007C278.653 76.2509 278.827 76.3956 278.711 77.2348ZM12.3344 78.0161C12.1317 79.8102 12.4213 81.1703 13.2609 82.0674C13.84 82.704 13.8689 82.8197 13.4636 82.8197C12.3054 82.7908 11.0894 81.1124 11.0894 79.5208C11.0894 78.7684 12.0159 76.7428 12.3634 76.7428C12.4213 76.7428 12.3923 77.3216 12.3344 78.0161ZM146.941 78.6816C146.854 80.4758 146.912 80.7073 147.607 81.4307C148.013 81.8937 148.534 82.241 148.765 82.241C148.997 82.241 149.2 82.3567 149.2 82.5304C149.2 82.704 148.765 82.8197 148.244 82.8197C146.16 82.8197 145.001 79.7523 146.275 77.6688C146.477 77.3388 146.71 77.0287 146.97 76.7428C147.003 77.389 146.994 78.0367 146.941 78.6816ZM197.35 78.5659C197.205 80.2443 197.263 80.4468 197.987 81.315C198.653 82.0963 198.943 82.241 199.522 82.0963C200.188 81.9227 200.217 81.9805 199.869 82.3857C199.609 82.704 199.145 82.8197 198.45 82.7619C196.974 82.6461 195.989 81.1413 196.221 79.3761C196.366 78.2476 197.061 76.7428 197.408 76.7428C197.466 76.7428 197.466 77.5531 197.35 78.5659ZM239.305 78.1608C239.131 80.1864 239.362 80.852 240.492 81.4597C241.476 82.0095 242.171 81.9227 243.097 81.1413C243.792 80.5337 243.705 81.0545 242.953 81.8648C242.489 82.3857 242.026 82.5304 241.013 82.5304C239.42 82.5304 239.189 82.3857 238.523 81.1124C238.249 80.5271 238.132 79.8808 238.182 79.2367C238.233 78.5925 238.45 77.9726 238.812 77.4373C238.951 77.1737 239.137 76.9381 239.362 76.7428C239.42 76.7428 239.391 77.3794 239.305 78.1608ZM29.9674 78.6816C29.9384 80.3022 30.1121 80.7073 31.2413 81.4018C32.11 81.9227 32.3705 81.9805 33.0075 81.6912C34.0209 81.2282 34.2525 81.5754 33.4129 82.2699C32.3995 83.1091 30.5754 82.9065 29.8515 81.9227C29.1566 80.9967 28.8961 79.1736 29.3014 78.0739C29.7068 77.0322 29.9674 77.2637 29.9674 78.6816ZM190.488 78.971C190.228 79.6366 190.893 80.9677 191.791 81.4886C192.327 81.8202 192.969 81.9341 193.586 81.8069L194.513 81.6043L193.818 82.212C192.804 83.1091 191.096 83.0512 190.343 82.0674C189.591 81.0835 189.301 79.1736 189.735 78.045L190.083 77.1769L190.343 77.8714C190.495 78.2167 190.545 78.5982 190.488 78.971ZM272.428 80.6494C272.758 81.0911 273.197 81.4399 273.702 81.6622C274.368 81.9516 274.657 81.9227 275.265 81.5175C276.076 80.9677 276.279 81.3439 275.584 82.0674C275.063 82.5593 273.325 82.9644 272.688 82.704C271.414 82.241 270.662 79.2025 271.472 77.8135C271.791 77.2348 271.82 77.2926 271.907 78.5948C271.965 79.3761 272.196 80.3022 272.428 80.6494ZM257.777 79.897C257.314 80.7652 257.43 81.6333 258.067 82.0095C258.877 82.5304 258.79 82.8197 257.777 82.8197C256.329 82.8197 255.837 81.1992 256.966 80.0128C257.719 79.2025 258.211 79.1446 257.777 79.897ZM118.682 80.36C118.451 81.2282 118.914 82.241 119.522 82.241C119.754 82.241 119.956 82.3567 119.956 82.5304C119.956 82.9355 118.393 82.8776 117.987 82.4725C117.524 82.0095 117.553 80.9388 117.987 80.2153C118.509 79.4051 118.885 79.4919 118.682 80.36ZM132.957 80.4179C132.725 81.0545 132.783 81.286 133.478 82.0095L134.26 82.8197H133.391C132.958 82.8412 132.531 82.7191 132.175 82.4725C131.596 81.8937 131.769 80.5915 132.464 80.0996C133.304 79.4919 133.304 79.4919 132.957 80.4179ZM4.25625 82.0095C4.10096 82.1594 3.89307 82.2425 3.67717 82.241C3.38763 82.241 3.27181 81.9227 3.27181 81.1413V80.0707L3.82194 80.9098C4.14044 81.4018 4.34312 81.8648 4.25625 82.0095ZM279.493 82.7329C279.493 82.7908 279.116 82.8197 278.624 82.8197C277.9 82.8197 277.755 82.704 277.755 82.0963V81.3439L278.624 82.0095C278.946 82.2081 279.239 82.4517 279.493 82.7329ZM100.007 82.241L100.702 82.8197L99.8333 82.7619C99.2831 82.704 98.9357 82.5014 98.8778 82.1542C98.733 81.4886 99.1673 81.5175 100.007 82.241ZM5.7329 82.5304C5.81976 82.675 5.70394 82.8197 5.47231 82.8197C5.24067 82.8197 5.00905 82.675 5.00905 82.5304C5.00587 82.494 5.01018 82.4573 5.02177 82.4227C5.03336 82.3881 5.05197 82.3562 5.07642 82.3291C5.10086 82.3019 5.13062 82.2801 5.16386 82.2649C5.1971 82.2498 5.23311 82.2416 5.26964 82.241C5.36539 82.2447 5.45849 82.2734 5.53974 82.3241C5.621 82.3749 5.68758 82.446 5.7329 82.5304Z" fill="#01224D"/>
<path d="M82.7215 47.5157C82.1743 47.8261 81.7003 48.2505 81.3317 48.76C80.7526 49.5124 80.5789 50.0622 80.5789 51.2487C80.5789 53.0428 81.0711 54.0846 82.3161 54.9816C82.8662 55.3868 83.1558 55.8208 83.0689 56.0813C82.982 56.3417 83.0979 56.4864 83.4453 56.4864C84.0244 56.4864 84.5455 57.7018 84.0533 57.8754C83.9693 57.9051 83.8965 57.9599 83.8447 58.0324C83.7929 58.1048 83.7646 58.1915 83.7638 58.2805C83.7638 58.4542 83.9375 58.4252 84.227 58.1937C84.5166 57.9622 84.6324 57.4703 84.5745 56.8047L84.4876 55.7629L91.4366 55.6183C97.5169 55.5025 98.4724 55.4157 99.1673 54.9527C101.426 53.3901 101.339 49.1941 98.9936 47.7761C98.1828 47.2842 97.459 47.2263 90.7127 47.2553C86.6592 47.2553 83.0399 47.371 82.7215 47.5157Z" fill="#01224D"/>
<path d="M55.1256 5.06412C54.7492 5.64288 54.1701 7.40808 54.1701 7.98683C54.1701 8.39196 53.9964 8.82603 53.3883 9.89672C53.3304 9.9546 53.1277 9.83885 52.8671 9.63628C52.4039 9.26009 51.5642 9.43372 51.5642 9.92566C51.5804 10.0117 51.6277 10.0888 51.6971 10.1422C51.7666 10.1956 51.8533 10.2215 51.9406 10.215C52.1433 10.215 52.5487 10.5912 52.8092 11.0832C53.4462 12.1539 53.8226 12.1828 54.0543 11.141C54.1411 10.707 54.5465 9.28903 54.9518 7.9579L55.6757 5.585H57.2682C58.3974 5.585 58.8317 5.46925 58.7448 5.20881C58.5711 4.71687 55.4441 4.57218 55.1256 5.06412Z" fill="black"/>
<path d="M58.3683 9.26007C58.3683 11.0542 58.6288 11.8066 59.0921 11.5172C59.2079 11.4593 59.2658 10.5044 59.2369 9.43369C59.179 7.98681 59.0632 7.43699 58.7447 7.37912C58.4262 7.32124 58.3393 7.69743 58.3683 9.26007Z" fill="black"/>
<path d="M55.4149 9.98348C55.4729 10.1014 55.564 10.1998 55.6772 10.2666C55.7903 10.3335 55.9206 10.3658 56.0519 10.3597C56.1863 10.3619 56.3189 10.3281 56.436 10.262C56.553 10.1959 56.6503 10.0997 56.7178 9.98348C56.7757 9.78092 56.5441 9.63623 56.0519 9.63623C55.5596 9.63623 55.328 9.78092 55.4149 9.98348Z" fill="black"/>
<path d="M149.544 24.4524C149.602 25.7835 149.66 26.8831 149.689 26.8831C149.718 26.8831 149.921 26.9989 150.152 27.1146C150.5 27.2304 150.529 27.0278 150.413 26.015C150.21 24.626 150.616 24.1051 151.339 24.7128C151.49 24.8672 151.6 25.056 151.661 25.2628C151.721 25.4697 151.73 25.6882 151.687 25.8992C151.513 26.941 152.063 26.8253 152.44 25.7546C152.787 24.8286 151.976 23.7579 151.05 23.8736C150.558 23.9315 150.413 23.7868 150.355 23.0055C150.297 22.4267 150.094 22.0795 149.834 22.0795C149.515 22.0795 149.457 22.5425 149.544 24.4524Z" fill="black"/>
<path d="M14.9665 22.8608C14.8796 22.9476 14.7927 23.9315 14.7927 25.0311C14.7927 26.5938 14.8796 26.9989 15.227 26.9989C15.4876 26.9989 15.6613 26.7384 15.6613 26.3333C15.6613 25.2626 16.0088 25.1758 16.5589 26.1307C16.8774 26.6227 17.3117 26.9989 17.5723 26.9989C17.9487 26.9989 17.9198 26.8542 17.4276 26.1597C16.6748 25.089 16.6458 24.3655 17.3986 23.7289C17.746 23.4395 17.9197 23.0923 17.8329 22.9476C17.5723 22.5135 16.9932 22.9187 16.5879 23.8157C16.1536 24.7996 15.6613 24.7128 15.6613 23.671C15.6613 22.9476 15.3168 22.5425 14.9665 22.8608Z" fill="black"/>
<path d="M20.2649 22.774C20.0333 23.0344 20.3518 27.2883 20.6124 27.1436C20.9309 26.9121 20.9598 22.6582 20.6414 22.6582C20.5069 22.6567 20.3753 22.6972 20.2649 22.774Z" fill="black"/>
<path d="M26.2584 23.208C25.8956 23.682 25.6299 24.2229 25.4766 24.7996C25.216 25.6967 25.2739 26.0729 25.7951 27.1725C26.1425 27.867 26.5479 28.4458 26.6927 28.4458C27.0112 28.4458 27.0401 28.0696 26.6927 27.6934C26.4563 27.3002 26.2622 26.8831 26.1136 26.4491C25.853 25.6388 25.882 25.2626 26.3742 24.163C27.0401 22.6872 26.9822 22.3978 26.2584 23.208Z" fill="black"/>
<path d="M27.9665 22.9186C27.7638 23.2659 28.6325 26.4201 29.0378 26.8542C29.3853 27.2303 29.8485 26.5069 29.8485 25.4652C29.8485 25.0311 29.9643 24.6838 30.0801 24.6838C30.5145 24.6838 31.0067 25.3783 31.0067 26.015C31.0067 26.8252 31.5568 27.2303 31.9043 26.6805C32.2807 26.0728 33.0914 23.208 32.9176 23.0344C32.6281 22.7161 32.2517 23.2659 32.2517 23.9893C32.2517 25.1468 31.6726 25.523 31.2962 24.5681C31.1535 24.1754 31.0563 23.7676 31.0067 23.3527C31.0067 22.5424 30.1381 22.9476 29.9064 23.8736C29.6169 25.0311 29.2115 25.0021 28.893 23.8446C28.6614 22.8897 28.256 22.4846 27.9665 22.9186Z" fill="black"/>
<path d="M33.9023 22.774C34.0216 23.094 34.1669 23.4037 34.3367 23.7C34.6085 24.2797 34.7494 24.9119 34.7494 25.5521C34.7494 26.1922 34.6085 26.8245 34.3367 27.4041C33.7576 28.4748 34.0761 28.7931 34.771 27.8671C35.5527 26.8253 35.6107 25.0601 34.9447 23.729C34.4815 22.8608 33.9023 22.311 33.9023 22.774Z" fill="black"/>
<path d="M104.839 24.3655C104.839 25.3494 104.955 26.1307 105.129 26.1307C105.303 26.1307 105.418 25.4362 105.418 24.5681C105.418 23.6999 105.303 22.8897 105.129 22.8029C104.955 22.716 104.839 23.2948 104.839 24.3655Z" fill="black"/>
<path d="M81.9367 23.0633C81.8788 23.1212 81.8499 24.4234 81.9078 25.9571C81.9947 28.1564 82.0815 28.7351 82.429 28.7351C82.7764 28.7351 82.8343 28.2432 82.7764 25.9282C82.6895 23.4684 82.429 22.5714 81.9367 23.0633Z" fill="black"/>
<path d="M92.6237 25.4652C92.6429 26.4326 92.7105 27.3984 92.8264 28.359C93.0001 28.8509 95.1427 28.8509 95.548 28.359C95.7972 27.9515 95.9644 27.4994 96.0403 27.0279C96.3008 25.8414 95.2585 24.5971 94.2451 24.8575C93.666 25.0022 93.5792 24.9154 93.4923 24.0473C93.4344 23.4975 93.2317 23.0634 92.9711 23.0055C92.5918 22.9476 92.5339 23.3528 92.6237 25.4652ZM94.94 25.8993C95.4322 26.3912 95.3743 27.7224 94.8242 28.1854C93.8397 28.9956 92.8553 27.433 93.5502 26.1597C93.8948 25.4652 94.4159 25.3784 94.94 25.8993Z" fill="black"/>
<path d="M160.923 23.7C160.879 23.79 160.856 23.889 160.856 23.9893C160.856 24.0897 160.879 24.1887 160.923 24.2787C160.959 24.418 160.962 24.5637 160.932 24.7043C160.902 24.845 160.839 24.9767 160.75 25.089C160.489 25.3783 160.489 25.552 160.721 25.6967C160.894 25.8124 161.01 26.3622 160.952 26.9699C160.894 27.7512 160.981 28.0117 161.3 28.0117C161.352 28.0161 161.404 28.0097 161.453 27.9927C161.502 27.9758 161.547 27.9487 161.586 27.9133C161.624 27.8779 161.654 27.8348 161.675 27.787C161.695 27.7392 161.706 27.6875 161.705 27.6355C161.676 27.4619 161.647 26.449 161.647 25.4073C161.589 23.7 161.415 23.237 160.923 23.7Z" fill="black"/>
<path d="M132.114 24.1629C132.49 25.6677 133.996 29.0245 134.257 29.0245C134.691 29.0245 135.038 27.7512 134.662 27.6355C134.228 27.4908 133.214 25.2626 133.214 24.4812C133.214 23.9893 133.041 23.8157 132.606 23.8157C132.291 23.8157 132.056 23.9604 132.114 24.1629Z" fill="black"/>
<path d="M135.704 24.0473C135.565 24.4924 135.459 24.9469 135.386 25.4074L135.183 26.5649L135.936 25.4074C136.341 24.7708 136.689 24.1631 136.689 24.0184C136.689 23.758 135.907 23.758 135.704 24.0473Z" fill="black"/>
<path d="M143.638 24.1631C143.727 24.5491 143.873 24.9197 144.072 25.2627C144.564 26.1308 144.622 27.3462 144.188 27.7803C144.098 27.8748 144.034 27.9916 144.004 28.1186C143.973 28.2457 143.977 28.3785 144.014 28.5037C144.13 28.851 146.244 24.7129 146.244 24.0762C146.244 23.4975 145.52 24.0184 145.433 24.6261C145.375 24.9733 145.143 25.2627 144.941 25.2627C144.738 25.2627 144.506 24.9733 144.448 24.6261C144.362 23.9605 143.638 23.5264 143.638 24.1631Z" fill="black"/>
<path d="M162.747 25.986C162.747 27.6933 162.834 28.1563 163.153 28.1563C163.413 28.1563 163.616 27.8091 163.674 27.2303C163.761 26.2464 163.761 26.2464 165.006 27.7223C165.643 28.4746 165.99 28.1853 165.469 27.3171C165.035 26.5937 165.006 26.3043 165.295 25.6966C165.585 25.0889 165.556 24.8864 165.035 24.3655C164.311 23.642 164.021 23.8157 164.514 24.6259C164.803 25.1179 164.803 25.2915 164.514 25.6677C163.848 26.449 163.558 26.1886 163.674 24.9732C163.761 24.0182 163.674 23.8157 163.269 23.8157C162.805 23.8157 162.747 24.1051 162.747 25.986Z" fill="black"/>
<path d="M166.222 24.2787C166.222 24.6549 166.309 24.6839 166.627 24.4234C167.177 23.9604 167.38 24.5681 167.38 26.5938C167.38 27.7802 167.496 28.1564 167.814 28.1564C168.133 28.1564 168.249 27.7513 168.249 26.1307C168.249 24.0762 168.393 23.8157 169.088 24.4524C169.407 24.7707 169.465 24.7417 169.349 24.3945C169.262 24.1051 168.741 23.9315 167.728 23.8736C166.483 23.7868 166.222 23.8736 166.222 24.2787Z" fill="black"/>
<path d="M22.0021 24.1629C22.0021 24.2208 21.9442 24.8574 21.8863 25.6098C21.8284 26.6226 21.9153 26.9988 22.2048 26.9988C22.4944 26.9988 22.6102 26.6226 22.6102 25.8413C22.6102 24.8864 22.697 24.6838 23.1892 24.6838C23.6815 24.6838 23.7683 24.8864 23.7683 25.8124C23.7683 26.449 23.9131 27.0567 24.0868 27.1435C24.2895 27.2882 24.3474 26.8252 24.2895 25.7834L24.2026 24.2497L23.1314 24.1629C22.5233 24.105 22.0311 24.105 22.0021 24.1629Z" fill="black"/>
<path d="M86.2538 24.8575C86.1379 24.9444 86.2827 25.3784 86.5433 25.8414C87.0066 26.6227 87.0066 26.7096 86.3696 27.5487C85.6168 28.5616 85.5878 28.7352 86.1379 28.7352C86.2846 28.7082 86.4202 28.6391 86.5282 28.5363C86.6362 28.4335 86.7118 28.3015 86.746 28.1564C86.7817 28.0072 86.8616 27.8721 86.9752 27.7689C87.0888 27.6657 87.2309 27.599 87.383 27.5777C87.6146 27.5777 87.8752 27.8381 87.9621 28.1564C88.0079 28.3159 88.1022 28.4573 88.2318 28.5609C88.3615 28.6646 88.5201 28.7255 88.6859 28.7352C89.236 28.7352 89.236 28.7063 88.599 27.6934C87.962 26.6806 87.991 26.6227 88.4543 25.7835C89.0912 24.7418 88.8596 24.3945 88.0199 25.1469C87.4698 25.6389 87.4119 25.6678 87.1513 25.1759C86.8907 24.6839 86.5433 24.5682 86.2538 24.8575Z" fill="black"/>
<path d="M147.402 25.2626C147.054 25.4941 147.112 25.552 147.633 25.552C148.01 25.552 148.213 25.4363 148.126 25.2626C147.926 24.9154 147.952 24.9154 147.402 25.2626Z" fill="black"/>
<path d="M159.331 25.6098C158.578 26.3622 159.099 28.1563 160.084 28.1563C160.431 28.1563 160.431 28.0695 160.142 27.7222C159.91 27.4618 159.852 26.883 159.939 26.2754C160.113 25.2336 159.91 25.031 159.331 25.6098Z" fill="black"/>
<path d="M8.59651 25.8125C8.54255 25.9038 8.51168 26.0069 8.50663 26.1128C8.50159 26.2187 8.52249 26.3242 8.56753 26.4202C8.61945 26.5413 8.63342 26.6752 8.60758 26.8044C8.58173 26.9336 8.51728 27.0518 8.42276 27.1436C8.19113 27.433 8.19114 27.6935 8.39382 28.1275C9.08871 29.4008 8.45172 31.0502 7.40937 30.674C6.65657 30.3557 6.54076 29.0535 7.23566 28.1275C7.69892 27.5198 7.75684 27.2883 7.4673 27.2883C6.74345 27.2883 6.10645 28.3012 6.10645 29.5165C6.10645 30.9924 6.48287 31.2817 8.19115 31.2817L9.52303 31.2528L9.46513 28.7063C9.40722 26.2755 9.03082 25.0601 8.59651 25.8125Z" fill="black"/>
<path d="M128.582 25.8414C128.234 26.0729 128.263 26.1308 128.784 26.1308C129.008 26.1565 129.223 26.2323 129.414 26.3526C129.604 26.4728 129.765 26.6344 129.885 26.8253C130.522 27.7513 130.029 28.7352 128.987 28.7352C128.292 28.7352 128.234 28.6484 128.35 27.5777C128.408 26.7964 128.35 26.4202 128.089 26.4202C127.684 26.4202 127.337 28.4169 127.481 29.8927C127.568 31.0213 128.089 31.1659 128.234 30.0953C128.292 29.5744 128.611 29.3139 129.421 29.0535C130.522 28.7352 130.898 28.2143 130.898 26.941C130.898 25.8703 129.537 25.2337 128.582 25.8414Z" fill="black"/>
<path d="M54.0252 27.0278C54.4016 28.1853 55.6466 30.7608 55.8493 30.7608C56.0519 30.7608 57.268 28.1853 57.5286 27.1146C57.8471 25.8124 57.2101 26.3912 56.6889 27.867C56.3994 28.6773 56.0519 29.256 55.9072 29.1692C55.7624 29.0824 55.4439 28.4458 55.1544 27.7223C54.8648 26.9989 54.4884 26.4201 54.2568 26.4201C53.9673 26.4201 53.9093 26.5938 54.0252 27.0278Z" fill="black"/>
<path d="M104.724 28.9957C104.637 29.1403 104.752 29.314 104.984 29.4297C105.621 29.6612 105.505 30.3268 104.666 31.3107L103.913 32.2077H105.042C105.94 32.1788 106.055 32.1499 105.621 31.8894C105.129 31.6 105.129 31.5132 105.534 30.9055C105.77 30.568 105.928 30.1827 105.998 29.777C105.998 29.2561 104.955 28.6195 104.724 28.9957Z" fill="black"/>
<path d="M144.854 29.5165C146.244 29.5744 148.589 29.5744 150.066 29.5165C151.542 29.4586 150.413 29.4297 147.547 29.4297C144.68 29.4297 143.464 29.4876 144.854 29.5165Z" fill="black"/>
<path d="M161.534 29.5165C162.837 29.5744 164.98 29.5744 166.312 29.5165C167.643 29.4586 166.543 29.4297 163.908 29.4297C161.274 29.4297 160.199 29.4876 161.534 29.5165Z" fill="black"/>
<path d="M164.195 34.1175C164.195 35.738 164.282 36.2878 164.571 36.1721C164.745 36.1142 164.89 35.7669 164.861 35.4486C164.803 35.0145 165.064 34.6962 165.788 34.349C166.772 33.886 167.004 33.3651 166.627 32.3812C166.586 32.2561 166.51 32.1457 166.407 32.0635C166.304 31.9813 166.179 31.9308 166.048 31.9182C165.556 31.9182 165.556 32.0629 165.99 32.7863C166.425 33.5098 165.932 34.1175 165.18 33.8281C164.832 33.6834 164.745 33.423 164.89 32.7863C165.035 32.1497 164.948 31.9182 164.629 31.9182C164.311 31.9182 164.195 32.3812 164.195 34.1175Z" fill="black"/>
<path d="M147.112 33.3073C147.185 33.6043 147.324 33.8812 147.518 34.1175C147.894 34.5805 147.894 34.7542 147.518 35.3329C146.968 36.1721 147.315 36.8666 147.923 36.0853C148.213 35.7091 148.386 35.6512 148.473 35.8827C148.618 36.2879 149.429 36.4036 149.429 36.0274C149.337 35.7493 149.19 35.4932 148.994 35.275C148.77 34.9884 148.62 34.6502 148.56 34.2912C148.504 33.9687 148.328 33.6792 148.068 33.4809C147.46 33.0468 147.112 32.96 147.112 33.3073Z" fill="black"/>
<path d="M148.994 33.3652C148.907 33.5099 148.965 33.6546 149.11 33.6546C149.19 33.6549 149.267 33.6254 149.326 33.5718C149.385 33.5182 149.421 33.4445 149.429 33.3652C149.429 33.1916 149.371 33.0758 149.313 33.0758C149.255 33.0758 149.084 33.1916 148.994 33.3652Z" fill="black"/>
<path d="M128.495 35.0436C128.176 35.3908 128.003 36.0853 128.003 36.9245C128.003 38.0241 128.119 38.3425 128.813 38.8344C129.248 39.1527 129.798 39.6447 130.087 39.9051C130.243 40.0434 130.429 40.144 130.629 40.1992C130.83 40.2544 131.041 40.2627 131.246 40.2234L131.911 40.1077L131.275 39.8762C130.464 39.6157 130.464 39.5868 131.188 38.6608C132.201 37.3586 131.68 34.5227 130.435 34.5227C130.058 34.5227 130.058 34.6095 130.435 35.1593C131.246 36.3168 130.869 38.8633 129.885 38.8633C128.813 38.8633 128.205 36.5773 129.016 35.5066C129.798 34.4937 129.364 34.0886 128.495 35.0436Z" fill="black"/>
<path d="M54.8359 35.0147C54.1989 35.1304 54.1699 35.2751 54.1699 37.4455C54.1699 39.4711 54.2278 39.7315 54.7201 39.7315C55.1254 39.7315 55.2123 39.5579 55.1254 39.037C54.9227 37.9953 55.5018 37.8795 56.1967 38.8634C56.5441 39.3264 57.0074 39.7315 57.2391 39.7315C57.7892 39.7315 57.7602 39.5579 57.0364 38.603C56.4573 37.7927 56.4284 37.7638 56.9495 36.9825C57.4707 36.2011 57.4707 36.1722 56.66 35.5066C56.3756 35.2261 56.0419 35.0005 55.6755 34.8411C55.5626 34.87 55.1833 34.9568 54.8359 35.0147ZM56.1967 36.3748C56.1967 37.1561 55.386 37.6191 55.1544 36.9825C54.9227 36.3458 55.2412 35.6803 55.7624 35.6803C56.023 35.6803 56.1967 35.9407 56.1967 36.3748Z" fill="black"/>
<path d="M104.839 35.7091C104.839 35.8537 104.984 35.9116 105.129 35.8248C105.274 35.738 105.418 35.5933 105.418 35.5065C105.418 35.4197 105.303 35.3907 105.129 35.3907C105.05 35.398 104.976 35.4347 104.922 35.4936C104.869 35.5526 104.839 35.6294 104.839 35.7091Z" fill="black"/>
<path d="M7.23571 37.3296C7.11989 38.7186 7.35154 41.0626 7.61212 41.3809C7.98852 41.8439 9.00189 41.8728 9.00189 41.4677C9.00189 41.2941 8.79921 41.0915 8.56758 41.0047C7.93059 40.7443 7.95958 38.2846 8.59656 38.2846C9.00192 38.2846 9.00192 38.2556 8.59656 37.8216C8.37058 37.6345 8.20861 37.3816 8.13327 37.0981C8.13327 36.6062 7.26466 36.8377 7.23571 37.3296Z" fill="black"/>
<path d="M103.884 37.9084C103.71 38.1978 103.71 41.1784 103.884 41.815C103.907 41.9448 103.969 42.0643 104.062 42.1575C104.156 42.2507 104.275 42.313 104.405 42.3359C104.695 42.3359 104.753 42.0754 104.637 41.352C104.463 40.2813 104.897 39.7604 105.563 40.3102C105.824 40.5417 105.911 40.9758 105.824 41.5546C105.679 42.4516 105.679 42.4516 106.142 41.9018C106.895 40.9758 106.606 39.934 105.505 39.5868C104.782 39.3842 104.55 39.1527 104.55 38.6897C104.55 38.0242 104.116 37.5322 103.884 37.9084Z" fill="black"/>
<path d="M26.9531 39.1527C26.9585 39.2276 26.9907 39.2982 27.0439 39.3513C27.0971 39.4044 27.1676 39.4367 27.2426 39.442C27.7638 39.442 27.5322 40.0787 26.9531 40.2234C26.1424 40.4259 26.7504 41.1783 27.7059 41.1783C28.256 41.1783 28.4008 41.0336 28.4008 40.4838C28.4008 39.4131 28.1113 38.8633 27.5032 38.8633C27.2137 38.8633 26.9531 38.979 26.9531 39.1527Z" fill="black"/>
<path d="M168.885 39.442C169.088 39.7604 169.349 39.905 169.493 39.7604C169.841 39.4131 169.493 38.8633 168.943 38.8633C168.596 38.8633 168.596 38.9501 168.885 39.442Z" fill="black"/>
<path d="M13.6054 39.2107C13.6054 39.2685 13.5765 39.8473 13.5476 40.5418C13.4896 41.4678 13.6054 41.7572 13.9239 41.7572C14.2424 41.7572 14.3293 41.4678 14.2714 40.455C14.2135 39.7315 14.0398 39.1528 13.895 39.1528C13.795 39.1446 13.6946 39.1646 13.6054 39.2107Z" fill="black"/>
<path d="M21.6259 39.8472C21.7127 40.1077 21.6548 40.3102 21.4811 40.3102C21.3074 40.3102 21.1626 40.5128 21.1626 40.7443C21.1626 40.9758 21.2784 41.1784 21.4232 41.1784C21.6548 41.1784 21.7417 40.9469 22.0023 39.8762C22.0151 39.7961 21.9988 39.7141 21.9563 39.6451C21.9138 39.5761 21.8479 39.5246 21.7707 39.5C21.5969 39.4421 21.539 39.5868 21.6259 39.8472Z" fill="black"/>
<path d="M86.3088 39.6737C86.3088 40.1946 86.6563 40.8891 86.9169 40.8891C87.3223 40.8891 87.2354 40.3103 86.7432 39.8473C86.5115 39.5869 86.3088 39.529 86.3088 39.6737Z" fill="black"/>
<path d="M93.2578 39.6447C93.3287 39.9511 93.4672 40.2378 93.6632 40.4839C94.1554 41.1205 94.6766 40.8022 94.2423 40.1077C93.8948 39.5578 93.2578 39.2685 93.2578 39.6447Z" fill="black"/>
<path d="M75.4222 40.6575C75.44 40.7435 75.4397 40.8323 75.4211 40.9181C75.4025 41.0039 75.3661 41.0849 75.3143 41.1558C75.2624 41.2267 75.1963 41.286 75.1201 41.3297C75.044 41.3735 74.9594 41.4008 74.872 41.4099C73.9165 41.6124 73.5691 42.0465 73.5691 43.0883C73.5691 43.7249 73.7428 44.159 74.0903 44.3326C74.6694 44.622 76.146 44.3905 76.175 43.9853C76.2329 41.1784 76.146 40.0209 75.7986 40.0209C75.5669 40.0209 75.4222 40.3103 75.4222 40.6575ZM75.4511 43.0304C75.4511 44.0721 74.8141 44.3615 74.4667 43.4355C74.1482 42.5963 74.3798 41.9886 74.9878 42.1044C75.2774 42.1623 75.4511 42.4806 75.4511 43.0304Z" fill="black"/>
<path d="M19.0487 40.5129C18.6723 40.8601 18.846 42.8568 19.2803 43.2041C19.7725 43.6092 19.7726 43.6382 19.7726 42.0466C19.7726 41.41 19.7436 40.7444 19.7436 40.5997C19.7147 40.2814 19.3383 40.2235 19.0487 40.5129Z" fill="black"/>
<path d="M34.9155 40.5996C34.6259 41.0915 35.7551 44.6508 36.2184 44.6508C36.3342 44.6508 36.6527 44.0431 36.9133 43.2618C37.1739 42.4805 37.5503 41.6703 37.6951 41.3809C38.0136 40.8021 37.7819 40.1944 37.3476 40.4549C37.161 40.6821 37.0678 40.9718 37.087 41.2651C37.0581 42.0464 36.3632 43.3776 36.1316 43.0303C35.9715 42.5894 35.8551 42.1339 35.7841 41.6703C35.5525 40.5417 35.234 40.1076 34.9155 40.5996Z" fill="black"/>
<path d="M16.1244 41.0626C15.8582 41.3135 15.6933 41.6533 15.6611 42.0176C15.6611 42.5963 16.5298 43.4934 17.0509 43.4934C17.5721 43.4934 17.4563 43.9564 16.7614 44.4483L16.0954 44.9113H16.7903C17.7748 44.9403 18.238 44.159 18.267 42.4516C18.267 41.352 18.1512 40.9179 17.8037 40.7732C17.0799 40.4839 16.5877 40.5707 16.1244 41.0626ZM17.6011 41.4967C18.0643 41.9597 17.7169 42.9146 17.0799 42.9146C16.356 42.9146 16.0665 42.1623 16.5298 41.6124C16.993 41.0626 17.1668 41.0626 17.6011 41.4967Z" fill="black"/>
<path d="M168.451 40.7732C168.075 41.1494 168.249 41.4677 168.857 41.4677C169.175 41.4677 169.407 41.323 169.349 41.1205C169.204 40.7154 168.712 40.5128 168.451 40.7732Z" fill="black"/>
<path d="M87.4671 41.3521C87.4671 41.6125 87.6119 41.7572 87.8145 41.6993C88.3357 41.5257 88.4226 40.8891 87.9304 40.8891C87.8693 40.8883 87.8087 40.8997 87.7522 40.9227C87.6956 40.9457 87.6442 40.9798 87.601 41.023C87.5579 41.0661 87.5238 41.1175 87.5008 41.174C87.4778 41.2305 87.4663 41.2911 87.4671 41.3521Z" fill="black"/>
<path d="M162.574 41.1494C162.342 41.4098 162.458 44.0721 162.718 44.0721C162.892 44.0721 163.037 43.5222 163.095 42.8277C163.182 41.6992 163.24 41.6124 164.137 41.5255C164.803 41.4677 165.064 41.5545 165.064 41.8728C165.064 43.175 166.511 44.564 166.511 43.2618C166.559 42.8817 166.709 42.5217 166.946 42.22C167.438 41.5834 167.525 40.8889 167.119 40.8889C166.975 40.8889 166.801 41.2651 166.714 41.757C166.482 42.9146 165.643 42.9435 165.643 41.8149C165.643 41.0047 165.614 40.9757 164.166 41.0047C163.631 40.9836 163.096 41.0323 162.574 41.1494Z" fill="black"/>
<path d="M94.7056 41.4967C94.7056 41.6414 94.8503 41.6992 94.9951 41.6124C95.1399 41.5256 95.2846 41.3809 95.2846 41.2941C95.2846 41.2073 95.1688 41.1783 94.9951 41.1783C94.9158 41.1856 94.842 41.2223 94.7884 41.2812C94.7348 41.3402 94.7052 41.417 94.7056 41.4967Z" fill="black"/>
<path d="M77.3333 41.7571C77.3333 42.1333 78.4625 44.3615 78.6362 44.3615C78.8099 44.3615 79.9391 42.1333 79.9391 41.7282C79.9391 41.4967 79.8233 41.4967 79.5048 41.7571C79.2766 41.9496 79.123 42.2157 79.0705 42.5095C79.0705 43.175 78.4914 42.9725 78.2019 42.1912C77.9413 41.4677 77.3333 41.1783 77.3333 41.7571Z" fill="black"/>
<path d="M146.823 42.3938C146.794 42.4227 146.765 43.7539 146.736 45.3165L146.678 48.1234H148.473C150.703 48.1234 151.195 47.6026 149.081 47.4868L147.547 47.4L147.605 46.3872C147.692 45.4826 147.692 44.5717 147.605 43.667C147.576 43.0304 147.373 42.4806 147.17 42.3938C146.968 42.307 146.823 42.3359 146.823 42.3938Z" fill="black"/>
<path d="M13.1422 42.8278C13.4775 42.8857 13.8203 42.8857 14.1556 42.8278C14.4162 42.741 14.1846 42.6831 13.6344 42.6831C13.0843 42.6831 12.8527 42.741 13.1422 42.8278Z" fill="black"/>
<path d="M149.573 42.9147C149.648 43.0034 149.741 43.0751 149.846 43.125C149.951 43.1749 150.065 43.2018 150.181 43.2041C150.413 43.2041 150.529 43.0594 150.442 42.9147C150.371 42.8212 150.279 42.7461 150.173 42.6957C150.067 42.6453 149.951 42.6212 149.834 42.6253C149.602 42.6253 149.486 42.7411 149.573 42.9147Z" fill="black"/>
<path d="M86.0773 43.0882C86.3668 43.3486 95.3136 43.4065 95.4584 43.1461C95.5452 43.0303 93.4316 42.9146 90.7678 42.9146C88.1041 42.9146 85.9904 43.0014 86.0773 43.0882Z" fill="black"/>
<path d="M25.3608 44.9403C25.3608 46.1557 25.4477 46.3872 25.911 46.3872C26.2584 46.3872 26.3743 46.2425 26.2584 45.9242C26.1396 45.4512 26.0812 44.965 26.0847 44.4773C26.0847 43.8696 25.9399 43.4934 25.7083 43.4934C25.4767 43.4934 25.3608 43.9564 25.3608 44.9403Z" fill="black"/>
<path d="M13.345 44.0142C13.345 44.3036 13.982 44.9402 14.2715 44.9402C14.7058 44.9402 14.5031 44.1299 14.0399 43.9563C13.4318 43.7248 13.345 43.7248 13.345 44.0142Z" fill="black"/>
<path d="M28.98 45.2296C28.98 45.8662 29.1248 46.3871 29.2695 46.3871C29.4143 46.3871 29.5591 46.0688 29.5591 45.6637C29.5591 45.2585 29.7039 44.9402 29.8776 44.9402C30.1092 44.9402 30.1092 44.7955 29.8486 44.5062C29.2406 43.7827 28.98 44.0142 28.98 45.2296Z" fill="black"/>
<path d="M90.7967 44.3615C90.5651 44.7087 90.9126 46.5029 91.1732 46.2714C91.3226 45.9544 91.4016 45.6089 91.4048 45.2586C91.5206 44.3615 91.1152 43.8117 90.7967 44.3615Z" fill="black"/>
<path d="M148.415 45.2297C148.465 45.3101 148.533 45.378 148.613 45.4281C148.693 45.4783 148.784 45.5094 148.878 45.5191C148.95 45.5119 149.016 45.4782 149.064 45.4247C149.113 45.3712 149.139 45.3017 149.139 45.2297C149.139 45.0561 148.936 44.9403 148.675 44.9403C148.415 44.9403 148.328 45.0561 148.415 45.2297Z" fill="black"/>
<path d="M13.345 45.9531C13.0265 46.3293 13.1134 46.3872 13.7794 46.3872C14.4453 46.3872 14.5322 46.3293 14.2137 45.9531C14.2137 45.838 14.1679 45.7276 14.0865 45.6462C14.005 45.5648 13.8945 45.519 13.7794 45.519C13.6642 45.519 13.5537 45.5648 13.4723 45.6462C13.3908 45.7276 13.345 45.838 13.345 45.9531Z" fill="black"/>
<path d="M52.4038 45.6637C52.3459 46.0689 52.4617 47.3711 52.5775 47.4868C52.6355 47.5447 53.0698 47.3711 53.562 47.1106C54.5754 46.5897 54.778 45.9531 53.8515 46.2425C53.6737 46.318 53.474 46.3243 53.2918 46.26C53.1096 46.1957 52.9581 46.0656 52.8671 45.8952C52.6355 45.6059 52.4328 45.4901 52.4038 45.6637Z" fill="black"/>
<path d="M129.769 46.7633C129.045 48.2392 129.016 48.8758 129.566 49.0784C130.029 49.252 131.767 49.1073 131.998 48.8758C132.23 48.6443 131.043 45.7216 130.695 45.6058C130.522 45.548 130.116 46.0688 129.769 46.7633ZM131.188 48.1813C131.188 48.326 130.869 48.4128 130.464 48.4128C129.624 48.4128 129.624 48.4417 130.058 47.3421L130.377 46.5318L130.753 47.2553C130.927 47.5495 131.072 47.8596 131.188 48.1813Z" fill="black"/>
<path d="M104.839 46.0978C104.845 46.1728 104.877 46.2433 104.93 46.2965C104.983 46.3496 105.054 46.3818 105.129 46.3872C105.206 46.3872 105.279 46.3567 105.334 46.3024C105.388 46.2482 105.418 46.1746 105.418 46.0978C105.421 46.0592 105.415 46.0204 105.402 45.9841C105.388 45.9479 105.367 45.9149 105.339 45.8875C105.312 45.8601 105.279 45.8389 105.243 45.8253C105.206 45.8116 105.168 45.8059 105.129 45.8085C105.052 45.8085 104.978 45.8389 104.924 45.8932C104.87 45.9475 104.839 46.0211 104.839 46.0978Z" fill="black"/>
<path d="M132.635 46.9369C132.635 48.3838 132.867 48.9915 133.417 48.9915C133.764 48.9915 133.793 48.9047 133.504 48.5574C133.272 48.297 133.214 47.7472 133.359 46.9659C133.533 46.0109 133.475 45.8083 133.099 45.8083C132.722 45.8083 132.635 46.0977 132.635 46.9369Z" fill="black"/>
<path d="M57.9918 46.8791C58.1076 48.0077 58.8025 48.0945 58.8025 46.9948C58.8025 46.3872 58.6578 46.0978 58.3393 46.0978C58.0208 46.0978 57.9339 46.3293 57.9918 46.8791Z" fill="black"/>
<path d="M127.047 46.6187C126.41 47.3132 126.41 48.2103 127.076 48.789C127.423 49.1074 127.713 49.1652 128.002 48.9627C128.35 48.7601 128.321 48.6733 127.771 48.5286C126.931 48.2971 127.018 47.2553 127.916 46.7923C128.292 46.6187 128.495 46.3872 128.379 46.3004C128.06 45.9531 127.539 46.0689 127.047 46.6187Z" fill="black"/>
<path d="M56.4863 47.2843C56.4863 47.429 56.6311 47.4868 56.7759 47.4C56.9206 47.3132 57.0654 47.1685 57.0654 47.0817C57.0654 46.9949 56.9496 46.9659 56.7759 46.9659C56.6965 46.9732 56.6228 47.0099 56.5692 47.0688C56.5156 47.1278 56.486 47.2046 56.4863 47.2843Z" fill="black"/>
<path d="M73.5691 47.2553C73.5691 47.4289 74.5825 47.5447 76.0302 47.5447C77.4779 47.5447 78.4913 47.4289 78.4913 47.2553C78.4913 47.0817 77.4779 46.9659 76.0302 46.9659C74.5825 46.9659 73.5691 47.0817 73.5691 47.2553Z" fill="black"/>
<path d="M163.271 47.1685C163.509 47.2264 163.757 47.2264 163.995 47.1685C164.169 47.0817 164.024 47.0238 163.619 47.0238C163.214 47.0238 163.066 47.0817 163.271 47.1685Z" fill="black"/>
<path d="M55.3281 48.0944C55.3416 48.1875 55.3743 48.2767 55.4242 48.3564C55.474 48.4361 55.5399 48.5046 55.6177 48.5574C55.7914 48.6442 55.9072 48.6153 55.9072 48.4417C55.9008 48.3467 55.871 48.2547 55.8205 48.1739C55.77 48.0931 55.7003 48.0261 55.6177 47.9787C55.4729 47.8919 55.3281 47.9208 55.3281 48.0944Z" fill="black"/>
<path d="M103.916 49.1942C103.851 49.9742 103.851 50.7582 103.916 51.5381C104.003 52.985 104.118 53.6217 104.35 53.5348C104.582 53.448 104.697 52.9561 104.726 52.3484C104.755 51.7407 104.842 51.1909 104.958 51.1041C105.277 50.7568 105.711 51.6539 105.711 52.6667C105.711 53.1876 105.856 53.6217 106 53.6217C106.145 53.6217 106.29 53.0429 106.29 52.3484C106.29 51.0751 105.827 50.3517 105.103 50.4964C105.051 50.5099 104.996 50.5111 104.943 50.4998C104.89 50.4885 104.841 50.4651 104.799 50.4314C104.757 50.3977 104.723 50.3546 104.7 50.3056C104.678 50.2566 104.667 50.2031 104.669 50.1491C104.64 49.9176 104.611 49.5414 104.582 49.3389C104.583 49.2586 104.557 49.1803 104.507 49.1173C104.457 49.0543 104.387 49.0106 104.308 48.9935C104.23 48.9765 104.148 48.9871 104.076 49.0237C104.004 49.0603 103.948 49.1206 103.916 49.1942Z" fill="black"/>
<path d="M75.8853 50.2938C75.8853 50.8146 75.7406 51.0172 75.3352 51.0172C75.0167 51.0172 74.5245 51.3355 74.206 51.7406C73.1926 53.0139 74.0323 54.3161 75.6826 53.9978C76.4644 53.8531 76.4644 53.7952 76.4644 51.7117C76.4644 50.4674 76.3486 49.5703 76.1748 49.5703C76.0011 49.5703 75.8853 49.8886 75.8853 50.2938ZM75.8274 52.4352C75.861 52.6044 75.8603 52.7786 75.8255 52.9476C75.7907 53.1165 75.7225 53.2768 75.6247 53.419C75.1325 53.911 74.3218 52.985 74.5824 52.2036C74.843 51.3645 75.7116 51.5381 75.8303 52.4352H75.8274Z" fill="black"/>
<path d="M35.929 51.4512C35.929 52.3193 36.0737 53.0428 36.2185 53.0428C36.3633 53.0428 36.508 52.3193 36.508 51.4512C36.508 50.5831 36.3922 49.8596 36.2185 49.8596C36.0448 49.8596 35.929 50.5831 35.929 51.4512Z" fill="black"/>
<path d="M37.7241 50.4963C37.8399 51.3645 38.9691 51.4513 38.9691 50.5831C38.9691 50.2069 38.7375 49.9754 38.3032 49.9176C37.7241 49.8308 37.6372 49.9176 37.7241 50.4963Z" fill="black"/>
<path d="M164.514 50.9014C164.231 51.2178 164.023 51.5936 163.906 52.0011C163.906 52.6956 164.832 53.6216 165.527 53.6216C166.511 53.6216 166.28 54.3161 165.266 54.4318C164.195 54.5476 164.282 55.0685 165.353 55.0685C166.511 55.0685 167.033 54.1714 167.062 52.2615C167.062 50.641 167.062 50.612 165.874 50.3227C165.266 50.178 164.977 50.2937 164.514 50.9014ZM166.164 51.9432C166.106 52.6666 165.932 52.8981 165.498 52.8981C164.919 52.8981 164.6 52.1747 164.89 51.4223C164.967 51.2929 165.078 51.1869 165.21 51.1155C165.343 51.0442 165.492 51.0102 165.643 51.0172C166.167 51.0172 166.251 51.1619 166.167 51.9432H166.164Z" fill="black"/>
<path d="M77.8255 50.6409C77.7097 50.7278 77.6228 51.5091 77.6228 52.3772C77.6228 53.4479 77.7386 53.9109 77.9992 53.9109C78.2598 53.9109 78.3756 53.4479 78.3756 52.3483C78.3467 50.7856 78.173 50.2648 77.8255 50.6409Z" fill="black"/>
<path d="M55.1834 52.7535C55.1182 52.8355 55.0837 52.9377 55.086 53.0425C55.0884 53.1472 55.1273 53.2478 55.1961 53.3269C55.2649 53.4059 55.3591 53.4584 55.4626 53.4753C55.5661 53.4921 55.6721 53.4722 55.7625 53.4191C56.052 53.3322 56.1968 53.4769 56.1968 53.8821C56.1968 54.2293 56.3415 54.4897 56.4863 54.4897C56.6311 54.4897 56.7759 54.0267 56.7759 53.4769C56.7759 52.6088 56.689 52.4641 56.081 52.4641C55.6756 52.4641 55.2731 52.5799 55.1834 52.7535Z" fill="black"/>
<path d="M128.784 52.6665C128.705 53.2711 128.695 53.8828 128.755 54.4896C128.784 55.5603 128.929 56.0812 129.19 56.0812C129.45 56.0812 129.595 55.5314 129.624 54.2581C129.682 52.927 129.595 52.464 129.306 52.464C129.209 52.4552 129.112 52.469 129.021 52.5041C128.931 52.5393 128.85 52.5949 128.784 52.6665Z" fill="black"/>
<path d="M130.319 52.7535C130.319 52.8982 130.522 53.0429 130.782 53.0429C131.043 53.0429 131.13 52.8982 131.043 52.7535C130.997 52.6691 130.931 52.598 130.85 52.5473C130.768 52.4965 130.675 52.4678 130.579 52.4641C130.543 52.4648 130.507 52.4729 130.474 52.4881C130.44 52.5032 130.411 52.5251 130.386 52.5522C130.362 52.5793 130.343 52.6112 130.332 52.6458C130.32 52.6805 130.316 52.7171 130.319 52.7535Z" fill="black"/>
<path d="M130.203 54.1714C130.087 54.3739 130.058 54.6054 130.145 54.6922C130.406 54.9527 130.695 54.5765 130.551 54.1714C130.435 53.853 130.377 53.853 130.203 54.1714Z" fill="black"/>
<path d="M150.5 54.0846C150.355 54.2582 151.31 55.3578 151.6 55.3578C151.687 55.3578 151.745 55.1553 151.745 54.9238C151.745 54.4897 150.76 53.8241 150.5 54.0846Z" fill="black"/>
<path d="M32.4256 55.7051C32.2519 56.1391 32.3098 58.0201 32.5125 58.1358C32.6283 58.2227 32.7441 57.7018 32.7441 56.9783C32.7441 55.9076 32.5993 55.2999 32.4256 55.7051Z" fill="black"/>
<path d="M38.6795 56.5154C38.7663 56.6601 38.9111 56.8048 38.998 56.8048C39.0849 56.8048 39.1138 56.6601 39.1138 56.5154C39.114 56.4749 39.1057 56.4347 39.0894 56.3976C39.073 56.3604 39.0491 56.3272 39.019 56.2999C38.989 56.2726 38.9536 56.2519 38.915 56.2392C38.8765 56.2265 38.8357 56.222 38.7953 56.2261C38.6505 56.2261 38.5926 56.3418 38.6795 56.5154Z" fill="black"/>
<path d="M90.8546 56.3996C90.7387 56.5154 90.6519 57.7308 90.6519 59.1198C90.6519 61.8399 90.9125 62.4476 92.1575 62.737C92.7945 62.9106 93.113 62.7659 93.8658 62.0425C94.6186 61.3191 94.7344 60.9718 94.5606 60.3352C94.3001 59.2355 93.7499 58.7725 92.6497 58.7147C91.7521 58.6857 91.6653 58.57 91.5784 57.6729C91.4655 56.6022 91.1759 56.0813 90.8546 56.3996ZM93.4315 59.6696C94.0974 61.0007 92.9682 62.8527 91.9838 62.0425C91.3757 61.5506 91.3757 59.8722 91.9838 59.2645C92.5918 58.6568 93.0261 58.8304 93.4315 59.6696Z" fill="black"/>
<path d="M112.396 57.4414C112.396 57.9622 112.339 59.2934 112.31 60.4219C112.252 62.245 112.31 62.4476 112.802 62.5344C113.352 62.6212 113.381 62.4476 113.323 59.93C113.265 56.3707 113.294 56.5153 112.831 56.5153C112.57 56.5153 112.425 56.8626 112.396 57.4414Z" fill="black"/>
<path d="M150.152 56.7468C149.718 57.1809 150.095 57.6728 150.876 57.6728C151.369 57.6728 151.745 57.586 151.745 57.4413C151.745 57.152 150.355 56.5443 150.152 56.7468Z" fill="black"/>
<path d="M180.844 56.689C180.67 56.7468 180.583 58.078 180.612 59.9011C180.641 62.7948 180.699 63.0263 181.249 63.1131C181.799 63.2 181.828 63.1131 181.654 61.7241L181.481 60.2194L182.61 60.3351C183.594 60.4219 183.739 60.3641 183.652 59.8432C183.507 59.0619 183.391 58.9751 182.928 59.3802C182.175 59.9879 181.538 59.4381 181.625 58.2805C181.712 57.4124 181.828 57.2388 182.465 57.152C182.667 57.1291 182.872 57.1481 183.066 57.2078C183.26 57.2676 183.44 57.3668 183.594 57.4992C184.115 58.1648 184.521 58.078 184.405 57.2967C184.318 56.7468 184.144 56.66 182.726 56.6022C181.857 56.5732 181.017 56.6022 180.844 56.689Z" fill="black"/>
<path d="M48.8715 59.6117C48.2924 61.0007 47.8581 62.1872 47.9449 62.245C48.1766 62.4765 48.6688 61.9556 48.6688 61.4348C48.6959 61.2448 48.7612 61.0623 48.8608 60.8982C48.9603 60.7341 49.0919 60.5918 49.2479 60.4798C49.5953 60.2483 49.769 59.8721 49.6822 59.6406C49.6485 59.4991 49.6551 59.3509 49.7011 59.2129C49.7471 59.0748 49.8308 58.9524 49.9428 58.8593C50.2902 58.5699 50.406 58.6278 50.5508 59.0908C50.6463 59.3709 50.6564 59.6731 50.5798 59.9589C50.4929 60.1036 50.6087 60.393 50.8693 60.5956C51.1873 60.8827 51.435 61.2392 51.5932 61.6373C51.7379 62.0135 52.0274 62.3029 52.288 62.3029C52.8092 62.3029 52.8092 62.3318 52.2591 60.9718C51.1299 58.1937 50.5797 57.0941 50.2612 57.0941C50.0615 57.0941 49.4506 58.2227 48.8715 59.6117Z" fill="black"/>
<path d="M59.063 57.8754C58.8603 58.3094 58.3392 59.438 57.9049 60.364C56.9494 62.3028 56.9494 62.3028 57.4416 62.3028C57.7601 62.2739 58.5129 60.8849 58.9472 59.4669C59.0341 59.1197 59.3236 58.8303 59.5842 58.8303C59.9317 58.8303 59.9896 59.0329 59.8738 59.6695C59.7579 60.3061 59.8158 60.5376 60.2212 60.6534C60.5397 60.7402 60.8582 61.1743 60.974 61.6952C61.1477 62.5054 61.6399 62.8527 62.0453 62.4186C62.2769 62.1871 60.0764 57.2677 59.7 57.1519C59.5263 57.0941 59.2367 57.4124 59.063 57.8754Z" fill="black"/>
<path d="M146.591 57.4414C146.128 57.9044 146.157 59.3513 146.649 59.8432C147.199 60.422 148.444 60.6824 148.705 60.2773C149.023 59.7853 148.56 59.4959 148.241 59.9879C148.01 60.3641 147.894 60.3062 147.402 59.6985C146.794 58.9172 146.649 58.1069 147.112 57.8176C147.46 57.615 147.489 57.0941 147.17 57.0941C146.947 57.1498 146.745 57.2707 146.591 57.4414Z" fill="black"/>
<path d="M148.27 57.3835C148.27 57.5282 148.473 57.6729 148.705 57.6729C148.936 57.6729 149.139 57.5282 149.139 57.3835C149.139 57.2388 148.936 57.0941 148.705 57.0941C148.473 57.0941 148.27 57.2099 148.27 57.3835Z" fill="black"/>
<path d="M38.4481 57.5571C38.2164 57.7886 38.477 58.2516 38.8534 58.2516C38.9982 58.2516 39.114 58.049 39.114 57.8175C39.114 57.3835 38.7695 57.2388 38.4481 57.5571Z" fill="black"/>
<path d="M12.0709 57.9332C11.984 58.049 11.2312 58.1358 10.3915 58.049L8.85693 57.9622V59.9878C8.85693 61.6373 8.9438 62.0134 9.29124 61.9556C9.63869 61.8977 9.69662 61.5504 9.63871 60.7981C9.49394 59.0618 9.75451 58.5988 10.8548 58.6277C11.7813 58.6567 11.8103 58.7145 11.8103 59.7563C11.8103 60.9138 12.5341 62.0134 13.258 62.0134C13.7502 62.0134 14.8215 60.2772 14.6767 59.6984C14.6188 59.4669 14.474 58.9171 14.3872 58.4541C14.3003 57.9911 14.0107 57.6728 13.7502 57.6728C13.4317 57.6728 13.4027 57.8175 13.5764 58.1647C13.9239 58.8592 13.8081 60.7981 13.4317 61.1743C12.9684 61.6373 12.592 60.6823 12.6209 59.0329C12.6499 57.7596 12.4212 57.3255 12.0709 57.9332Z" fill="black"/>
<path d="M23.7683 59.0909C23.7683 59.9011 23.8841 60.2773 24.1737 60.2773C24.6659 60.2773 24.6369 58.1938 24.1447 58.0202C23.8841 57.9623 23.7683 58.2806 23.7683 59.0909Z" fill="black"/>
<path d="M36.5081 59.0908C36.5081 59.7564 36.6239 60.2772 36.7686 60.2772C36.9134 60.2772 37.0292 59.8142 37.0292 59.2644C37.0292 58.7146 36.9134 58.1648 36.7686 58.078C36.6239 57.9912 36.5081 58.4542 36.5081 59.0908Z" fill="black"/>
<path d="M173.345 58.483C173.258 58.6277 173.431 59.0907 173.75 59.4958C174.474 60.3929 174.474 60.798 173.75 61.724C173.055 62.5922 173.026 63.1709 173.634 63.1709C173.866 63.1709 174.213 62.7658 174.358 62.3028C174.503 61.8398 174.792 61.4347 174.966 61.4347C175.14 61.4347 175.4 61.8109 175.574 62.3028C175.748 62.7947 176.124 63.1709 176.414 63.1709C177.08 63.1709 177.051 63.1131 176.356 61.9555C175.632 60.7402 175.632 60.2193 176.356 59.5537C176.617 59.3517 176.818 59.0813 176.935 58.7724C176.935 58.6566 176.674 58.5409 176.356 58.5409C176.277 58.5316 176.198 58.5402 176.124 58.566C176.049 58.5917 175.981 58.6341 175.926 58.6898C175.87 58.7455 175.828 58.8132 175.802 58.8876C175.776 58.9621 175.767 59.0414 175.777 59.1197C175.777 59.901 174.821 59.872 174.474 59.0618C174.155 58.3673 173.605 58.0779 173.345 58.483Z" fill="black"/>
<path d="M21.0467 58.8014C20.9309 58.9751 21.0178 59.4091 21.2205 59.7564L21.5968 60.4219L21.6837 59.7274C21.7995 58.9751 21.3363 58.3095 21.0467 58.8014Z" fill="black"/>
<path d="M22.5233 58.7435C22.2048 59.0329 22.2917 60.2772 22.6102 60.2772C22.7839 60.2772 22.8997 59.8721 22.8997 59.4091C22.8997 58.512 22.8447 58.3963 22.5233 58.7435Z" fill="black"/>
<path d="M27.7349 58.7147C27.5033 58.9462 27.7639 59.4092 28.1403 59.4092C28.2851 59.4092 28.4008 59.2066 28.4008 58.9751C28.4008 58.5411 28.0563 58.3964 27.7349 58.7147Z" fill="black"/>
<path d="M34.3943 59.0619C33.6994 59.8142 33.7863 60.2194 34.6259 60.1615C35.1181 60.1326 35.3498 59.9589 35.3498 59.6117C35.3415 59.3798 35.3512 59.1476 35.3788 58.9172C35.4077 58.4542 34.8576 58.541 34.3943 59.0619Z" fill="black"/>
<path d="M80.0258 58.7436C79.1282 58.8593 79.1282 58.8883 79.0124 60.7403C78.9545 61.7531 79.0124 62.6212 79.1572 62.6502C79.939 62.7949 80.0258 62.6502 80.0548 61.1454C80.0837 59.7275 80.1416 59.5538 80.7497 59.467C81.0971 59.4091 81.3866 59.1776 81.3866 58.9461C81.3866 58.7146 81.2998 58.5699 81.184 58.5989C81.0682 58.6278 80.547 58.6857 80.0258 58.7436Z" fill="black"/>
<path d="M97.8904 60.5088C97.8904 61.9846 98.0062 62.5634 98.2957 62.6791C98.9038 62.9106 98.9038 62.8238 98.759 60.6824C98.6721 59.496 98.4695 58.6857 98.2668 58.5989C97.9773 58.5121 97.8904 59.033 97.8904 60.5088Z" fill="black"/>
<path d="M100.409 60.5955C100.438 61.6952 100.525 62.5922 100.612 62.5922H101.162C101.394 62.5922 101.51 62.0424 101.51 60.856C101.51 59.4091 101.423 59.0908 100.931 58.8882C100.352 58.6278 100.323 58.6856 100.409 60.5955Z" fill="black"/>
<path d="M102.697 58.7436C102.61 58.8594 102.668 59.0909 102.842 59.3224C103.015 59.5539 103.131 60.3062 103.044 61.1454C102.929 62.2451 102.986 62.5923 103.276 62.5923C103.48 62.5914 103.684 62.6108 103.884 62.6502C104.116 62.737 104.029 60.1905 103.797 59.3513C103.652 58.8594 102.986 58.4832 102.697 58.7436Z" fill="black"/>
<path d="M106.113 58.8882C105.658 59.1101 105.303 59.4959 105.121 59.9682C104.938 60.4406 104.941 60.9645 105.129 61.4347C106.027 63.5761 108.893 62.8816 108.893 60.5377C108.893 59.7274 108.719 59.3223 108.256 59.004C107.416 58.3963 107.329 58.5699 107.938 59.6406C108.343 60.364 108.372 60.6245 108.082 61.2611C107.619 62.2739 106.982 62.4765 106.258 61.8399C105.534 61.2032 105.679 59.9589 106.49 59.0619C107.011 58.4831 106.982 58.4542 106.113 58.8882Z" fill="black"/>
<path d="M117.116 60.4798C117.087 62.3029 117.376 63.0553 117.926 62.708C118.042 62.6212 118.071 62.2161 117.984 61.7531C117.92 61.1211 118.019 60.4832 118.274 59.9011C118.621 59.0329 118.65 58.8304 118.303 58.8304C118.036 58.8218 117.773 58.7731 117.521 58.6857C117.234 58.5699 117.145 58.9751 117.116 60.4798Z" fill="black"/>
<path d="M119.432 59.0907C119.809 59.5248 119.924 60.0457 119.838 61.1164C119.809 61.9266 119.838 62.5922 119.982 62.5922H120.475C120.648 62.5922 120.764 61.8977 120.764 61.0585C120.764 59.901 120.619 59.3801 120.243 59.0329C119.461 58.3094 118.795 58.3962 119.432 59.0907Z" fill="black"/>
<path d="M167.525 60.885C167.525 62.8527 167.583 63.171 168.017 63.171C168.451 63.171 168.538 62.8238 168.596 61.2033C168.683 59.2645 168.683 59.2645 169.523 59.2645C169.986 59.2355 170.42 59.0908 170.478 58.9172C170.565 58.6857 170.073 58.5699 169.059 58.5699H167.525V60.885Z" fill="black"/>
<path d="M73.9166 59.1776C73.7151 59.3793 73.5919 59.646 73.5691 59.93C73.5691 60.2483 73.656 60.2773 73.9745 60.0168C74.5825 59.5249 74.7562 60.0458 74.4088 61.2612C74.235 61.8689 74.1771 62.4187 74.264 62.5055C74.5825 62.8527 74.9589 62.2161 75.1616 61.0007C75.3932 59.3223 75.9723 59.4092 76.1749 61.1744C76.2908 62.1872 76.4355 62.4476 76.8698 62.4476C77.6226 62.4476 77.7964 61.8399 77.0725 61.6374C76.3487 61.4348 76.4645 60.3352 77.3042 59.6696C77.6226 59.4092 77.7964 59.1198 77.7095 59.004C77.391 58.6857 74.264 58.8304 73.9166 59.1776Z" fill="black"/>
<path d="M82.8634 59.2355C82.4581 59.7274 82.7476 59.9879 83.7899 59.9879C84.7454 59.9879 84.7454 59.438 83.7899 59.0908C83.6401 59.0138 83.4696 58.9863 83.3031 59.0123C83.1366 59.0383 82.9827 59.1165 82.8634 59.2355Z" fill="black"/>
<path d="M110.051 59.2933C109.154 60.3351 109.993 62.5922 111.238 62.5922C111.702 62.5922 111.673 62.5054 111.064 61.8688C110.225 61.0585 110.167 60.393 110.804 59.467C111.18 58.9171 111.18 58.8303 110.833 58.8303C110.679 58.8524 110.53 58.9047 110.396 58.9841C110.262 59.0635 110.145 59.1686 110.051 59.2933Z" fill="black"/>
<path d="M55.0386 59.988C55.044 60.0629 55.0762 60.1335 55.1294 60.1866C55.1826 60.2398 55.2531 60.272 55.3281 60.2774C55.4049 60.2774 55.4786 60.2469 55.5329 60.1926C55.5872 60.1383 55.6177 60.0647 55.6177 59.988C55.6202 59.9493 55.6145 59.9105 55.6009 59.8743C55.5872 59.838 55.566 59.8051 55.5386 59.7777C55.5111 59.7503 55.4782 59.729 55.4419 59.7154C55.4056 59.7018 55.3668 59.696 55.3281 59.6986C55.2513 59.6986 55.1777 59.7291 55.1234 59.7833C55.0691 59.8376 55.0386 59.9112 55.0386 59.988Z" fill="black"/>
<path d="M129.45 60.5666C129.074 60.7981 129.074 60.856 129.508 60.856C130.348 60.856 130.406 61.4347 129.595 61.7241C129.103 61.8977 128.871 62.1871 128.929 62.5054C129.074 63.2578 129.74 63.3157 129.74 62.5633C129.74 62.2161 129.827 62.0135 129.971 62.1292C130.098 62.2853 130.169 62.4785 130.174 62.6791C130.186 62.7823 130.239 62.8766 130.32 62.9415C130.401 63.0065 130.505 63.0369 130.608 63.0263C130.927 63.0263 131.014 62.7659 130.956 62.0135C130.84 61.0585 130.464 60.2772 130.058 60.2772C129.842 60.3407 129.636 60.4384 129.45 60.5666Z" fill="black"/>
<path d="M32.4255 60.9718C32.6571 61.2612 32.5992 61.5506 32.136 62.1293C31.499 62.9396 31.5279 63.2868 32.1939 63.0264C32.7151 62.8238 33.4389 61.2612 33.1783 60.8561C33.0996 60.7644 33.0018 60.6911 32.8918 60.6411C32.7818 60.5911 32.6622 60.5657 32.5413 60.5667C32.1939 60.5667 32.1649 60.6535 32.4255 60.9718Z" fill="black"/>
<path d="M263.796 23.4973C263.796 24.3365 263.767 24.3655 262.783 24.1919C261.075 23.9314 260.119 25.2336 260.901 26.7384C261.162 27.2014 261.48 27.2882 262.783 27.2303C264.549 27.1435 264.607 27.0567 264.52 24.4234C264.491 22.745 263.796 21.8768 263.796 23.4973ZM263.507 25.1179C264.433 26.2175 262.783 27.4329 261.77 26.4201C261.306 25.9571 261.248 25.6966 261.48 25.2626C261.857 24.597 262.986 24.5102 263.507 25.1179Z" fill="black"/>
<path d="M269.356 23.237C269.211 23.6421 268.777 24.5971 268.458 25.3494C267.792 26.9121 267.705 27.2883 268.111 27.2883C268.516 27.2883 269.993 23.3817 269.79 22.9187C269.703 22.6582 269.558 22.774 269.356 23.237Z" fill="black"/>
<path d="M273.062 24.3656C273.062 25.0312 274.307 27.2883 274.683 27.2883C275.205 27.2883 276.363 24.6839 276.015 24.3367C275.842 24.1631 275.552 24.5393 275.263 25.2338C274.973 25.9283 274.741 26.4202 274.654 26.4202C274.568 26.4202 274.307 25.8993 274.046 25.2627C273.612 24.2209 273.062 23.7001 273.062 24.3656Z" fill="black"/>
<path d="M222.219 27.1436C222.045 27.896 221.698 28.0696 221.379 27.5777C221.292 27.404 220.829 27.2883 220.337 27.2883C219.7 27.2883 219.352 27.5198 218.918 28.2143C218.165 29.4586 218.194 30.0084 218.976 30.7608C219.192 30.9687 219.454 31.1238 219.74 31.2141C220.027 31.3045 220.33 31.3276 220.626 31.2817C221.582 31.1949 221.64 31.137 222.422 28.7931C223.059 26.941 223.145 26.4202 222.827 26.4202C222.595 26.4202 222.338 26.7385 222.219 27.1436ZM221.177 28.2143C221.9 28.9377 221.263 30.7608 220.308 30.7608C219.237 30.7608 218.86 29.3139 219.7 28.3879C220.25 27.7802 220.684 27.7224 221.179 28.2143H221.177Z" fill="black"/>
<path d="M193.583 27.3462C192.078 27.9249 191.296 28.4458 191.527 28.6773C191.73 28.8509 195.755 27.2015 195.755 26.9121C195.755 26.6227 195.176 26.7095 193.583 27.3462Z" fill="black"/>
<path d="M239.273 27.9249C239.36 28.1275 239.707 29.0246 240.054 29.8927C240.402 30.7608 240.865 31.8315 241.039 32.2945C241.473 33.3652 241.792 33.1627 242.371 31.4553C242.656 30.6336 242.995 29.8313 243.384 29.0535C243.703 28.4169 243.761 27.9828 243.587 27.8092C243.153 27.3751 242.66 27.7802 242.66 28.5326C242.608 29.1277 242.472 29.7123 242.255 30.2689C241.965 31.1081 241.821 31.2817 241.589 30.9923C241.357 30.703 240.778 29.2271 240.46 27.9249C240.381 27.8081 240.272 27.7145 240.145 27.6534C240.018 27.5924 239.877 27.5663 239.736 27.5777C239.36 27.5777 239.186 27.7224 239.273 27.9249Z" fill="black"/>
<path d="M267.271 31.2528C266.9 31.3028 266.55 31.4529 266.258 31.6868C266.055 31.9183 266.084 31.9473 266.316 31.8026C266.952 31.4553 270.427 31.5132 270.89 31.9183C271.122 32.1209 271.411 32.2077 271.498 32.1209C272.019 31.6 268.806 30.9344 267.271 31.2528Z" fill="black"/>
<path d="M192.57 31.6289C192.57 31.7008 192.596 31.7704 192.644 31.8239C192.693 31.8774 192.759 31.911 192.831 31.9182C192.925 31.9086 193.016 31.8775 193.096 31.8273C193.176 31.7772 193.244 31.7093 193.294 31.6289C193.381 31.4552 193.265 31.3395 193.033 31.3395C192.802 31.3395 192.57 31.4552 192.57 31.6289Z" fill="black"/>
<path d="M266.547 33.047C266.316 33.4521 266.663 33.5389 268.14 33.481C268.864 33.4521 269.877 33.4232 270.398 33.3942C270.919 33.3653 271.296 33.2495 271.18 33.0759C270.948 32.6997 266.779 32.6997 266.547 33.047Z" fill="black"/>
<path d="M196.768 33.4809C196.305 33.6835 195.465 34.0018 194.944 34.2044C194.076 34.5516 193.989 34.6674 194.162 35.5066C194.365 36.4326 195.234 37.4165 195.9 37.4165C196.073 37.4165 196.595 37.0981 197 36.7219C197.666 36.1143 197.724 35.9117 197.492 35.0436C197.116 33.7703 197.116 33.6546 197.608 33.6546C197.724 33.6523 197.838 33.6253 197.943 33.5754C198.048 33.5255 198.141 33.4538 198.216 33.3652C198.448 32.989 197.84 33.0469 196.768 33.4809ZM196.855 35.4487C196.942 36.0853 196.797 36.2879 196.218 36.4326C195.494 36.6062 194.597 36.1721 194.597 35.6513C194.597 35.1304 195.552 34.4937 196.16 34.5806C196.568 34.6384 196.797 34.8989 196.858 35.4487H196.855Z" fill="black"/>
<path d="M216.08 34.2623C216.225 34.7253 219.902 35.7381 220.945 35.6223C221.466 35.5355 221.176 35.3619 219.786 34.8989C216.949 33.9729 215.936 33.7993 216.08 34.2623Z" fill="black"/>
<path d="M269.587 35.0726C269.587 35.7671 270.311 36.0564 270.746 35.5356C271.18 35.0147 270.89 34.5227 270.138 34.5227C270.063 34.5156 269.989 34.5248 269.919 34.5499C269.849 34.575 269.785 34.6153 269.733 34.6679C269.68 34.7204 269.64 34.784 269.615 34.8539C269.589 34.9239 269.58 34.9986 269.587 35.0726Z" fill="black"/>
<path d="M269.443 37.5901C268.956 37.8559 268.403 37.9764 267.85 37.9373C267.3 37.8795 266.837 37.9663 266.837 38.1399C266.837 38.4003 270.253 38.574 270.804 38.3425C271.035 38.2556 270.427 37.1271 270.167 37.1271C269.899 37.2366 269.654 37.3935 269.443 37.5901Z" fill="black"/>
<path d="M217.528 38.3714C217.181 38.7476 216.978 39.1238 217.065 39.2395C217.152 39.3553 217.036 40.0208 216.775 40.8022C216.37 42.0175 216.341 42.2201 216.746 42.5963C217.152 42.9725 217.181 42.9725 217.181 42.5095C217.181 41.4967 217.847 39.7315 218.223 39.7315C218.484 39.7315 218.6 39.4421 218.542 38.8633C218.397 37.6769 218.252 37.5901 217.528 38.3714Z" fill="black"/>
<path d="M240.025 38.7187C240.025 38.8055 239.996 40.1366 239.996 41.6703C239.967 43.9274 240.054 44.5062 240.373 44.5062C240.633 44.5062 240.778 44.1879 240.778 43.5223C240.778 42.9725 240.952 42.4806 241.155 42.3937C241.357 42.3069 241.502 42.3937 241.502 42.5384C241.502 42.6831 241.878 43.2329 242.342 43.7828C242.95 44.5062 243.268 44.7088 243.5 44.4773C243.732 44.2458 243.616 43.9853 243.094 43.4934C242.371 42.7989 242.139 41.6414 242.66 41.3231C243.181 41.0047 242.979 39.5578 242.429 39.0659C241.936 38.6318 240.083 38.3714 240.025 38.7187ZM241.907 39.8183C242.284 40.397 241.821 41.3231 241.184 41.3231C240.807 41.3231 240.547 39.9051 240.836 39.3553C241.039 39.008 241.56 39.2395 241.907 39.8183Z" fill="black"/>
<path d="M266.779 40.7443C266.645 40.8938 266.545 41.0697 266.484 41.2605C266.422 41.4514 266.402 41.6529 266.424 41.8521C266.446 42.0513 266.509 42.2437 266.61 42.4168C266.711 42.5898 266.848 42.7398 267.011 42.8568C267.648 43.2619 269.703 43.2619 270.543 42.8568C271.18 42.5385 271.18 41.4099 270.514 40.8022C269.848 40.1945 267.271 40.1656 266.779 40.7443ZM269.993 41.0627C270.129 41.1213 270.245 41.2181 270.327 41.3414C270.409 41.4646 270.454 41.609 270.456 41.7572C270.456 42.3649 269.906 42.6253 268.574 42.6253C267.503 42.6253 266.895 42.0755 267.155 41.352C267.329 40.889 269.037 40.6865 269.993 41.0627Z" fill="black"/>
<path d="M199.519 42.3358C198.506 42.7988 197.608 43.2908 197.55 43.4644C197.405 43.8985 197.579 43.8695 198.795 43.2908C199.751 42.8278 199.838 42.8278 200.33 43.3197C200.822 43.8116 200.793 43.8406 200.127 44.3904C199.82 44.6583 199.452 44.8471 199.056 44.9402C199.002 44.939 198.949 44.9487 198.899 44.9686C198.85 44.9886 198.804 45.0184 198.766 45.0562C198.729 45.0941 198.699 45.1392 198.679 45.1889C198.659 45.2386 198.649 45.2918 198.65 45.3453C198.65 45.6926 198.853 45.6926 199.809 45.2875C201.111 44.7376 201.459 44.101 200.967 43.2039C200.677 42.6831 200.735 42.5673 201.227 42.4226C201.575 42.3358 201.835 42.0754 201.835 41.8728C201.835 41.3519 201.748 41.3809 199.519 42.3358Z" fill="black"/>
<path d="M266.895 44.5929C266.258 45.2874 266.287 45.8951 266.924 46.4739C267.561 47.0526 269.587 47.1395 270.485 46.6765C271.18 46.3003 271.209 45.1717 270.514 44.564C269.761 43.8695 267.506 43.8984 266.895 44.5929ZM270.166 44.9402C270.514 45.1428 270.514 45.3164 270.282 45.7215C269.79 46.5028 267.184 46.4739 267.039 45.6926C267.009 45.5483 267.02 45.3983 267.071 45.2599C267.122 45.1216 267.212 45.0007 267.329 44.9113C267.85 44.564 269.616 44.5929 270.166 44.9402Z" fill="black"/>
<path d="M211.998 47.6604C211.564 48.4128 211.651 49.3098 212.172 49.4835C212.374 49.5703 212.49 49.252 212.461 48.6443C212.403 47.863 212.519 47.6604 213.069 47.6025C213.619 47.5446 213.706 47.6315 213.706 48.4417C213.706 49.3388 213.735 49.3677 214.285 48.8468C214.951 48.2681 215.82 48.4706 215.675 49.1941C215.614 49.3745 215.515 49.5399 215.385 49.6795C215.256 49.8191 215.098 49.9298 214.922 50.0044C214.227 50.3227 214.054 51.0172 214.662 51.0172C215.125 51.0172 216.138 49.9465 216.399 49.1941C216.631 48.5864 215.675 47.5446 214.893 47.5446C214.755 47.5505 214.616 47.5278 214.487 47.478C214.357 47.4283 214.24 47.3524 214.141 47.2553C213.793 46.6765 212.374 46.9369 211.998 47.6604Z" fill="black"/>
<path d="M270.456 47.8919C270.051 48.0366 268.864 48.0945 267.763 48.0366C265.563 47.8341 265.418 48.1524 267.416 48.7022C268.516 49.0205 268.95 48.9916 269.906 48.7022C270.977 48.3549 271.527 47.9209 271.296 47.7183C271.238 47.6604 270.861 47.7473 270.456 47.8919Z" fill="black"/>
<path d="M267.271 49.9176C268.835 50.6121 270.051 51.0172 270.601 51.0172C271.469 51.0172 270.775 50.5831 269.037 50.0623C267.3 49.5414 266.142 49.4256 267.271 49.9176Z" fill="black"/>
<path d="M209.797 51.538C209.624 51.7406 210.405 53.1875 210.956 53.6216C211.621 54.1714 211.853 53.7084 211.245 53.0139C210.753 52.5219 210.753 52.3772 211.1 52.1747C211.406 51.9882 211.756 51.8882 212.114 51.8853C212.606 51.8853 212.606 51.8274 212.258 51.5959C211.853 51.3355 210.058 51.2776 209.797 51.538Z" fill="black"/>
<path d="M202.07 52.0589C201.288 52.4641 200.883 53.2743 201.635 52.9271C201.917 52.7914 202.207 52.6753 202.504 52.5798C202.765 52.4641 202.996 52.2904 202.996 52.1747C202.996 52.0589 203.228 51.8564 203.517 51.7985C203.923 51.6827 203.923 51.6538 203.431 51.6538C202.952 51.6823 202.486 51.8209 202.07 52.0589Z" fill="black"/>
<path d="M237.854 53.0139C237.912 54.4608 238.288 54.9238 238.375 53.6795C238.372 53.2543 238.391 52.8293 238.433 52.4062C238.438 52.3082 238.409 52.2115 238.351 52.1324C238.293 52.0533 238.21 51.9967 238.115 51.9721C237.912 51.8853 237.825 52.2326 237.854 53.0139Z" fill="black"/>
<path d="M241.27 52.4642C241.27 52.8693 241.328 53.014 241.415 52.8114C241.473 52.5738 241.473 52.3257 241.415 52.088C241.328 51.9144 241.27 52.0591 241.27 52.4642Z" fill="black"/>
<path d="M266.721 52.1168C266.142 52.3194 266.721 52.7534 267.59 52.7534C268.343 52.7534 268.429 52.8403 268.429 53.7084C268.429 54.7212 269.153 55.6472 269.935 55.6472C270.717 55.6472 271.325 54.6344 271.325 53.3901C271.325 52.2615 271.267 52.1747 270.543 52.1458C270.08 52.1458 269.124 52.0879 268.4 52.0589C267.84 52.0211 267.277 52.0405 266.721 52.1168ZM270.601 53.7663C270.601 54.4318 270.456 54.6633 269.964 54.7212C269.472 54.7791 269.269 54.6344 269.124 54.0846C268.893 53.1586 269.211 52.6956 269.964 52.8113C270.456 52.8692 270.601 53.1007 270.601 53.7663Z" fill="black"/>
<path d="M239.215 53.5349C239.244 54.2294 239.302 54.403 239.388 53.9689C239.475 53.5349 239.649 53.3323 239.968 53.448C240.286 53.5638 240.344 53.477 240.286 53.1297C240.252 52.9818 240.176 52.8464 240.069 52.739C239.961 52.6316 239.826 52.5565 239.678 52.522C239.273 52.4352 239.186 52.6088 239.215 53.5349Z" fill="black"/>
<path d="M244.108 53.4769C244.108 54.0267 244.253 54.4897 244.397 54.4897C244.542 54.4897 244.687 54.0267 244.687 53.4769C244.687 52.9271 244.571 52.4641 244.397 52.4641C244.224 52.4641 244.108 52.9271 244.108 53.4769Z" fill="black"/>
<path d="M242.316 53.9688C242.576 54.2293 242.75 54.2293 243.011 53.9688C243.271 53.7084 243.213 53.6216 242.663 53.6216C242.113 53.6216 242.052 53.7084 242.316 53.9688Z" fill="black"/>
<path d="M204.296 55.0685C203.955 55.4088 203.503 55.6144 203.022 55.6472C202.356 55.6762 202.327 55.7051 202.791 55.9655C202.948 56.0389 203.072 56.1696 203.136 56.3309C203.201 56.4921 203.201 56.6719 203.138 56.8337C202.906 57.5571 203.457 57.5571 203.862 56.8047C203.978 56.6204 204.141 56.4698 204.335 56.3683C204.528 56.2667 204.744 56.2176 204.962 56.226C205.657 56.197 205.686 56.1681 205.252 55.8498C204.904 55.5894 204.846 55.3579 205.049 54.9817C205.454 54.3161 204.933 54.345 204.296 55.0685Z" fill="black"/>
<path d="M241.213 55.1842C241.213 55.4446 241.357 55.6472 241.502 55.6472C241.539 55.6504 241.575 55.646 241.61 55.6344C241.645 55.6228 241.676 55.6043 241.704 55.5798C241.731 55.5554 241.753 55.5257 241.768 55.4924C241.783 55.4592 241.791 55.4232 241.792 55.3867C241.788 55.291 241.759 55.198 241.709 55.1168C241.658 55.0356 241.587 54.969 241.502 54.9237C241.357 54.8369 241.213 54.9527 241.213 55.1842Z" fill="black"/>
<path d="M209.508 56.0523C208.987 56.8336 209.132 57.3834 209.856 57.3834C210.232 57.3834 210.232 57.3255 209.913 56.8915C209.595 56.5442 209.595 56.3995 209.856 56.3127C210.493 56.0812 210.666 56.3417 210.666 57.3834C210.666 58.1937 210.782 58.4252 211.303 58.4831C211.498 58.518 211.699 58.4855 211.873 58.3907C212.046 58.296 212.183 58.1448 212.259 57.9622C212.577 57.3834 212.548 57.3545 211.998 57.6439C211.187 58.0779 211.101 58.049 211.101 57.2387C211.101 56.5153 211.767 56.2259 212.114 56.8047C212.346 57.1809 212.838 56.8915 212.838 56.3995C212.838 56.168 212.49 55.9365 212.056 55.8208C211.567 55.732 211.084 55.6161 210.608 55.4735C210.145 55.3578 209.856 55.5025 209.508 56.0523Z" fill="black"/>
<path d="M269.964 56.1393C269.844 56.2102 269.746 56.3123 269.68 56.4346C269.614 56.5569 269.582 56.6948 269.588 56.8338C269.588 57.4704 270.08 57.5283 270.804 57.0074C271.238 56.6601 271.238 56.6023 270.804 56.3418C270.557 56.1756 270.259 56.1037 269.964 56.1393Z" fill="black"/>
<path d="M239.71 57.2967C240.839 57.3545 242.75 57.3545 243.908 57.2967C245.066 57.2388 244.111 57.2098 241.794 57.2098C239.478 57.2098 238.552 57.2677 239.71 57.2967Z" fill="black"/>
<path d="M227.26 58.7435C227.086 60.7692 227.347 62.5922 227.781 62.5922C228.128 62.5922 228.186 62.1292 228.128 60.2193C228.07 58.7146 227.926 57.8175 227.694 57.7596C227.462 57.7018 227.315 58.049 227.26 58.7435Z" fill="black"/>
<path d="M205.686 59.1487C204.991 59.438 204.441 59.8142 204.441 59.9879C204.441 60.3351 205.223 60.3641 205.426 60.0168C205.628 59.6696 207.047 59.438 207.047 59.7274C207.054 59.7991 207.088 59.8654 207.141 59.9136C207.195 59.9617 207.265 59.9882 207.337 59.9879C207.742 59.9879 207.713 59.6117 207.279 59.0619C206.931 58.6567 206.786 58.6567 205.686 59.1487Z" fill="black"/>
<path d="M248.335 58.7436C248.249 58.8304 248.162 59.6117 248.162 60.4798C248.162 61.6952 248.249 62.0135 248.625 62.0135C248.943 62.0135 249.059 61.8399 248.943 61.4348C248.857 61.1165 248.914 60.856 249.059 60.856C249.204 60.856 249.465 61.1165 249.667 61.4348C249.747 61.5769 249.855 61.7014 249.985 61.8008C250.114 61.9003 250.262 61.9726 250.42 62.0135C250.681 62.0135 250.623 61.7531 250.217 61.1743C249.465 60.1326 249.465 59.7274 250.102 59.2355C250.391 59.0329 250.507 58.7725 250.362 58.6278C250.217 58.4831 249.928 58.6857 249.696 59.0329C249.204 59.7853 248.596 59.93 248.828 59.2644C249.03 58.8304 248.654 58.4252 248.335 58.7436Z" fill="black"/>
<path d="M252.215 60.2773C252.215 61.2322 252.331 62.0135 252.505 62.0135C252.678 62.0135 252.794 61.2322 252.794 60.2773C252.794 59.3223 252.678 58.541 252.505 58.541C252.331 58.541 252.215 59.3223 252.215 60.2773Z" fill="black"/>
<path d="M256.616 59.1198C256.124 59.9011 256.182 62.1583 256.674 62.5634C257.021 62.8528 257.05 62.737 256.819 61.7242C256.529 60.5088 256.732 59.1198 257.166 59.1198C257.238 59.1126 257.304 59.079 257.352 59.0255C257.4 58.9719 257.427 58.9024 257.427 58.8304C257.427 58.3674 257.021 58.5121 256.616 59.1198Z" fill="black"/>
<path d="M259.569 59.4091L259.019 60.4219L258.932 59.6116C258.817 58.7435 258.295 58.512 258.295 59.3801C258.295 61.3768 259.193 62.5054 259.569 61.0006C259.685 60.5955 259.888 60.2772 260.033 60.2772C260.177 60.2772 260.322 60.5955 260.322 61.0006C260.322 61.4636 260.496 61.7241 260.756 61.7241C260.812 61.726 260.867 61.7171 260.918 61.6977C260.97 61.6784 261.017 61.6491 261.058 61.6115C261.098 61.5739 261.131 61.5287 261.153 61.4785C261.176 61.4283 261.189 61.3741 261.191 61.3189C261.267 60.8924 261.413 60.4816 261.625 60.1036C262.146 59.0907 262.175 58.4541 261.712 58.5988C261.509 58.6856 261.307 59.0907 261.249 59.4959C261.133 60.5376 260.756 60.4798 260.409 59.3222L260.148 58.3962L259.569 59.4091Z" fill="black"/>
<path d="M266.692 58.8304C266.692 58.9751 267.097 59.1198 267.561 59.1198C268.835 59.1198 268.748 60.1326 267.416 60.7692C266.866 61.0297 266.403 61.4348 266.403 61.6373C266.403 62.1293 266.547 62.1003 267.445 61.5505C268.111 61.0875 268.227 61.0875 269.153 61.6084C270.08 62.1293 270.167 62.1003 270.717 61.5795C271.151 61.2033 271.325 60.7113 271.325 59.7853V58.541H269.008C267.648 58.541 266.692 58.6568 266.692 58.8304ZM270.601 59.4381C270.717 59.5828 270.717 60.0458 270.63 60.4509C270.485 61.0007 270.282 61.1743 269.79 61.0875C268.719 60.9428 268.748 59.1198 269.848 59.1198C269.99 59.1115 270.131 59.136 270.262 59.1912C270.392 59.2464 270.508 59.3308 270.601 59.4381Z" fill="black"/>
<path d="M263.13 59.9589C263.218 60.637 263.169 61.3257 262.986 61.9846C262.609 63.0842 262.928 63.171 263.449 62.1003C263.912 61.0875 263.883 59.9879 263.391 59.3223C263.015 58.8304 262.986 58.9172 263.13 59.9589Z" fill="black"/>
<path d="M216.283 59.525C216.138 60.7693 216.312 62.737 216.573 62.8238C216.978 62.9685 217.007 59.8143 216.602 59.5539C216.457 59.4671 216.312 59.4381 216.283 59.525Z" fill="black"/>
<path d="M217.76 59.6407C217.772 59.7453 217.807 59.8461 217.862 59.936C217.917 60.0259 217.991 60.1029 218.079 60.1615C218.281 60.2773 218.339 60.8561 218.252 61.6084C218.165 62.5344 218.223 62.8817 218.484 62.8817C218.744 62.8817 218.889 62.3319 218.976 61.2901C219.005 60.422 218.976 59.6985 218.86 59.6985C218.643 59.66 218.43 59.6019 218.223 59.5249C217.963 59.4381 217.76 59.496 217.76 59.6407Z" fill="black"/>
<path d="M219.787 59.6696C219.799 59.7702 219.835 59.8666 219.89 59.9518C219.945 60.0369 220.019 60.1086 220.105 60.1615C220.308 60.2773 220.366 60.8271 220.25 61.6084C220.134 62.6212 220.163 62.8817 220.51 62.8817C221.061 62.8817 221.119 60.2773 220.597 59.7564C220.192 59.3513 219.787 59.2934 219.787 59.6696Z" fill="black"/>
<path d="M222.508 59.6405C221.929 60.0167 221.495 61.1453 221.669 61.724C221.871 62.3607 222.972 63.1131 222.972 62.6211C222.965 62.5261 222.935 62.4341 222.885 62.3533C222.834 62.2726 222.765 62.2055 222.682 62.1581C222.277 61.8977 222.306 60.4797 222.74 60.0457C223.174 59.6116 222.943 59.3512 222.508 59.6405Z" fill="black"/>
<path d="M223.261 59.6696C223.261 59.8143 223.464 59.9879 223.696 60.1036C224.217 60.3062 224.275 61.7531 223.782 62.245C223.522 62.5055 223.522 62.5923 223.782 62.5923C224.333 62.5923 224.998 61.0586 224.68 60.4798C224.362 59.9011 223.261 59.2645 223.261 59.6696Z" fill="black"/>
<path d="M225.78 59.9299C225.201 60.5665 225.143 61.753 225.635 62.2449C226.185 62.7947 226.475 62.6501 226.098 62.0134C225.809 61.5794 225.809 61.2611 226.098 60.5087C226.504 59.409 226.417 59.2354 225.78 59.9299Z" fill="black"/>
<path d="M231.05 59.6117C230.876 60.3351 231.079 62.737 231.339 62.8238C231.6 62.9106 231.629 62.6501 231.513 61.9556C231.368 61.1743 231.455 60.856 231.947 60.4219C232.729 59.6985 233.192 60.1615 233.163 61.7241C233.134 62.5055 233.25 62.8816 233.482 62.7948C233.945 62.6501 233.945 60.6534 233.511 60.0457C233.221 59.6406 231.136 59.2934 231.05 59.6117Z" fill="black"/>
<path d="M253.836 59.6406C253.489 59.9589 253.692 60.3062 254.184 60.2194C254.56 60.1615 254.705 60.364 254.763 61.0875C254.821 61.6662 254.995 62.0135 255.197 61.9267C255.661 61.782 255.805 60.6245 255.4 60.1615C255.055 59.6985 254.068 59.3802 253.836 59.6406Z" fill="black"/>
<path d="M240.749 60.885C240.71 60.9938 240.703 61.1116 240.728 61.2245C240.754 61.3373 240.811 61.4404 240.894 61.5216C241.241 61.8689 242.66 61.348 242.66 60.856C242.66 60.4798 241.01 60.4798 240.749 60.885Z" fill="black"/>
<path d="M253.663 61.5505C253.663 61.8109 253.808 62.0135 253.952 62.0135C253.989 62.0167 254.025 62.0123 254.06 62.0007C254.095 61.9892 254.127 61.9706 254.154 61.9462C254.181 61.9217 254.203 61.892 254.218 61.8588C254.233 61.8255 254.241 61.7896 254.242 61.753C254.238 61.6574 254.21 61.5643 254.159 61.4831C254.108 61.4019 254.037 61.3353 253.952 61.2901C253.808 61.2032 253.663 61.319 253.663 61.5505Z" fill="black"/>
<path d="M241.965 62.245C241.921 62.3298 241.912 62.4284 241.939 62.52C241.966 62.6117 242.027 62.6894 242.11 62.7369C242.544 63.0263 242.834 62.6501 242.457 62.2739C242.255 62.0713 242.081 62.0713 241.965 62.245Z" fill="black"/>
<path d="M240.634 62.5923C240.639 62.6673 240.671 62.7378 240.724 62.791C240.778 62.8441 240.848 62.8764 240.923 62.8817C241 62.8817 241.074 62.8512 241.128 62.797C241.182 62.7427 241.213 62.6691 241.213 62.5923C241.215 62.5537 241.209 62.5149 241.196 62.4786C241.182 62.4424 241.161 62.4094 241.134 62.382C241.106 62.3546 241.073 62.3334 241.037 62.3198C241.001 62.3061 240.962 62.3004 240.923 62.303C240.846 62.303 240.773 62.3334 240.718 62.3877C240.664 62.442 240.634 62.5156 240.634 62.5923Z" fill="black"/>
</g>
<defs>
<clipPath id="clip0">
<rect width="282" height="86" fill="white"/>
</clipPath>
</defs>
</svg>
