<svg width="411" height="823" viewBox="0 0 411 823" fill="none" xmlns="http://www.w3.org/2000/svg">
<g clip-path="url(#clip0)">
<rect width="411" height="823" fill="#01224D"/>
<path opacity="0.9" fill-rule="evenodd" clip-rule="evenodd" d="M416 466L410.459 471.541L320.657 561.343L315 567L320.657 572.657L410.459 662.459L416 668V656.686L326.314 567L416 477.314V466ZM442 630.919L505.919 567L442 503.081V491.767L511.576 561.343L517.233 567L511.576 572.657L442 642.233V630.919Z" fill="white"/>
<path fill-rule="evenodd" clip-rule="evenodd" d="M415 411L315 511L415 611V411ZM442 586.233L517.233 511L442 435.767V586.233Z" fill="#305BC9"/>
<path fill-rule="evenodd" clip-rule="evenodd" d="M-27.9999 49.8619C-39.1034 60.6709 -45.9999 75.7801 -45.9999 92.5C-45.9999 109.22 -39.1034 124.329 -27.9999 135.138V49.8619ZM-2.99988 149.682C2.23932 151.191 7.7753 152 13.5001 152C46.3611 152 73.0001 125.361 73.0001 92.5C73.0001 59.6391 46.3611 33 13.5001 33C7.7753 33 2.23932 33.8085 -2.99988 35.3176V149.682Z" fill="#305BC9"/>
<path d="M31.0168 121C29.9826 121 29.0518 121.931 29.0518 122.965C29.0518 124.103 29.9826 124.93 31.0168 124.93C32.1544 124.93 32.9818 123.999 32.9818 122.965C33.0852 121.931 32.1544 121 31.0168 121Z" fill="white"/>
<path d="M39.6008 121C38.4631 121 37.6357 121.931 37.6357 122.965C37.6357 124.103 38.5665 124.93 39.6008 124.93C40.7384 124.93 41.5658 123.999 41.5658 122.965C41.5658 121.931 40.7384 121 39.6008 121Z" fill="white"/>
<path d="M48.1848 121C47.0472 121 46.2198 121.931 46.2198 122.965C46.2198 124.103 47.1506 124.93 48.1848 124.93C49.3224 124.93 50.1498 123.999 50.1498 122.965C50.1498 121.931 49.219 121 48.1848 121Z" fill="white"/>
<path d="M56.6654 121C55.5278 121 54.7004 121.931 54.7004 122.965C54.7004 124.103 55.6312 124.93 56.6654 124.93C57.803 124.93 58.6304 123.999 58.6304 122.965C58.7338 121.931 57.803 121 56.6654 121Z" fill="white"/>
<path d="M65.2494 121C64.1117 121 63.2844 121.931 63.2844 122.965C63.2844 124.103 64.2152 124.93 65.2494 124.93C66.387 124.93 67.2144 123.999 67.2144 122.965C67.2144 121.931 66.387 121 65.2494 121Z" fill="white"/>
<path d="M73.8334 121C72.6958 121 71.8684 121.931 71.8684 122.965C71.8684 124.103 72.7992 124.93 73.8334 124.93C74.9711 124.93 75.7984 123.999 75.7984 122.965C75.7984 121.931 74.8676 121 73.8334 121Z" fill="white"/>
<path d="M82.314 121C81.1764 121 80.349 121.931 80.349 122.965C80.349 124.103 81.2798 124.93 82.314 124.93C83.4517 124.93 84.279 123.999 84.279 122.965C84.279 121.931 83.4517 121 82.314 121Z" fill="white"/>
<path d="M90.8981 121C89.7604 121 88.933 121.931 88.933 122.965C88.933 124.103 89.8638 124.93 90.8981 124.93C92.0357 124.93 92.8631 123.999 92.8631 122.965C92.8631 121.931 92.0357 121 90.8981 121Z" fill="white"/>
<path d="M99.482 121C98.3444 121 97.517 121.931 97.517 122.965C97.517 124.103 98.4478 124.93 99.482 124.93C100.62 124.93 101.447 123.999 101.447 122.965C101.447 121.931 100.516 121 99.482 121Z" fill="white"/>
<path d="M107.963 121C106.825 121 105.998 121.931 105.998 122.965C105.998 124.103 106.928 124.93 107.963 124.93C109.1 124.93 109.928 123.999 109.928 122.965C109.928 121.931 109.1 121 107.963 121Z" fill="white"/>
<path d="M116.547 121C115.409 121 114.582 121.931 114.582 122.965C114.582 124.103 115.512 124.93 116.547 124.93C117.684 124.93 118.512 123.999 118.512 122.965C118.512 121.931 117.581 121 116.547 121Z" fill="white"/>
<path d="M125.027 125.033C126.165 125.033 126.992 124.103 126.992 123.068C126.992 121.931 126.061 121.103 125.027 121.103C123.89 121.103 123.062 122.034 123.062 123.068C123.062 124.103 123.993 125.033 125.027 125.033Z" fill="white"/>
<path d="M31.0168 129.584C29.9826 129.584 29.0518 130.411 29.0518 131.549C29.0518 132.687 29.9826 133.514 31.0168 133.514C32.1544 133.514 32.9818 132.583 32.9818 131.549C33.0852 130.411 32.1544 129.584 31.0168 129.584Z" fill="white"/>
<path d="M39.6008 129.584C38.4631 129.584 37.6357 130.515 37.6357 131.549C37.6357 132.687 38.5665 133.514 39.6008 133.514C40.7384 133.514 41.5658 132.583 41.5658 131.549C41.5658 130.411 40.7384 129.584 39.6008 129.584Z" fill="white"/>
<path d="M48.1848 129.584C47.0472 129.584 46.2198 130.515 46.2198 131.549C46.2198 132.687 47.1506 133.514 48.1848 133.514C49.3224 133.514 50.1498 132.583 50.1498 131.549C50.1498 130.411 49.219 129.584 48.1848 129.584Z" fill="white"/>
<path d="M56.6654 129.584C55.5278 129.584 54.7004 130.515 54.7004 131.549C54.7004 132.687 55.6312 133.514 56.6654 133.514C57.803 133.514 58.6304 132.583 58.6304 131.549C58.7338 130.411 57.803 129.584 56.6654 129.584Z" fill="white"/>
<path d="M65.2494 129.584C64.1117 129.584 63.2844 130.515 63.2844 131.549C63.2844 132.687 64.2152 133.514 65.2494 133.514C66.387 133.514 67.2144 132.583 67.2144 131.549C67.2144 130.411 66.387 129.584 65.2494 129.584Z" fill="white"/>
<path d="M73.8334 129.584C72.6958 129.584 71.8684 130.515 71.8684 131.549C71.8684 132.687 72.7992 133.514 73.8334 133.514C74.9711 133.514 75.7984 132.583 75.7984 131.549C75.7984 130.411 74.8676 129.584 73.8334 129.584Z" fill="white"/>
<path d="M82.314 129.584C81.1764 129.584 80.349 130.515 80.349 131.549C80.349 132.687 81.2798 133.514 82.314 133.514C83.4517 133.514 84.279 132.583 84.279 131.549C84.279 130.411 83.4517 129.584 82.314 129.584Z" fill="white"/>
<path d="M90.8981 129.584C89.7604 129.584 88.933 130.515 88.933 131.549C88.933 132.687 89.8638 133.514 90.8981 133.514C92.0357 133.514 92.8631 132.583 92.8631 131.549C92.8631 130.411 92.0357 129.584 90.8981 129.584Z" fill="white"/>
<path d="M99.482 129.584C98.3444 129.584 97.517 130.515 97.517 131.549C97.517 132.687 98.4478 133.514 99.482 133.514C100.62 133.514 101.447 132.583 101.447 131.549C101.447 130.411 100.516 129.584 99.482 129.584Z" fill="white"/>
<path d="M107.963 129.584C106.825 129.584 105.998 130.515 105.998 131.549C105.998 132.687 106.928 133.514 107.963 133.514C109.1 133.514 109.928 132.583 109.928 131.549C109.928 130.411 109.1 129.584 107.963 129.584Z" fill="white"/>
<path d="M116.547 129.584C115.409 129.584 114.582 130.515 114.582 131.549C114.582 132.687 115.512 133.514 116.547 133.514C117.684 133.514 118.512 132.583 118.512 131.549C118.512 130.411 117.581 129.584 116.547 129.584Z" fill="white"/>
<path d="M125.027 129.584C123.89 129.584 123.062 130.515 123.062 131.549C123.062 132.687 123.993 133.514 125.027 133.514C126.165 133.514 126.992 132.583 126.992 131.549C127.096 130.411 126.165 129.584 125.027 129.584Z" fill="white"/>
<path d="M31.0168 138.065C29.8791 138.065 29.0518 138.995 29.0518 140.03C29.0518 141.167 29.9826 141.995 31.0168 141.995C32.1544 141.995 32.9818 141.064 32.9818 140.03C33.0852 138.995 32.1544 138.065 31.0168 138.065Z" fill="white"/>
<path d="M39.6008 138.065C38.4631 138.065 37.6357 138.995 37.6357 140.03C37.6357 141.167 38.5665 141.995 39.6008 141.995C40.7384 141.995 41.5658 141.064 41.5658 140.03C41.5658 138.995 40.7384 138.065 39.6008 138.065Z" fill="white"/>
<path d="M48.1848 138.065C47.0472 138.065 46.2198 138.995 46.2198 140.03C46.2198 141.167 47.1506 141.995 48.1848 141.995C49.3224 141.995 50.1498 141.064 50.1498 140.03C50.1498 138.995 49.219 138.065 48.1848 138.065Z" fill="white"/>
<path d="M56.6654 138.065C55.5278 138.065 54.7004 138.995 54.7004 140.03C54.7004 141.167 55.6312 141.995 56.6654 141.995C57.803 141.995 58.6304 141.064 58.6304 140.03C58.7338 138.995 57.803 138.065 56.6654 138.065Z" fill="white"/>
<path d="M65.2494 138.065C64.1117 138.065 63.2844 138.995 63.2844 140.03C63.2844 141.167 64.2152 141.995 65.2494 141.995C66.387 141.995 67.2144 141.064 67.2144 140.03C67.2144 138.995 66.387 138.065 65.2494 138.065Z" fill="white"/>
<path d="M73.8334 138.065C72.6958 138.065 71.8684 138.995 71.8684 140.03C71.8684 141.167 72.7992 141.995 73.8334 141.995C74.9711 141.995 75.7984 141.064 75.7984 140.03C75.7984 138.995 74.8676 138.065 73.8334 138.065Z" fill="white"/>
<path d="M82.314 138.065C81.1764 138.065 80.349 138.995 80.349 140.03C80.349 141.167 81.2798 141.995 82.314 141.995C83.4517 141.995 84.279 141.064 84.279 140.03C84.279 138.995 83.4517 138.065 82.314 138.065Z" fill="white"/>
<path d="M90.8981 138.065C89.7604 138.065 88.933 138.995 88.933 140.03C88.933 141.167 89.8638 141.995 90.8981 141.995C92.0357 141.995 92.8631 141.064 92.8631 140.03C92.8631 138.995 92.0357 138.065 90.8981 138.065Z" fill="white"/>
<path d="M99.482 138.065C98.3444 138.065 97.517 138.995 97.517 140.03C97.517 141.167 98.4478 141.995 99.482 141.995C100.62 141.995 101.447 141.064 101.447 140.03C101.447 138.995 100.516 138.065 99.482 138.065Z" fill="white"/>
<path d="M107.963 138.065C106.825 138.065 105.998 138.995 105.998 140.03C105.998 141.167 106.928 141.995 107.963 141.995C109.1 141.995 109.928 141.064 109.928 140.03C109.928 138.995 109.1 138.065 107.963 138.065Z" fill="white"/>
<path d="M116.547 138.065C115.409 138.065 114.582 138.995 114.582 140.03C114.582 141.167 115.512 141.995 116.547 141.995C117.684 141.995 118.512 141.064 118.512 140.03C118.512 138.995 117.581 138.065 116.547 138.065Z" fill="white"/>
<path d="M125.027 138.065C123.89 138.065 123.062 138.995 123.062 140.03C123.062 141.167 123.993 141.995 125.027 141.995C126.165 141.995 126.992 141.064 126.992 140.03C127.096 138.995 126.165 138.065 125.027 138.065Z" fill="white"/>
<path d="M31.0168 150.579C32.102 150.579 32.9818 149.699 32.9818 148.614C32.9818 147.528 32.102 146.649 31.0168 146.649C29.9315 146.649 29.0518 147.528 29.0518 148.614C29.0518 149.699 29.9315 150.579 31.0168 150.579Z" fill="white"/>
<path d="M39.6008 146.649C38.4631 146.649 37.6357 147.579 37.6357 148.614C37.6357 149.751 38.5665 150.579 39.6008 150.579C40.7384 150.579 41.5658 149.648 41.5658 148.614C41.5658 147.579 40.7384 146.649 39.6008 146.649Z" fill="white"/>
<path d="M48.1848 146.649C47.0472 146.649 46.2198 147.579 46.2198 148.614C46.2198 149.751 47.1506 150.579 48.1848 150.579C49.3224 150.579 50.1498 149.648 50.1498 148.614C50.1498 147.579 49.219 146.649 48.1848 146.649Z" fill="white"/>
<path d="M56.6654 146.649C55.5278 146.649 54.7004 147.579 54.7004 148.614C54.7004 149.751 55.6312 150.579 56.6654 150.579C57.803 150.579 58.6304 149.648 58.6304 148.614C58.7338 147.579 57.803 146.649 56.6654 146.649Z" fill="white"/>
<path d="M65.2494 146.649C64.1117 146.649 63.2844 147.579 63.2844 148.614C63.2844 149.751 64.2152 150.579 65.2494 150.579C66.387 150.579 67.2144 149.648 67.2144 148.614C67.2144 147.579 66.387 146.649 65.2494 146.649Z" fill="white"/>
<path d="M73.8334 146.649C72.6958 146.649 71.8684 147.579 71.8684 148.614C71.8684 149.751 72.7992 150.579 73.8334 150.579C74.9711 150.579 75.7984 149.648 75.7984 148.614C75.7984 147.579 74.8676 146.649 73.8334 146.649Z" fill="white"/>
<path d="M82.314 146.649C81.1764 146.649 80.349 147.579 80.349 148.614C80.349 149.751 81.2798 150.579 82.314 150.579C83.4517 150.579 84.279 149.648 84.279 148.614C84.279 147.579 83.4517 146.649 82.314 146.649Z" fill="white"/>
<path d="M90.8981 146.649C89.7604 146.649 88.933 147.579 88.933 148.614C88.933 149.751 89.8638 150.579 90.8981 150.579C92.0357 150.579 92.8631 149.648 92.8631 148.614C92.8631 147.579 92.0357 146.649 90.8981 146.649Z" fill="white"/>
<path d="M99.482 146.649C98.3444 146.649 97.517 147.579 97.517 148.614C97.517 149.751 98.4478 150.579 99.482 150.579C100.62 150.579 101.447 149.648 101.447 148.614C101.447 147.579 100.516 146.649 99.482 146.649Z" fill="white"/>
<path d="M107.963 146.649C106.825 146.649 105.998 147.579 105.998 148.614C105.998 149.751 106.928 150.579 107.963 150.579C109.1 150.579 109.928 149.648 109.928 148.614C109.928 147.579 109.1 146.649 107.963 146.649Z" fill="white"/>
<path d="M116.547 146.649C115.409 146.649 114.582 147.579 114.582 148.614C114.582 149.751 115.512 150.579 116.547 150.579C117.684 150.579 118.512 149.648 118.512 148.614C118.512 147.579 117.581 146.649 116.547 146.649Z" fill="white"/>
<path d="M125.027 146.649C123.89 146.649 123.062 147.579 123.062 148.614C123.062 149.751 123.993 150.579 125.027 150.579C126.165 150.579 126.992 149.648 126.992 148.614C127.096 147.579 126.165 146.649 125.027 146.649Z" fill="white"/>
<path d="M31.0168 155.233C29.8791 155.233 29.0518 156.163 29.0518 157.198C29.0518 158.335 29.9826 159.163 31.0168 159.163C32.1544 159.163 32.9818 158.232 32.9818 157.198C33.0852 156.06 32.1544 155.233 31.0168 155.233Z" fill="white"/>
<path d="M39.6008 155.233C38.4631 155.233 37.6357 156.163 37.6357 157.198C37.6357 158.335 38.5665 159.163 39.6008 159.163C40.7384 159.163 41.5658 158.232 41.5658 157.198C41.5658 156.06 40.7384 155.233 39.6008 155.233Z" fill="white"/>
<path d="M48.1848 155.233C47.0472 155.233 46.2198 156.163 46.2198 157.198C46.2198 158.335 47.1506 159.163 48.1848 159.163C49.3224 159.163 50.1498 158.232 50.1498 157.198C50.1498 156.06 49.219 155.233 48.1848 155.233Z" fill="white"/>
<path d="M56.6654 155.233C55.5278 155.233 54.7004 156.163 54.7004 157.198C54.7004 158.335 55.6312 159.163 56.6654 159.163C57.803 159.163 58.6304 158.232 58.6304 157.198C58.7338 156.06 57.803 155.233 56.6654 155.233Z" fill="white"/>
<path d="M65.2494 155.233C64.1117 155.233 63.2844 156.163 63.2844 157.198C63.2844 158.335 64.2152 159.163 65.2494 159.163C66.387 159.163 67.2144 158.232 67.2144 157.198C67.2144 156.06 66.387 155.233 65.2494 155.233Z" fill="white"/>
<path d="M73.8334 155.233C72.6958 155.233 71.8684 156.163 71.8684 157.198C71.8684 158.335 72.7992 159.163 73.8334 159.163C74.9711 159.163 75.7984 158.232 75.7984 157.198C75.7984 156.06 74.8676 155.233 73.8334 155.233Z" fill="white"/>
<path d="M82.314 155.233C81.1764 155.233 80.349 156.163 80.349 157.198C80.349 158.335 81.2798 159.163 82.314 159.163C83.4517 159.163 84.279 158.232 84.279 157.198C84.279 156.06 83.4517 155.233 82.314 155.233Z" fill="white"/>
<path d="M90.8981 155.233C89.7604 155.233 88.933 156.163 88.933 157.198C88.933 158.335 89.8638 159.163 90.8981 159.163C92.0357 159.163 92.8631 158.232 92.8631 157.198C92.8631 156.06 92.0357 155.233 90.8981 155.233Z" fill="white"/>
<path d="M99.482 155.233C98.3444 155.233 97.517 156.163 97.517 157.198C97.517 158.335 98.4478 159.163 99.482 159.163C100.62 159.163 101.447 158.232 101.447 157.198C101.447 156.06 100.516 155.233 99.482 155.233Z" fill="white"/>
<path d="M107.963 155.233C106.825 155.233 105.998 156.163 105.998 157.198C105.998 158.335 106.928 159.163 107.963 159.163C109.1 159.163 109.928 158.232 109.928 157.198C109.928 156.06 109.1 155.233 107.963 155.233Z" fill="white"/>
<path d="M116.547 155.233C115.409 155.233 114.582 156.163 114.582 157.198C114.582 158.335 115.512 159.163 116.547 159.163C117.684 159.163 118.512 158.232 118.512 157.198C118.512 156.06 117.581 155.233 116.547 155.233Z" fill="white"/>
<path d="M125.027 155.233C123.89 155.233 123.062 156.163 123.062 157.198C123.062 158.335 123.993 159.163 125.027 159.163C126.165 159.163 126.992 158.232 126.992 157.198C127.096 156.06 126.165 155.233 125.027 155.233Z" fill="white"/>
<path d="M31.0168 163.713C29.9826 163.713 29.0518 164.644 29.0518 165.782C29.0518 166.816 29.9826 167.747 31.0168 167.747C32.1544 167.747 32.9818 166.816 32.9818 165.782C33.0852 164.644 32.1544 163.713 31.0168 163.713Z" fill="white"/>
<path d="M39.6008 163.713C38.4631 163.713 37.6357 164.644 37.6357 165.678C37.6357 166.816 38.5665 167.643 39.6008 167.643C40.7384 167.643 41.5658 166.712 41.5658 165.678C41.5658 164.644 40.7384 163.713 39.6008 163.713Z" fill="white"/>
<path d="M48.1848 163.713C47.0472 163.713 46.2198 164.644 46.2198 165.678C46.2198 166.816 47.1506 167.643 48.1848 167.643C49.3224 167.643 50.1498 166.712 50.1498 165.678C50.1498 164.644 49.219 163.713 48.1848 163.713Z" fill="white"/>
<path d="M56.6654 163.713C55.5278 163.713 54.7004 164.644 54.7004 165.678C54.7004 166.816 55.6312 167.643 56.6654 167.643C57.803 167.643 58.6304 166.712 58.6304 165.678C58.7338 164.644 57.803 163.713 56.6654 163.713Z" fill="white"/>
<path d="M65.2494 163.713C64.1117 163.713 63.2844 164.644 63.2844 165.678C63.2844 166.816 64.2152 167.643 65.2494 167.643C66.387 167.643 67.2144 166.712 67.2144 165.678C67.2144 164.644 66.387 163.713 65.2494 163.713Z" fill="white"/>
<path d="M73.8334 163.713C72.6958 163.713 71.8684 164.644 71.8684 165.678C71.8684 166.816 72.7992 167.643 73.8334 167.643C74.9711 167.643 75.7984 166.712 75.7984 165.678C75.7984 164.644 74.8676 163.713 73.8334 163.713Z" fill="white"/>
<path d="M82.314 163.713C81.1764 163.713 80.349 164.644 80.349 165.678C80.349 166.816 81.2798 167.643 82.314 167.643C83.4517 167.643 84.279 166.712 84.279 165.678C84.279 164.644 83.4517 163.713 82.314 163.713Z" fill="white"/>
<path d="M90.8981 163.713C89.7604 163.713 88.933 164.644 88.933 165.678C88.933 166.816 89.8638 167.643 90.8981 167.643C92.0357 167.643 92.8631 166.712 92.8631 165.678C92.8631 164.644 92.0357 163.713 90.8981 163.713Z" fill="white"/>
<path d="M99.482 163.713C98.3444 163.713 97.517 164.644 97.517 165.678C97.517 166.816 98.4478 167.643 99.482 167.643C100.62 167.643 101.447 166.712 101.447 165.678C101.447 164.644 100.516 163.713 99.482 163.713Z" fill="white"/>
<path d="M107.963 163.713C106.825 163.713 105.998 164.644 105.998 165.678C105.998 166.816 106.928 167.643 107.963 167.643C109.1 167.643 109.928 166.712 109.928 165.678C109.928 164.644 109.1 163.713 107.963 163.713Z" fill="white"/>
<path d="M116.547 163.713C115.409 163.713 114.582 164.644 114.582 165.678C114.582 166.816 115.512 167.643 116.547 167.643C117.684 167.643 118.512 166.712 118.512 165.678C118.512 164.644 117.581 163.713 116.547 163.713Z" fill="white"/>
<path d="M125.027 163.713C123.89 163.713 123.062 164.644 123.062 165.678C123.062 166.816 123.993 167.643 125.027 167.643C126.165 167.643 126.992 166.712 126.992 165.678C127.096 164.644 126.165 163.713 125.027 163.713Z" fill="white"/>
<path d="M31.0168 172.297C29.8791 172.297 29.0518 173.228 29.0518 174.262C29.0518 175.296 29.9826 176.227 31.0168 176.227C32.1544 176.227 32.9818 175.296 32.9818 174.262C32.9818 173.228 32.1544 172.297 31.0168 172.297Z" fill="white"/>
<path d="M39.6008 172.297C38.4631 172.297 37.6357 173.228 37.6357 174.262C37.6357 175.296 38.5665 176.227 39.6008 176.227C40.7384 176.227 41.5658 175.296 41.5658 174.262C41.5658 173.228 40.7384 172.297 39.6008 172.297Z" fill="white"/>
<path d="M48.1848 172.297C47.0472 172.297 46.2198 173.228 46.2198 174.262C46.2198 175.296 47.1506 176.227 48.1848 176.227C49.3224 176.227 50.1498 175.296 50.1498 174.262C50.1498 173.228 49.219 172.297 48.1848 172.297Z" fill="white"/>
<path d="M56.6654 172.297C55.5278 172.297 54.7004 173.228 54.7004 174.262C54.7004 175.296 55.6312 176.227 56.6654 176.227C57.803 176.227 58.6304 175.296 58.6304 174.262C58.6304 173.228 57.803 172.297 56.6654 172.297Z" fill="white"/>
<path d="M65.2494 172.297C64.1117 172.297 63.2844 173.228 63.2844 174.262C63.2844 175.296 64.2152 176.227 65.2494 176.227C66.387 176.227 67.2144 175.296 67.2144 174.262C67.2144 173.228 66.387 172.297 65.2494 172.297Z" fill="white"/>
<path d="M73.8334 172.297C72.6958 172.297 71.8684 173.228 71.8684 174.262C71.8684 175.296 72.7992 176.227 73.8334 176.227C74.9711 176.227 75.7984 175.296 75.7984 174.262C75.7984 173.228 74.8676 172.297 73.8334 172.297Z" fill="white"/>
<path d="M82.314 172.297C81.1764 172.297 80.349 173.228 80.349 174.262C80.349 175.296 81.2798 176.227 82.314 176.227C83.4517 176.227 84.279 175.296 84.279 174.262C84.279 173.228 83.4517 172.297 82.314 172.297Z" fill="white"/>
<path d="M90.8981 172.297C89.7604 172.297 88.933 173.228 88.933 174.262C88.933 175.296 89.8638 176.227 90.8981 176.227C92.0357 176.227 92.8631 175.296 92.8631 174.262C92.8631 173.228 92.0357 172.297 90.8981 172.297Z" fill="white"/>
<path d="M99.482 172.297C98.3444 172.297 97.517 173.228 97.517 174.262C97.517 175.296 98.4478 176.227 99.482 176.227C100.62 176.227 101.447 175.296 101.447 174.262C101.447 173.228 100.516 172.297 99.482 172.297Z" fill="white"/>
<path d="M107.963 172.297C106.825 172.297 105.998 173.228 105.998 174.262C105.998 175.296 106.928 176.227 107.963 176.227C109.1 176.227 109.928 175.296 109.928 174.262C109.928 173.228 109.1 172.297 107.963 172.297Z" fill="white"/>
<path d="M116.547 172.297C115.409 172.297 114.582 173.228 114.582 174.262C114.582 175.296 115.512 176.227 116.547 176.227C117.684 176.227 118.512 175.296 118.512 174.262C118.512 173.228 117.581 172.297 116.547 172.297Z" fill="white"/>
<path d="M125.027 172.297C123.89 172.297 123.062 173.228 123.062 174.262C123.062 175.296 123.993 176.227 125.027 176.227C126.165 176.227 126.992 175.296 126.992 174.262C126.992 173.228 126.165 172.297 125.027 172.297Z" fill="white"/>
<path d="M31.0168 180.881C29.8791 180.881 29.0518 181.812 29.0518 182.846C29.0518 183.984 29.9826 184.811 31.0168 184.811C32.1544 184.811 32.9818 183.88 32.9818 182.846C33.0852 181.709 32.1544 180.881 31.0168 180.881Z" fill="white"/>
<path d="M39.6008 180.881C38.4631 180.881 37.6357 181.812 37.6357 182.846C37.6357 183.984 38.5665 184.811 39.6008 184.811C40.7384 184.811 41.5658 183.88 41.5658 182.846C41.5658 181.709 40.7384 180.881 39.6008 180.881Z" fill="white"/>
<path d="M48.1848 180.881C47.0472 180.881 46.2198 181.812 46.2198 182.846C46.2198 183.984 47.1506 184.811 48.1848 184.811C49.3224 184.811 50.1498 183.88 50.1498 182.846C50.1498 181.709 49.219 180.881 48.1848 180.881Z" fill="white"/>
<path d="M56.6654 180.881C55.5278 180.881 54.7004 181.812 54.7004 182.846C54.7004 183.984 55.6312 184.811 56.6654 184.811C57.803 184.811 58.6304 183.88 58.6304 182.846C58.7338 181.709 57.803 180.881 56.6654 180.881Z" fill="white"/>
<path d="M65.2494 180.881C64.1117 180.881 63.2844 181.812 63.2844 182.846C63.2844 183.984 64.2152 184.811 65.2494 184.811C66.387 184.811 67.2144 183.88 67.2144 182.846C67.2144 181.709 66.387 180.881 65.2494 180.881Z" fill="white"/>
<path d="M73.8334 180.881C72.6958 180.881 71.8684 181.812 71.8684 182.846C71.8684 183.984 72.7992 184.811 73.8334 184.811C74.9711 184.811 75.7984 183.88 75.7984 182.846C75.7984 181.709 74.8676 180.881 73.8334 180.881Z" fill="white"/>
<path d="M82.314 180.881C81.1764 180.881 80.349 181.812 80.349 182.846C80.349 183.984 81.2798 184.811 82.314 184.811C83.4517 184.811 84.279 183.88 84.279 182.846C84.279 181.709 83.4517 180.881 82.314 180.881Z" fill="white"/>
<path d="M90.8981 180.881C89.7604 180.881 88.933 181.812 88.933 182.846C88.933 183.984 89.8638 184.811 90.8981 184.811C92.0357 184.811 92.8631 183.88 92.8631 182.846C92.8631 181.709 92.0357 180.881 90.8981 180.881Z" fill="white"/>
<path d="M99.482 180.881C98.3444 180.881 97.517 181.812 97.517 182.846C97.517 183.984 98.4478 184.811 99.482 184.811C100.62 184.811 101.447 183.88 101.447 182.846C101.447 181.709 100.516 180.881 99.482 180.881Z" fill="white"/>
<path d="M107.963 180.881C106.825 180.881 105.998 181.812 105.998 182.846C105.998 183.984 106.928 184.811 107.963 184.811C109.1 184.811 109.928 183.88 109.928 182.846C109.928 181.709 109.1 180.881 107.963 180.881Z" fill="white"/>
<path d="M116.547 180.881C115.409 180.881 114.582 181.812 114.582 182.846C114.582 183.984 115.512 184.811 116.547 184.811C117.684 184.811 118.512 183.88 118.512 182.846C118.512 181.709 117.581 180.881 116.547 180.881Z" fill="white"/>
<path d="M125.027 180.881C123.89 180.881 123.062 181.812 123.062 182.846C123.062 183.984 123.993 184.811 125.027 184.811C126.165 184.811 126.992 183.88 126.992 182.846C127.096 181.709 126.165 180.881 125.027 180.881Z" fill="white"/>
<path d="M31.0168 189.362C29.8791 189.362 29.0518 190.293 29.0518 191.327C29.0518 192.464 29.9826 193.292 31.0168 193.292C32.1544 193.292 32.9818 192.361 32.9818 191.327C33.0852 190.293 32.1544 189.362 31.0168 189.362Z" fill="white"/>
<path d="M39.6008 189.362C38.4631 189.362 37.6357 190.293 37.6357 191.327C37.6357 192.464 38.5665 193.292 39.6008 193.292C40.7384 193.292 41.5658 192.361 41.5658 191.327C41.5658 190.293 40.7384 189.362 39.6008 189.362Z" fill="white"/>
<path d="M48.1848 189.362C47.0472 189.362 46.2198 190.293 46.2198 191.327C46.2198 192.464 47.1506 193.292 48.1848 193.292C49.3224 193.292 50.1498 192.361 50.1498 191.327C50.1498 190.293 49.219 189.362 48.1848 189.362Z" fill="white"/>
<path d="M56.6654 189.362C55.5278 189.362 54.7004 190.293 54.7004 191.327C54.7004 192.464 55.6312 193.292 56.6654 193.292C57.803 193.292 58.6304 192.361 58.6304 191.327C58.7338 190.293 57.803 189.362 56.6654 189.362Z" fill="white"/>
<path d="M65.2494 189.362C64.1117 189.362 63.2844 190.293 63.2844 191.327C63.2844 192.464 64.2152 193.292 65.2494 193.292C66.387 193.292 67.2144 192.361 67.2144 191.327C67.2144 190.293 66.387 189.362 65.2494 189.362Z" fill="white"/>
<path d="M73.8334 189.362C72.6958 189.362 71.8684 190.293 71.8684 191.327C71.8684 192.464 72.7992 193.292 73.8334 193.292C74.9711 193.292 75.7984 192.361 75.7984 191.327C75.7984 190.293 74.8676 189.362 73.8334 189.362Z" fill="white"/>
<path d="M82.314 189.362C81.1764 189.362 80.349 190.293 80.349 191.327C80.349 192.464 81.2798 193.292 82.314 193.292C83.4517 193.292 84.279 192.361 84.279 191.327C84.279 190.293 83.4517 189.362 82.314 189.362Z" fill="white"/>
<path d="M90.8981 189.362C89.7604 189.362 88.933 190.293 88.933 191.327C88.933 192.464 89.8638 193.292 90.8981 193.292C92.0357 193.292 92.8631 192.361 92.8631 191.327C92.8631 190.293 92.0357 189.362 90.8981 189.362Z" fill="white"/>
<path d="M99.482 189.362C98.3444 189.362 97.517 190.293 97.517 191.327C97.517 192.464 98.4478 193.292 99.482 193.292C100.62 193.292 101.447 192.361 101.447 191.327C101.447 190.293 100.516 189.362 99.482 189.362Z" fill="white"/>
<path d="M107.963 189.362C106.825 189.362 105.998 190.293 105.998 191.327C105.998 192.464 106.928 193.292 107.963 193.292C109.1 193.292 109.928 192.361 109.928 191.327C109.928 190.293 109.1 189.362 107.963 189.362Z" fill="white"/>
<path d="M116.547 189.362C115.409 189.362 114.582 190.293 114.582 191.327C114.582 192.464 115.512 193.292 116.547 193.292C117.684 193.292 118.512 192.361 118.512 191.327C118.512 190.293 117.581 189.362 116.547 189.362Z" fill="white"/>
<path d="M125.027 189.362C123.89 189.362 123.062 190.293 123.062 191.327C123.062 192.464 123.993 193.292 125.027 193.292C126.165 193.292 126.992 192.361 126.992 191.327C127.096 190.293 126.165 189.362 125.027 189.362Z" fill="white"/>
<path d="M31.0168 197.946C29.8791 197.946 29.0518 198.877 29.0518 199.911C29.0518 201.048 29.9826 201.876 31.0168 201.876C32.1544 201.876 32.9818 200.945 32.9818 199.911C33.0852 198.877 32.1544 197.946 31.0168 197.946Z" fill="white"/>
<path d="M39.6008 197.946C38.4631 197.946 37.6357 198.877 37.6357 199.911C37.6357 201.048 38.5665 201.876 39.6008 201.876C40.7384 201.876 41.5658 200.945 41.5658 199.911C41.5658 198.877 40.7384 197.946 39.6008 197.946Z" fill="white"/>
<path d="M48.1848 197.946C47.0472 197.946 46.2198 198.877 46.2198 199.911C46.2198 201.048 47.1506 201.876 48.1848 201.876C49.3224 201.876 50.1498 200.945 50.1498 199.911C50.1498 198.877 49.219 197.946 48.1848 197.946Z" fill="white"/>
<path d="M56.6654 197.946C55.5278 197.946 54.7004 198.877 54.7004 199.911C54.7004 201.048 55.6312 201.876 56.6654 201.876C57.803 201.876 58.6304 200.945 58.6304 199.911C58.7338 198.877 57.803 197.946 56.6654 197.946Z" fill="white"/>
<path d="M65.2494 197.946C64.1117 197.946 63.2844 198.877 63.2844 199.911C63.2844 201.048 64.2152 201.876 65.2494 201.876C66.387 201.876 67.2144 200.945 67.2144 199.911C67.2144 198.877 66.387 197.946 65.2494 197.946Z" fill="white"/>
<path d="M73.8334 197.946C72.6958 197.946 71.8684 198.877 71.8684 199.911C71.8684 201.048 72.7992 201.876 73.8334 201.876C74.9711 201.876 75.7984 200.945 75.7984 199.911C75.7984 198.877 74.8676 197.946 73.8334 197.946Z" fill="white"/>
<path d="M82.314 197.946C81.1764 197.946 80.349 198.877 80.349 199.911C80.349 201.048 81.2798 201.876 82.314 201.876C83.4517 201.876 84.279 200.945 84.279 199.911C84.279 198.877 83.4517 197.946 82.314 197.946Z" fill="white"/>
<path d="M90.8981 197.946C89.7604 197.946 88.933 198.877 88.933 199.911C88.933 201.048 89.8638 201.876 90.8981 201.876C92.0357 201.876 92.8631 200.945 92.8631 199.911C92.8631 198.877 92.0357 197.946 90.8981 197.946Z" fill="white"/>
<path d="M99.482 197.946C98.3444 197.946 97.517 198.877 97.517 199.911C97.517 201.048 98.4478 201.876 99.482 201.876C100.62 201.876 101.447 200.945 101.447 199.911C101.447 198.877 100.516 197.946 99.482 197.946Z" fill="white"/>
<path d="M107.963 197.946C106.825 197.946 105.998 198.877 105.998 199.911C105.998 201.048 106.928 201.876 107.963 201.876C109.1 201.876 109.928 200.945 109.928 199.911C109.928 198.877 109.1 197.946 107.963 197.946Z" fill="white"/>
<path d="M116.547 197.946C115.409 197.946 114.582 198.877 114.582 199.911C114.582 201.048 115.512 201.876 116.547 201.876C117.684 201.876 118.512 200.945 118.512 199.911C118.512 198.877 117.581 197.946 116.547 197.946Z" fill="white"/>
<path d="M125.027 197.946C123.89 197.946 123.062 198.877 123.062 199.911C123.062 201.048 123.993 201.876 125.027 201.876C126.165 201.876 126.992 200.945 126.992 199.911C127.096 198.877 126.165 197.946 125.027 197.946Z" fill="white"/>
<path d="M31.0168 121C29.9826 121 29.0518 121.931 29.0518 122.965C29.0518 124.103 29.9826 124.93 31.0168 124.93C32.1544 124.93 32.9818 123.999 32.9818 122.965C33.0852 121.931 32.1544 121 31.0168 121Z" fill="white"/>
<path d="M39.6008 121C38.4631 121 37.6357 121.931 37.6357 122.965C37.6357 124.103 38.5665 124.93 39.6008 124.93C40.7384 124.93 41.5658 123.999 41.5658 122.965C41.5658 121.931 40.7384 121 39.6008 121Z" fill="white"/>
<path d="M48.1848 121C47.0472 121 46.2198 121.931 46.2198 122.965C46.2198 124.103 47.1506 124.93 48.1848 124.93C49.3224 124.93 50.1498 123.999 50.1498 122.965C50.1498 121.931 49.219 121 48.1848 121Z" fill="white"/>
<path d="M56.6654 121C55.5278 121 54.7004 121.931 54.7004 122.965C54.7004 124.103 55.6312 124.93 56.6654 124.93C57.803 124.93 58.6304 123.999 58.6304 122.965C58.7338 121.931 57.803 121 56.6654 121Z" fill="white"/>
<path d="M65.2494 121C64.1117 121 63.2844 121.931 63.2844 122.965C63.2844 124.103 64.2152 124.93 65.2494 124.93C66.387 124.93 67.2144 123.999 67.2144 122.965C67.2144 121.931 66.387 121 65.2494 121Z" fill="white"/>
<path d="M73.8334 121C72.6958 121 71.8684 121.931 71.8684 122.965C71.8684 124.103 72.7992 124.93 73.8334 124.93C74.9711 124.93 75.7984 123.999 75.7984 122.965C75.7984 121.931 74.8676 121 73.8334 121Z" fill="white"/>
<path d="M82.314 121C81.1764 121 80.349 121.931 80.349 122.965C80.349 124.103 81.2798 124.93 82.314 124.93C83.4517 124.93 84.279 123.999 84.279 122.965C84.279 121.931 83.4517 121 82.314 121Z" fill="white"/>
<path d="M90.8981 121C89.7604 121 88.933 121.931 88.933 122.965C88.933 124.103 89.8638 124.93 90.8981 124.93C92.0357 124.93 92.8631 123.999 92.8631 122.965C92.8631 121.931 92.0357 121 90.8981 121Z" fill="white"/>
<path d="M99.482 121C98.3444 121 97.517 121.931 97.517 122.965C97.517 124.103 98.4478 124.93 99.482 124.93C100.62 124.93 101.447 123.999 101.447 122.965C101.447 121.931 100.516 121 99.482 121Z" fill="white"/>
<path d="M107.963 121C106.825 121 105.998 121.931 105.998 122.965C105.998 124.103 106.928 124.93 107.963 124.93C109.1 124.93 109.928 123.999 109.928 122.965C109.928 121.931 109.1 121 107.963 121Z" fill="white"/>
<path d="M116.547 121C115.409 121 114.582 121.931 114.582 122.965C114.582 124.103 115.512 124.93 116.547 124.93C117.684 124.93 118.512 123.999 118.512 122.965C118.512 121.931 117.581 121 116.547 121Z" fill="white"/>
<path d="M125.027 125.033C126.165 125.033 126.992 124.103 126.992 123.068C126.992 121.931 126.061 121.103 125.027 121.103C123.89 121.103 123.062 122.034 123.062 123.068C123.062 124.103 123.993 125.033 125.027 125.033Z" fill="white"/>
<path d="M31.0168 129.584C29.9826 129.584 29.0518 130.411 29.0518 131.549C29.0518 132.687 29.9826 133.514 31.0168 133.514C32.1544 133.514 32.9818 132.583 32.9818 131.549C33.0852 130.411 32.1544 129.584 31.0168 129.584Z" fill="white"/>
<path d="M39.6008 129.584C38.4631 129.584 37.6357 130.515 37.6357 131.549C37.6357 132.687 38.5665 133.514 39.6008 133.514C40.7384 133.514 41.5658 132.583 41.5658 131.549C41.5658 130.411 40.7384 129.584 39.6008 129.584Z" fill="white"/>
<path d="M48.1848 129.584C47.0472 129.584 46.2198 130.515 46.2198 131.549C46.2198 132.687 47.1506 133.514 48.1848 133.514C49.3224 133.514 50.1498 132.583 50.1498 131.549C50.1498 130.411 49.219 129.584 48.1848 129.584Z" fill="white"/>
<path d="M56.6654 129.584C55.5278 129.584 54.7004 130.515 54.7004 131.549C54.7004 132.687 55.6312 133.514 56.6654 133.514C57.803 133.514 58.6304 132.583 58.6304 131.549C58.7338 130.411 57.803 129.584 56.6654 129.584Z" fill="white"/>
<path d="M65.2494 129.584C64.1117 129.584 63.2844 130.515 63.2844 131.549C63.2844 132.687 64.2152 133.514 65.2494 133.514C66.387 133.514 67.2144 132.583 67.2144 131.549C67.2144 130.411 66.387 129.584 65.2494 129.584Z" fill="white"/>
<path d="M73.8334 129.584C72.6958 129.584 71.8684 130.515 71.8684 131.549C71.8684 132.687 72.7992 133.514 73.8334 133.514C74.9711 133.514 75.7984 132.583 75.7984 131.549C75.7984 130.411 74.8676 129.584 73.8334 129.584Z" fill="white"/>
<path d="M82.314 129.584C81.1764 129.584 80.349 130.515 80.349 131.549C80.349 132.687 81.2798 133.514 82.314 133.514C83.4517 133.514 84.279 132.583 84.279 131.549C84.279 130.411 83.4517 129.584 82.314 129.584Z" fill="white"/>
<path d="M90.8981 129.584C89.7604 129.584 88.933 130.515 88.933 131.549C88.933 132.687 89.8638 133.514 90.8981 133.514C92.0357 133.514 92.8631 132.583 92.8631 131.549C92.8631 130.411 92.0357 129.584 90.8981 129.584Z" fill="white"/>
<path d="M99.482 129.584C98.3444 129.584 97.517 130.515 97.517 131.549C97.517 132.687 98.4478 133.514 99.482 133.514C100.62 133.514 101.447 132.583 101.447 131.549C101.447 130.411 100.516 129.584 99.482 129.584Z" fill="white"/>
<path d="M107.963 129.584C106.825 129.584 105.998 130.515 105.998 131.549C105.998 132.687 106.928 133.514 107.963 133.514C109.1 133.514 109.928 132.583 109.928 131.549C109.928 130.411 109.1 129.584 107.963 129.584Z" fill="white"/>
<path d="M116.547 129.584C115.409 129.584 114.582 130.515 114.582 131.549C114.582 132.687 115.512 133.514 116.547 133.514C117.684 133.514 118.512 132.583 118.512 131.549C118.512 130.411 117.581 129.584 116.547 129.584Z" fill="white"/>
<path d="M125.027 129.584C123.89 129.584 123.062 130.515 123.062 131.549C123.062 132.687 123.993 133.514 125.027 133.514C126.165 133.514 126.992 132.583 126.992 131.549C127.096 130.411 126.165 129.584 125.027 129.584Z" fill="white"/>
<path d="M31.0168 138.065C29.8791 138.065 29.0518 138.995 29.0518 140.03C29.0518 141.167 29.9826 141.995 31.0168 141.995C32.1544 141.995 32.9818 141.064 32.9818 140.03C33.0852 138.995 32.1544 138.065 31.0168 138.065Z" fill="white"/>
<path d="M39.6008 138.065C38.4631 138.065 37.6357 138.995 37.6357 140.03C37.6357 141.167 38.5665 141.995 39.6008 141.995C40.7384 141.995 41.5658 141.064 41.5658 140.03C41.5658 138.995 40.7384 138.065 39.6008 138.065Z" fill="white"/>
<path d="M48.1848 138.065C47.0472 138.065 46.2198 138.995 46.2198 140.03C46.2198 141.167 47.1506 141.995 48.1848 141.995C49.3224 141.995 50.1498 141.064 50.1498 140.03C50.1498 138.995 49.219 138.065 48.1848 138.065Z" fill="white"/>
<path d="M56.6654 138.065C55.5278 138.065 54.7004 138.995 54.7004 140.03C54.7004 141.167 55.6312 141.995 56.6654 141.995C57.803 141.995 58.6304 141.064 58.6304 140.03C58.7338 138.995 57.803 138.065 56.6654 138.065Z" fill="white"/>
<path d="M65.2494 138.065C64.1117 138.065 63.2844 138.995 63.2844 140.03C63.2844 141.167 64.2152 141.995 65.2494 141.995C66.387 141.995 67.2144 141.064 67.2144 140.03C67.2144 138.995 66.387 138.065 65.2494 138.065Z" fill="white"/>
<path d="M73.8334 138.065C72.6958 138.065 71.8684 138.995 71.8684 140.03C71.8684 141.167 72.7992 141.995 73.8334 141.995C74.9711 141.995 75.7984 141.064 75.7984 140.03C75.7984 138.995 74.8676 138.065 73.8334 138.065Z" fill="white"/>
<path d="M82.314 138.065C81.1764 138.065 80.349 138.995 80.349 140.03C80.349 141.167 81.2798 141.995 82.314 141.995C83.4517 141.995 84.279 141.064 84.279 140.03C84.279 138.995 83.4517 138.065 82.314 138.065Z" fill="white"/>
<path d="M90.8981 138.065C89.7604 138.065 88.933 138.995 88.933 140.03C88.933 141.167 89.8638 141.995 90.8981 141.995C92.0357 141.995 92.8631 141.064 92.8631 140.03C92.8631 138.995 92.0357 138.065 90.8981 138.065Z" fill="white"/>
<path d="M99.482 138.065C98.3444 138.065 97.517 138.995 97.517 140.03C97.517 141.167 98.4478 141.995 99.482 141.995C100.62 141.995 101.447 141.064 101.447 140.03C101.447 138.995 100.516 138.065 99.482 138.065Z" fill="white"/>
<path d="M107.963 138.065C106.825 138.065 105.998 138.995 105.998 140.03C105.998 141.167 106.928 141.995 107.963 141.995C109.1 141.995 109.928 141.064 109.928 140.03C109.928 138.995 109.1 138.065 107.963 138.065Z" fill="white"/>
<path d="M116.547 138.065C115.409 138.065 114.582 138.995 114.582 140.03C114.582 141.167 115.512 141.995 116.547 141.995C117.684 141.995 118.512 141.064 118.512 140.03C118.512 138.995 117.581 138.065 116.547 138.065Z" fill="white"/>
<path d="M125.027 138.065C123.89 138.065 123.062 138.995 123.062 140.03C123.062 141.167 123.993 141.995 125.027 141.995C126.165 141.995 126.992 141.064 126.992 140.03C127.096 138.995 126.165 138.065 125.027 138.065Z" fill="white"/>
<path d="M31.0679 150.58C32.1528 150.552 33.0092 149.649 32.9806 148.564C32.9521 147.479 32.0495 146.623 30.9645 146.651C29.8796 146.68 29.0232 147.583 29.0518 148.667C29.0803 149.752 29.9829 150.609 31.0679 150.58Z" fill="white"/>
<path d="M39.6008 146.649C38.4631 146.649 37.6357 147.579 37.6357 148.614C37.6357 149.751 38.5665 150.579 39.6008 150.579C40.7384 150.579 41.5658 149.648 41.5658 148.614C41.5658 147.579 40.7384 146.649 39.6008 146.649Z" fill="white"/>
<path d="M48.1848 146.649C47.0472 146.649 46.2198 147.579 46.2198 148.614C46.2198 149.751 47.1506 150.579 48.1848 150.579C49.3224 150.579 50.1498 149.648 50.1498 148.614C50.1498 147.579 49.219 146.649 48.1848 146.649Z" fill="white"/>
<path d="M56.6654 146.649C55.5278 146.649 54.7004 147.579 54.7004 148.614C54.7004 149.751 55.6312 150.579 56.6654 150.579C57.803 150.579 58.6304 149.648 58.6304 148.614C58.7338 147.579 57.803 146.649 56.6654 146.649Z" fill="white"/>
<path d="M65.2494 146.649C64.1117 146.649 63.2844 147.579 63.2844 148.614C63.2844 149.751 64.2152 150.579 65.2494 150.579C66.387 150.579 67.2144 149.648 67.2144 148.614C67.2144 147.579 66.387 146.649 65.2494 146.649Z" fill="white"/>
<path d="M73.8334 146.649C72.6958 146.649 71.8684 147.579 71.8684 148.614C71.8684 149.751 72.7992 150.579 73.8334 150.579C74.9711 150.579 75.7984 149.648 75.7984 148.614C75.7984 147.579 74.8676 146.649 73.8334 146.649Z" fill="white"/>
<path d="M82.314 146.649C81.1764 146.649 80.349 147.579 80.349 148.614C80.349 149.751 81.2798 150.579 82.314 150.579C83.4517 150.579 84.279 149.648 84.279 148.614C84.279 147.579 83.4517 146.649 82.314 146.649Z" fill="white"/>
<path d="M90.8981 146.649C89.7604 146.649 88.933 147.579 88.933 148.614C88.933 149.751 89.8638 150.579 90.8981 150.579C92.0357 150.579 92.8631 149.648 92.8631 148.614C92.8631 147.579 92.0357 146.649 90.8981 146.649Z" fill="white"/>
<path d="M99.482 146.649C98.3444 146.649 97.517 147.579 97.517 148.614C97.517 149.751 98.4478 150.579 99.482 150.579C100.62 150.579 101.447 149.648 101.447 148.614C101.447 147.579 100.516 146.649 99.482 146.649Z" fill="white"/>
<path d="M107.963 146.649C106.825 146.649 105.998 147.579 105.998 148.614C105.998 149.751 106.928 150.579 107.963 150.579C109.1 150.579 109.928 149.648 109.928 148.614C109.928 147.579 109.1 146.649 107.963 146.649Z" fill="white"/>
<path d="M116.547 146.649C115.409 146.649 114.582 147.579 114.582 148.614C114.582 149.751 115.512 150.579 116.547 150.579C117.684 150.579 118.512 149.648 118.512 148.614C118.512 147.579 117.581 146.649 116.547 146.649Z" fill="white"/>
<path d="M125.027 146.649C123.89 146.649 123.062 147.579 123.062 148.614C123.062 149.751 123.993 150.579 125.027 150.579C126.165 150.579 126.992 149.648 126.992 148.614C127.096 147.579 126.165 146.649 125.027 146.649Z" fill="white"/>
<path d="M31.0168 155.233C29.8791 155.233 29.0518 156.163 29.0518 157.198C29.0518 158.335 29.9826 159.163 31.0168 159.163C32.1544 159.163 32.9818 158.232 32.9818 157.198C33.0852 156.06 32.1544 155.233 31.0168 155.233Z" fill="white"/>
<path d="M39.6008 155.233C38.4631 155.233 37.6357 156.163 37.6357 157.198C37.6357 158.335 38.5665 159.163 39.6008 159.163C40.7384 159.163 41.5658 158.232 41.5658 157.198C41.5658 156.06 40.7384 155.233 39.6008 155.233Z" fill="white"/>
<path d="M48.1848 155.233C47.0472 155.233 46.2198 156.163 46.2198 157.198C46.2198 158.335 47.1506 159.163 48.1848 159.163C49.3224 159.163 50.1498 158.232 50.1498 157.198C50.1498 156.06 49.219 155.233 48.1848 155.233Z" fill="white"/>
<path d="M56.6654 155.233C55.5278 155.233 54.7004 156.163 54.7004 157.198C54.7004 158.335 55.6312 159.163 56.6654 159.163C57.803 159.163 58.6304 158.232 58.6304 157.198C58.7338 156.06 57.803 155.233 56.6654 155.233Z" fill="white"/>
<path d="M65.2494 155.233C64.1117 155.233 63.2844 156.163 63.2844 157.198C63.2844 158.335 64.2152 159.163 65.2494 159.163C66.387 159.163 67.2144 158.232 67.2144 157.198C67.2144 156.06 66.387 155.233 65.2494 155.233Z" fill="white"/>
<path d="M73.8334 155.233C72.6958 155.233 71.8684 156.163 71.8684 157.198C71.8684 158.335 72.7992 159.163 73.8334 159.163C74.9711 159.163 75.7984 158.232 75.7984 157.198C75.7984 156.06 74.8676 155.233 73.8334 155.233Z" fill="white"/>
<path d="M82.314 155.233C81.1764 155.233 80.349 156.163 80.349 157.198C80.349 158.335 81.2798 159.163 82.314 159.163C83.4517 159.163 84.279 158.232 84.279 157.198C84.279 156.06 83.4517 155.233 82.314 155.233Z" fill="white"/>
<path d="M90.8981 155.233C89.7604 155.233 88.933 156.163 88.933 157.198C88.933 158.335 89.8638 159.163 90.8981 159.163C92.0357 159.163 92.8631 158.232 92.8631 157.198C92.8631 156.06 92.0357 155.233 90.8981 155.233Z" fill="white"/>
<path d="M99.482 155.233C98.3444 155.233 97.517 156.163 97.517 157.198C97.517 158.335 98.4478 159.163 99.482 159.163C100.62 159.163 101.447 158.232 101.447 157.198C101.447 156.06 100.516 155.233 99.482 155.233Z" fill="white"/>
<path d="M107.963 155.233C106.825 155.233 105.998 156.163 105.998 157.198C105.998 158.335 106.928 159.163 107.963 159.163C109.1 159.163 109.928 158.232 109.928 157.198C109.928 156.06 109.1 155.233 107.963 155.233Z" fill="white"/>
<path d="M116.547 155.233C115.409 155.233 114.582 156.163 114.582 157.198C114.582 158.335 115.512 159.163 116.547 159.163C117.684 159.163 118.512 158.232 118.512 157.198C118.512 156.06 117.581 155.233 116.547 155.233Z" fill="white"/>
<path d="M125.027 155.233C123.89 155.233 123.062 156.163 123.062 157.198C123.062 158.335 123.993 159.163 125.027 159.163C126.165 159.163 126.992 158.232 126.992 157.198C127.096 156.06 126.165 155.233 125.027 155.233Z" fill="white"/>
<path d="M31.0168 163.713C29.9826 163.713 29.0518 164.644 29.0518 165.782C29.0518 166.816 29.9826 167.747 31.0168 167.747C32.1544 167.747 32.9818 166.816 32.9818 165.782C33.0852 164.644 32.1544 163.713 31.0168 163.713Z" fill="white"/>
<path d="M39.6008 163.713C38.4631 163.713 37.6357 164.644 37.6357 165.678C37.6357 166.816 38.5665 167.643 39.6008 167.643C40.7384 167.643 41.5658 166.712 41.5658 165.678C41.5658 164.644 40.7384 163.713 39.6008 163.713Z" fill="white"/>
<path d="M48.1848 163.713C47.0472 163.713 46.2198 164.644 46.2198 165.678C46.2198 166.816 47.1506 167.643 48.1848 167.643C49.3224 167.643 50.1498 166.712 50.1498 165.678C50.1498 164.644 49.219 163.713 48.1848 163.713Z" fill="white"/>
<path d="M56.6654 163.713C55.5278 163.713 54.7004 164.644 54.7004 165.678C54.7004 166.816 55.6312 167.643 56.6654 167.643C57.803 167.643 58.6304 166.712 58.6304 165.678C58.7338 164.644 57.803 163.713 56.6654 163.713Z" fill="white"/>
<path d="M65.2494 163.713C64.1117 163.713 63.2844 164.644 63.2844 165.678C63.2844 166.816 64.2152 167.643 65.2494 167.643C66.387 167.643 67.2144 166.712 67.2144 165.678C67.2144 164.644 66.387 163.713 65.2494 163.713Z" fill="white"/>
<path d="M73.8334 163.713C72.6958 163.713 71.8684 164.644 71.8684 165.678C71.8684 166.816 72.7992 167.643 73.8334 167.643C74.9711 167.643 75.7984 166.712 75.7984 165.678C75.7984 164.644 74.8676 163.713 73.8334 163.713Z" fill="white"/>
<path d="M82.314 163.713C81.1764 163.713 80.349 164.644 80.349 165.678C80.349 166.816 81.2798 167.643 82.314 167.643C83.4517 167.643 84.279 166.712 84.279 165.678C84.279 164.644 83.4517 163.713 82.314 163.713Z" fill="white"/>
<path d="M90.8981 163.713C89.7604 163.713 88.933 164.644 88.933 165.678C88.933 166.816 89.8638 167.643 90.8981 167.643C92.0357 167.643 92.8631 166.712 92.8631 165.678C92.8631 164.644 92.0357 163.713 90.8981 163.713Z" fill="white"/>
<path d="M99.482 163.713C98.3444 163.713 97.517 164.644 97.517 165.678C97.517 166.816 98.4478 167.643 99.482 167.643C100.62 167.643 101.447 166.712 101.447 165.678C101.447 164.644 100.516 163.713 99.482 163.713Z" fill="white"/>
<path d="M107.963 163.713C106.825 163.713 105.998 164.644 105.998 165.678C105.998 166.816 106.928 167.643 107.963 167.643C109.1 167.643 109.928 166.712 109.928 165.678C109.928 164.644 109.1 163.713 107.963 163.713Z" fill="white"/>
<path d="M116.547 163.713C115.409 163.713 114.582 164.644 114.582 165.678C114.582 166.816 115.512 167.643 116.547 167.643C117.684 167.643 118.512 166.712 118.512 165.678C118.512 164.644 117.581 163.713 116.547 163.713Z" fill="white"/>
<path d="M125.027 163.713C123.89 163.713 123.062 164.644 123.062 165.678C123.062 166.816 123.993 167.643 125.027 167.643C126.165 167.643 126.992 166.712 126.992 165.678C127.096 164.644 126.165 163.713 125.027 163.713Z" fill="white"/>
<path d="M31.0168 172.297C29.8791 172.297 29.0518 173.228 29.0518 174.262C29.0518 175.296 29.9826 176.227 31.0168 176.227C32.1544 176.227 32.9818 175.296 32.9818 174.262C32.9818 173.228 32.1544 172.297 31.0168 172.297Z" fill="white"/>
<path d="M39.6008 172.297C38.4631 172.297 37.6357 173.228 37.6357 174.262C37.6357 175.296 38.5665 176.227 39.6008 176.227C40.7384 176.227 41.5658 175.296 41.5658 174.262C41.5658 173.228 40.7384 172.297 39.6008 172.297Z" fill="white"/>
<path d="M48.1848 172.297C47.0472 172.297 46.2198 173.228 46.2198 174.262C46.2198 175.296 47.1506 176.227 48.1848 176.227C49.3224 176.227 50.1498 175.296 50.1498 174.262C50.1498 173.228 49.219 172.297 48.1848 172.297Z" fill="white"/>
<path d="M56.6654 172.297C55.5278 172.297 54.7004 173.228 54.7004 174.262C54.7004 175.296 55.6312 176.227 56.6654 176.227C57.803 176.227 58.6304 175.296 58.6304 174.262C58.6304 173.228 57.803 172.297 56.6654 172.297Z" fill="white"/>
<path d="M65.2494 172.297C64.1117 172.297 63.2844 173.228 63.2844 174.262C63.2844 175.296 64.2152 176.227 65.2494 176.227C66.387 176.227 67.2144 175.296 67.2144 174.262C67.2144 173.228 66.387 172.297 65.2494 172.297Z" fill="white"/>
<path d="M73.8334 172.297C72.6958 172.297 71.8684 173.228 71.8684 174.262C71.8684 175.296 72.7992 176.227 73.8334 176.227C74.9711 176.227 75.7984 175.296 75.7984 174.262C75.7984 173.228 74.8676 172.297 73.8334 172.297Z" fill="white"/>
<path d="M82.314 172.297C81.1764 172.297 80.349 173.228 80.349 174.262C80.349 175.296 81.2798 176.227 82.314 176.227C83.4517 176.227 84.279 175.296 84.279 174.262C84.279 173.228 83.4517 172.297 82.314 172.297Z" fill="white"/>
<path d="M90.8981 172.297C89.7604 172.297 88.933 173.228 88.933 174.262C88.933 175.296 89.8638 176.227 90.8981 176.227C92.0357 176.227 92.8631 175.296 92.8631 174.262C92.8631 173.228 92.0357 172.297 90.8981 172.297Z" fill="white"/>
<path d="M99.482 172.297C98.3444 172.297 97.517 173.228 97.517 174.262C97.517 175.296 98.4478 176.227 99.482 176.227C100.62 176.227 101.447 175.296 101.447 174.262C101.447 173.228 100.516 172.297 99.482 172.297Z" fill="white"/>
<path d="M107.963 172.297C106.825 172.297 105.998 173.228 105.998 174.262C105.998 175.296 106.928 176.227 107.963 176.227C109.1 176.227 109.928 175.296 109.928 174.262C109.928 173.228 109.1 172.297 107.963 172.297Z" fill="white"/>
<path d="M116.547 172.297C115.409 172.297 114.582 173.228 114.582 174.262C114.582 175.296 115.512 176.227 116.547 176.227C117.684 176.227 118.512 175.296 118.512 174.262C118.512 173.228 117.581 172.297 116.547 172.297Z" fill="white"/>
<path d="M125.027 172.297C123.89 172.297 123.062 173.228 123.062 174.262C123.062 175.296 123.993 176.227 125.027 176.227C126.165 176.227 126.992 175.296 126.992 174.262C126.992 173.228 126.165 172.297 125.027 172.297Z" fill="white"/>
<path d="M31.0168 180.881C29.8791 180.881 29.0518 181.812 29.0518 182.846C29.0518 183.984 29.9826 184.811 31.0168 184.811C32.1544 184.811 32.9818 183.88 32.9818 182.846C33.0852 181.709 32.1544 180.881 31.0168 180.881Z" fill="white"/>
<path d="M39.6008 180.881C38.4631 180.881 37.6357 181.812 37.6357 182.846C37.6357 183.984 38.5665 184.811 39.6008 184.811C40.7384 184.811 41.5658 183.88 41.5658 182.846C41.5658 181.709 40.7384 180.881 39.6008 180.881Z" fill="white"/>
<path d="M48.1848 180.881C47.0472 180.881 46.2198 181.812 46.2198 182.846C46.2198 183.984 47.1506 184.811 48.1848 184.811C49.3224 184.811 50.1498 183.88 50.1498 182.846C50.1498 181.709 49.219 180.881 48.1848 180.881Z" fill="white"/>
<path d="M56.6654 180.881C55.5278 180.881 54.7004 181.812 54.7004 182.846C54.7004 183.984 55.6312 184.811 56.6654 184.811C57.803 184.811 58.6304 183.88 58.6304 182.846C58.7338 181.709 57.803 180.881 56.6654 180.881Z" fill="white"/>
<path d="M65.2494 180.881C64.1117 180.881 63.2844 181.812 63.2844 182.846C63.2844 183.984 64.2152 184.811 65.2494 184.811C66.387 184.811 67.2144 183.88 67.2144 182.846C67.2144 181.709 66.387 180.881 65.2494 180.881Z" fill="white"/>
<path d="M73.8334 180.881C72.6958 180.881 71.8684 181.812 71.8684 182.846C71.8684 183.984 72.7992 184.811 73.8334 184.811C74.9711 184.811 75.7984 183.88 75.7984 182.846C75.7984 181.709 74.8676 180.881 73.8334 180.881Z" fill="white"/>
<path d="M82.314 180.881C81.1764 180.881 80.349 181.812 80.349 182.846C80.349 183.984 81.2798 184.811 82.314 184.811C83.4517 184.811 84.279 183.88 84.279 182.846C84.279 181.709 83.4517 180.881 82.314 180.881Z" fill="white"/>
<path d="M90.8981 180.881C89.7604 180.881 88.933 181.812 88.933 182.846C88.933 183.984 89.8638 184.811 90.8981 184.811C92.0357 184.811 92.8631 183.88 92.8631 182.846C92.8631 181.709 92.0357 180.881 90.8981 180.881Z" fill="white"/>
<path d="M99.482 180.881C98.3444 180.881 97.517 181.812 97.517 182.846C97.517 183.984 98.4478 184.811 99.482 184.811C100.62 184.811 101.447 183.88 101.447 182.846C101.447 181.709 100.516 180.881 99.482 180.881Z" fill="white"/>
<path d="M107.963 180.881C106.825 180.881 105.998 181.812 105.998 182.846C105.998 183.984 106.928 184.811 107.963 184.811C109.1 184.811 109.928 183.88 109.928 182.846C109.928 181.709 109.1 180.881 107.963 180.881Z" fill="white"/>
<path d="M116.547 180.881C115.409 180.881 114.582 181.812 114.582 182.846C114.582 183.984 115.512 184.811 116.547 184.811C117.684 184.811 118.512 183.88 118.512 182.846C118.512 181.709 117.581 180.881 116.547 180.881Z" fill="white"/>
<path d="M125.027 180.881C123.89 180.881 123.062 181.812 123.062 182.846C123.062 183.984 123.993 184.811 125.027 184.811C126.165 184.811 126.992 183.88 126.992 182.846C127.096 181.709 126.165 180.881 125.027 180.881Z" fill="white"/>
<path d="M31.0168 189.362C29.8791 189.362 29.0518 190.293 29.0518 191.327C29.0518 192.464 29.9826 193.292 31.0168 193.292C32.1544 193.292 32.9818 192.361 32.9818 191.327C33.0852 190.293 32.1544 189.362 31.0168 189.362Z" fill="white"/>
<path d="M39.6008 189.362C38.4631 189.362 37.6357 190.293 37.6357 191.327C37.6357 192.464 38.5665 193.292 39.6008 193.292C40.7384 193.292 41.5658 192.361 41.5658 191.327C41.5658 190.293 40.7384 189.362 39.6008 189.362Z" fill="white"/>
<path d="M48.1848 189.362C47.0472 189.362 46.2198 190.293 46.2198 191.327C46.2198 192.464 47.1506 193.292 48.1848 193.292C49.3224 193.292 50.1498 192.361 50.1498 191.327C50.1498 190.293 49.219 189.362 48.1848 189.362Z" fill="white"/>
<path d="M56.6654 189.362C55.5278 189.362 54.7004 190.293 54.7004 191.327C54.7004 192.464 55.6312 193.292 56.6654 193.292C57.803 193.292 58.6304 192.361 58.6304 191.327C58.7338 190.293 57.803 189.362 56.6654 189.362Z" fill="white"/>
<path d="M65.2494 189.362C64.1117 189.362 63.2844 190.293 63.2844 191.327C63.2844 192.464 64.2152 193.292 65.2494 193.292C66.387 193.292 67.2144 192.361 67.2144 191.327C67.2144 190.293 66.387 189.362 65.2494 189.362Z" fill="white"/>
<path d="M73.8334 189.362C72.6958 189.362 71.8684 190.293 71.8684 191.327C71.8684 192.464 72.7992 193.292 73.8334 193.292C74.9711 193.292 75.7984 192.361 75.7984 191.327C75.7984 190.293 74.8676 189.362 73.8334 189.362Z" fill="white"/>
<path d="M82.314 189.362C81.1764 189.362 80.349 190.293 80.349 191.327C80.349 192.464 81.2798 193.292 82.314 193.292C83.4517 193.292 84.279 192.361 84.279 191.327C84.279 190.293 83.4517 189.362 82.314 189.362Z" fill="white"/>
<path d="M90.8981 189.362C89.7604 189.362 88.933 190.293 88.933 191.327C88.933 192.464 89.8638 193.292 90.8981 193.292C92.0357 193.292 92.8631 192.361 92.8631 191.327C92.8631 190.293 92.0357 189.362 90.8981 189.362Z" fill="white"/>
<path d="M99.482 189.362C98.3444 189.362 97.517 190.293 97.517 191.327C97.517 192.464 98.4478 193.292 99.482 193.292C100.62 193.292 101.447 192.361 101.447 191.327C101.447 190.293 100.516 189.362 99.482 189.362Z" fill="white"/>
<path d="M107.963 189.362C106.825 189.362 105.998 190.293 105.998 191.327C105.998 192.464 106.928 193.292 107.963 193.292C109.1 193.292 109.928 192.361 109.928 191.327C109.928 190.293 109.1 189.362 107.963 189.362Z" fill="white"/>
<path d="M116.547 189.362C115.409 189.362 114.582 190.293 114.582 191.327C114.582 192.464 115.512 193.292 116.547 193.292C117.684 193.292 118.512 192.361 118.512 191.327C118.512 190.293 117.581 189.362 116.547 189.362Z" fill="white"/>
<path d="M125.027 189.362C123.89 189.362 123.062 190.293 123.062 191.327C123.062 192.464 123.993 193.292 125.027 193.292C126.165 193.292 126.992 192.361 126.992 191.327C127.096 190.293 126.165 189.362 125.027 189.362Z" fill="white"/>
<path d="M31.0168 197.946C29.8791 197.946 29.0518 198.877 29.0518 199.911C29.0518 201.048 29.9826 201.876 31.0168 201.876C32.1544 201.876 32.9818 200.945 32.9818 199.911C33.0852 198.877 32.1544 197.946 31.0168 197.946Z" fill="white"/>
<path d="M39.6008 197.946C38.4631 197.946 37.6357 198.877 37.6357 199.911C37.6357 201.048 38.5665 201.876 39.6008 201.876C40.7384 201.876 41.5658 200.945 41.5658 199.911C41.5658 198.877 40.7384 197.946 39.6008 197.946Z" fill="white"/>
<path d="M48.1848 197.946C47.0472 197.946 46.2198 198.877 46.2198 199.911C46.2198 201.048 47.1506 201.876 48.1848 201.876C49.3224 201.876 50.1498 200.945 50.1498 199.911C50.1498 198.877 49.219 197.946 48.1848 197.946Z" fill="white"/>
<path d="M56.6654 197.946C55.5278 197.946 54.7004 198.877 54.7004 199.911C54.7004 201.048 55.6312 201.876 56.6654 201.876C57.803 201.876 58.6304 200.945 58.6304 199.911C58.7338 198.877 57.803 197.946 56.6654 197.946Z" fill="white"/>
<path d="M65.2494 197.946C64.1117 197.946 63.2844 198.877 63.2844 199.911C63.2844 201.048 64.2152 201.876 65.2494 201.876C66.387 201.876 67.2144 200.945 67.2144 199.911C67.2144 198.877 66.387 197.946 65.2494 197.946Z" fill="white"/>
<path d="M73.8334 197.946C72.6958 197.946 71.8684 198.877 71.8684 199.911C71.8684 201.048 72.7992 201.876 73.8334 201.876C74.9711 201.876 75.7984 200.945 75.7984 199.911C75.7984 198.877 74.8676 197.946 73.8334 197.946Z" fill="white"/>
<path d="M82.314 197.946C81.1764 197.946 80.349 198.877 80.349 199.911C80.349 201.048 81.2798 201.876 82.314 201.876C83.4517 201.876 84.279 200.945 84.279 199.911C84.279 198.877 83.4517 197.946 82.314 197.946Z" fill="white"/>
<path d="M90.8981 197.946C89.7604 197.946 88.933 198.877 88.933 199.911C88.933 201.048 89.8638 201.876 90.8981 201.876C92.0357 201.876 92.8631 200.945 92.8631 199.911C92.8631 198.877 92.0357 197.946 90.8981 197.946Z" fill="white"/>
<path d="M99.482 197.946C98.3444 197.946 97.517 198.877 97.517 199.911C97.517 201.048 98.4478 201.876 99.482 201.876C100.62 201.876 101.447 200.945 101.447 199.911C101.447 198.877 100.516 197.946 99.482 197.946Z" fill="white"/>
<path d="M107.963 197.946C106.825 197.946 105.998 198.877 105.998 199.911C105.998 201.048 106.928 201.876 107.963 201.876C109.1 201.876 109.928 200.945 109.928 199.911C109.928 198.877 109.1 197.946 107.963 197.946Z" fill="white"/>
<path d="M116.547 197.946C115.409 197.946 114.582 198.877 114.582 199.911C114.582 201.048 115.512 201.876 116.547 201.876C117.684 201.876 118.512 200.945 118.512 199.911C118.512 198.877 117.581 197.946 116.547 197.946Z" fill="white"/>
<path d="M125.027 197.946C123.89 197.946 123.062 198.877 123.062 199.911C123.062 201.048 123.993 201.876 125.027 201.876C126.165 201.876 126.992 200.945 126.992 199.911C127.096 198.877 126.165 197.946 125.027 197.946Z" fill="white"/>
<path d="M358.624 172.885L359.032 140.55L384.313 156.967L358.624 172.885Z" fill="#305BC9"/>
<path d="M336.74 172.609L337.148 140.274L362.572 156.693L336.74 172.609ZM341.088 147.51L340.862 165.474L355.086 156.598L341.088 147.51Z" fill="#305BC9"/>
<path d="M315 172.335L315.408 140L340.688 156.417L315 172.335Z" fill="#305BC9"/>
<path fill-rule="evenodd" clip-rule="evenodd" d="M-2.20002 559H105.1V611.6H-2.20002V559ZM-28.2 611.6H-80V559H-28.2V611.6Z" fill="#305BC9"/>
<path d="M10.4999 598.3C14.0085 598.3 15.722 596.2 17.4355 594.2C19.0674 592.2 20.6177 590.3 23.7999 590.3C26.9821 590.3 28.5324 592.2 30.1643 594.2C31.8778 596.2 33.5913 598.3 37.0999 598.3C40.6085 598.3 42.322 596.2 44.0355 594.2C45.6674 592.2 47.2177 590.3 50.3999 590.3C53.5821 590.3 55.1324 592.2 56.7643 594.2C58.4778 596.2 60.1913 598.3 63.6999 598.3C67.2085 598.3 68.922 596.2 70.6355 594.2C72.2674 592.2 73.8177 590.3 76.9999 590.3C80.1821 590.3 81.7324 592.2 83.3643 594.2C85.0778 596.2 86.7913 598.3 90.2999 598.3C93.8085 598.3 95.522 596.2 97.2355 594.2C98.8674 592.2 100.418 590.3 103.6 590.3C106.782 590.3 108.332 592.2 109.964 594.2C111.678 596.2 113.391 598.3 116.9 598.3C120.409 598.3 122.122 596.2 123.836 594.2C125.467 592.2 127.018 590.3 130.2 590.3C133.382 590.3 134.932 592.2 136.564 594.2C138.278 596.2 139.991 598.3 143.5 598.3C147.009 598.3 148.722 596.2 150.436 594.2C152.067 592.2 153.618 590.3 156.8 590.3V589.3C153.291 589.3 151.578 591.4 149.864 593.4C148.232 595.4 146.682 597.3 143.5 597.3C140.318 597.3 138.767 595.4 137.136 593.4C135.422 591.4 133.709 589.3 130.2 589.3C126.691 589.3 124.978 591.4 123.264 593.4C121.632 595.4 120.082 597.3 116.9 597.3C113.718 597.3 112.167 595.4 110.536 593.4C108.822 591.4 107.109 589.3 103.6 589.3C100.091 589.3 98.3778 591.4 96.6643 593.4C95.0324 595.4 93.4821 597.3 90.2999 597.3C87.1177 597.3 85.5674 595.4 83.9355 593.4C82.222 591.4 80.5085 589.3 76.9999 589.3C73.4913 589.3 71.7778 591.4 70.0643 593.4C68.4324 595.4 66.8821 597.3 63.6999 597.3C60.5177 597.3 58.9674 595.4 57.3355 593.4C55.622 591.4 53.9085 589.3 50.3999 589.3C46.8913 589.3 45.1778 591.4 43.4643 593.4C41.8324 595.4 40.2821 597.3 37.0999 597.3C33.9177 597.3 32.3674 595.4 30.7355 593.4C29.022 591.4 27.3085 589.3 23.7999 589.3C20.2913 589.3 18.5778 591.4 16.8643 593.4C15.2324 595.4 13.6821 597.3 10.4999 597.3C7.31773 597.3 5.76742 595.4 4.13552 593.4C2.42202 591.4 0.708521 589.3 -2.80007 589.3V590.3C0.382141 590.3 1.93245 592.2 3.56435 594.2C5.27785 596.2 6.99135 598.3 10.4999 598.3Z" fill="white"/>
<path d="M10.4999 608.3C14.0085 608.3 15.722 606.2 17.4355 604.2C19.0674 602.2 20.6177 600.3 23.7999 600.3C26.9821 600.3 28.5324 602.2 30.1643 604.2C31.8778 606.2 33.5913 608.3 37.0999 608.3C40.6085 608.3 42.322 606.2 44.0355 604.2C45.6674 602.2 47.2177 600.3 50.3999 600.3C53.5821 600.3 55.1324 602.2 56.7643 604.2C58.4778 606.2 60.1913 608.3 63.6999 608.3C67.2085 608.3 68.922 606.2 70.6355 604.2C72.2674 602.2 73.8177 600.3 76.9999 600.3C80.1821 600.3 81.7324 602.2 83.3643 604.2C85.0778 606.2 86.7913 608.3 90.2999 608.3C93.8085 608.3 95.522 606.2 97.2355 604.2C98.8674 602.2 100.418 600.3 103.6 600.3C106.782 600.3 108.332 602.2 109.964 604.2C111.678 606.2 113.391 608.3 116.9 608.3C120.409 608.3 122.122 606.2 123.836 604.2C125.467 602.2 127.018 600.3 130.2 600.3C133.382 600.3 134.932 602.2 136.564 604.2C138.278 606.2 139.991 608.3 143.5 608.3C147.009 608.3 148.722 606.2 150.436 604.2C152.067 602.2 153.618 600.3 156.8 600.3V599.3C153.291 599.3 151.578 601.4 149.864 603.4C148.232 605.4 146.682 607.3 143.5 607.3C140.318 607.3 138.767 605.4 137.136 603.4C135.422 601.4 133.709 599.3 130.2 599.3C126.691 599.3 124.978 601.4 123.264 603.4C121.632 605.4 120.082 607.3 116.9 607.3C113.718 607.3 112.167 605.4 110.536 603.4C108.822 601.4 107.109 599.3 103.6 599.3C100.091 599.3 98.3778 601.4 96.6643 603.4C95.0324 605.4 93.4821 607.3 90.2999 607.3C87.1177 607.3 85.5674 605.4 83.9355 603.4C82.222 601.4 80.5085 599.3 76.9999 599.3C73.4913 599.3 71.7778 601.4 70.0643 603.4C68.4324 605.4 66.8821 607.3 63.6999 607.3C60.5177 607.3 58.9674 605.4 57.3355 603.4C55.622 601.4 53.9085 599.3 50.3999 599.3C46.8913 599.3 45.1778 601.4 43.4643 603.4C41.8324 605.4 40.2821 607.3 37.0999 607.3C33.9177 607.3 32.3674 605.4 30.7355 603.4C29.022 601.4 27.3085 599.3 23.7999 599.3C20.2913 599.3 18.5778 601.4 16.8643 603.4C15.2324 605.4 13.6821 607.3 10.4999 607.3C7.31773 607.3 5.76742 605.4 4.13552 603.4C2.42202 601.4 0.708521 599.3 -2.80007 599.3V600.3C0.382141 600.3 1.93245 602.2 3.56435 604.2C5.27785 606.2 6.99135 608.3 10.4999 608.3Z" fill="white"/>
<path d="M10.4999 618.3C14.0085 618.3 15.722 616.2 17.4355 614.2C19.0674 612.2 20.6177 610.3 23.7999 610.3C26.9821 610.3 28.5324 612.2 30.1643 614.2C31.8778 616.2 33.5913 618.3 37.0999 618.3C40.6085 618.3 42.322 616.2 44.0355 614.2C45.6674 612.2 47.2177 610.3 50.3999 610.3C53.5821 610.3 55.1324 612.2 56.7643 614.2C58.4778 616.2 60.1913 618.3 63.6999 618.3C67.2085 618.3 68.922 616.2 70.6355 614.2C72.2674 612.2 73.8177 610.3 76.9999 610.3C80.1821 610.3 81.7324 612.2 83.3643 614.2C85.0778 616.2 86.7913 618.3 90.2999 618.3C93.8085 618.3 95.522 616.2 97.2355 614.2C98.8674 612.2 100.418 610.3 103.6 610.3C106.782 610.3 108.332 612.2 109.964 614.2C111.678 616.2 113.391 618.3 116.9 618.3C120.409 618.3 122.122 616.2 123.836 614.2C125.467 612.2 127.018 610.3 130.2 610.3C133.382 610.3 134.932 612.2 136.564 614.2C138.278 616.2 139.991 618.3 143.5 618.3C147.009 618.3 148.722 616.2 150.436 614.2C152.067 612.2 153.618 610.3 156.8 610.3V609.3C153.291 609.3 151.578 611.4 149.864 613.4C148.232 615.4 146.682 617.3 143.5 617.3C140.318 617.3 138.767 615.4 137.136 613.4C135.422 611.4 133.709 609.3 130.2 609.3C126.691 609.3 124.978 611.4 123.264 613.4C121.632 615.4 120.082 617.3 116.9 617.3C113.718 617.3 112.167 615.4 110.536 613.4C108.822 611.4 107.109 609.3 103.6 609.3C100.091 609.3 98.3778 611.4 96.6643 613.4C95.0324 615.4 93.4821 617.3 90.2999 617.3C87.1177 617.3 85.5674 615.4 83.9355 613.4C82.222 611.4 80.5085 609.3 76.9999 609.3C73.4913 609.3 71.7778 611.4 70.0643 613.4C68.4324 615.4 66.8821 617.3 63.6999 617.3C60.5177 617.3 58.9674 615.4 57.3355 613.4C55.622 611.4 53.9085 609.3 50.3999 609.3C46.8913 609.3 45.1778 611.4 43.4643 613.4C41.8324 615.4 40.2821 617.3 37.0999 617.3C33.9177 617.3 32.3674 615.4 30.7355 613.4C29.022 611.4 27.3085 609.3 23.7999 609.3C20.2913 609.3 18.5778 611.4 16.8643 613.4C15.2324 615.4 13.6821 617.3 10.4999 617.3C7.31773 617.3 5.76742 615.4 4.13552 613.4C2.42202 611.4 0.708521 609.3 -2.80007 609.3V610.3C0.382141 610.3 1.93245 612.2 3.56435 614.2C5.27785 616.2 6.99135 618.3 10.4999 618.3Z" fill="white"/>
<path d="M10.4999 628.3C14.0085 628.3 15.722 626.2 17.4355 624.2C19.0674 622.2 20.6177 620.3 23.7999 620.3C26.9821 620.3 28.5324 622.2 30.1643 624.2C31.8778 626.2 33.5913 628.3 37.0999 628.3C40.6085 628.3 42.322 626.2 44.0355 624.2C45.6674 622.2 47.2177 620.3 50.3999 620.3C53.5821 620.3 55.1324 622.2 56.7643 624.2C58.4778 626.2 60.1913 628.3 63.6999 628.3C67.2085 628.3 68.922 626.2 70.6355 624.2C72.2674 622.2 73.8177 620.3 76.9999 620.3C80.1821 620.3 81.7324 622.2 83.3643 624.2C85.0778 626.2 86.7913 628.3 90.2999 628.3C93.8085 628.3 95.522 626.2 97.2355 624.2C98.8674 622.2 100.418 620.3 103.6 620.3C106.782 620.3 108.332 622.2 109.964 624.2C111.678 626.2 113.391 628.3 116.9 628.3C120.409 628.3 122.122 626.2 123.836 624.2C125.467 622.2 127.018 620.3 130.2 620.3C133.382 620.3 134.932 622.2 136.564 624.2C138.278 626.2 139.991 628.3 143.5 628.3C147.009 628.3 148.722 626.2 150.436 624.2C152.067 622.2 153.618 620.3 156.8 620.3V619.3C153.291 619.3 151.578 621.4 149.864 623.4C148.232 625.4 146.682 627.3 143.5 627.3C140.318 627.3 138.767 625.4 137.136 623.4C135.422 621.4 133.709 619.3 130.2 619.3C126.691 619.3 124.978 621.4 123.264 623.4C121.632 625.4 120.082 627.3 116.9 627.3C113.718 627.3 112.167 625.4 110.536 623.4C108.822 621.4 107.109 619.3 103.6 619.3C100.091 619.3 98.3778 621.4 96.6643 623.4C95.0324 625.4 93.4821 627.3 90.2999 627.3C87.1177 627.3 85.5674 625.4 83.9355 623.4C82.222 621.4 80.5085 619.3 76.9999 619.3C73.4913 619.3 71.7778 621.4 70.0643 623.4C68.4324 625.4 66.8821 627.3 63.6999 627.3C60.5177 627.3 58.9674 625.4 57.3355 623.4C55.622 621.4 53.9085 619.3 50.3999 619.3C46.8913 619.3 45.1778 621.4 43.4643 623.4C41.8324 625.4 40.2821 627.3 37.0999 627.3C33.9177 627.3 32.3674 625.4 30.7355 623.4C29.022 621.4 27.3085 619.3 23.7999 619.3C20.2913 619.3 18.5778 621.4 16.8643 623.4C15.2324 625.4 13.6821 627.3 10.4999 627.3C7.31773 627.3 5.76742 625.4 4.13552 623.4C2.42202 621.4 0.708521 619.3 -2.80007 619.3V620.3C0.382141 620.3 1.93245 622.2 3.56435 624.2C5.27785 626.2 6.99135 628.3 10.4999 628.3Z" fill="white"/>
<path d="M88.4857 449V481.338L63 465.241L88.4857 449Z" fill="#305BC9"/>
<path d="M110.372 449V481.338L84.7421 465.241L110.372 449ZM106.34 474.151V456.186L92.2294 465.241L106.34 474.151Z" fill="#305BC9"/>
<path d="M132.113 449V481.338L106.628 465.241L132.113 449Z" fill="#305BC9"/>
<path d="M99.3837 267.242C96.2776 267.194 93.1855 267.672 90.2367 268.654C87.4927 269.598 85 271.16 82.9493 273.221C80.8986 275.282 79.3443 277.788 78.4053 280.546C76.5316 286.53 76.5316 292.949 78.4053 298.933C79.3443 301.691 80.8986 304.196 82.9493 306.258C85 308.319 87.4927 309.881 90.2367 310.825C93.1933 311.774 96.2799 312.251 99.3837 312.237C104.82 312.237 109.423 310.969 113.134 308.507C115.008 307.203 116.633 305.57 117.93 303.686C119.243 301.752 120.216 299.607 120.808 297.343L111.918 294.899C111.215 297.597 109.936 299.525 107.954 300.819C105.851 302.299 102.964 303.006 99.3837 303.006C90.4934 303.006 86.2102 298.7 86.2102 289.765C86.2102 280.829 90.4934 276.524 99.3837 276.524C102.964 276.524 105.842 277.23 107.954 278.71C109.936 279.979 111.215 281.924 111.918 284.631L120.808 282.187C120.216 279.923 119.243 277.777 117.93 275.843C116.633 273.96 115.008 272.326 113.134 271.022C109.423 268.527 104.82 267.242 99.3837 267.242ZM126.526 267.242V312.237H135.736V299.445H146.095L154.985 312.237H166.24L156.563 298.417C162.639 296.303 166.24 290.898 166.24 283.375C166.24 273.412 160.102 267.242 150.189 267.242H126.526ZM128.575 269.297H150.189C152.213 269.267 154.226 269.593 156.138 270.261C157.773 270.848 159.258 271.793 160.486 273.028C161.713 274.262 162.653 275.756 163.236 277.399C163.901 279.32 164.226 281.342 164.195 283.375C164.208 284.958 164.014 286.536 163.619 288.069C163.249 289.386 162.689 290.641 161.957 291.795C160.527 294.013 158.382 295.67 155.881 296.489L153.323 297.39L162.277 310.182H156.071L147.185 297.39H133.691V310.182H128.575V269.297ZM133.691 274.439V292.247H150.189C153.193 292.247 155.435 291.473 156.841 289.997C158.313 288.517 159.079 286.267 159.079 283.375C159.079 280.415 158.313 278.169 156.841 276.689C155.435 275.213 153.193 274.439 150.189 274.439H133.691ZM135.736 276.499H150.189C152.558 276.499 154.346 277.01 155.368 278.106C156.458 279.197 157.03 280.935 157.03 283.375C157.03 285.815 156.458 287.49 155.368 288.581C154.346 289.676 152.558 290.188 150.189 290.188H135.736V276.499ZM243.317 312.237L213.641 248H205.227L175.568 312.237H190.088L193.454 304.989H225.41L228.776 312.237H243.317ZM199.492 291.773L209.442 270.299L219.305 291.773H199.492ZM289.817 276.499V267.242H252.657V312.237H261.867V294.366H287.259V285.113H261.867V276.499H289.817ZM254.706 269.309H287.768V274.452H259.823V287.181H285.219V292.323H259.823V310.195H254.706V269.309ZM334 276.499V267.242H295.565V276.499H310.148V312.237H319.358V276.499H334Z" fill="white"/>
<path d="M128.402 346.673L149.515 319.887V383.706H153.248C155.274 383.746 157.259 383.134 158.915 381.959C159.663 381.505 160.318 380.912 160.846 380.213L156.853 393.009H149.515V415H128.402V393.009H91.8354L99.1733 383.706H128.402V346.673ZM209.484 324.416C204.719 324.381 199.98 325.124 195.453 326.616C191.156 328.108 187.242 330.538 183.991 333.733C180.767 337.012 178.343 340.999 176.91 345.379C175.366 349.519 174.592 354.311 174.592 359.487V379.929C174.592 385.106 175.366 389.897 176.91 394.037C178.454 398.566 180.773 402.448 183.991 405.552C187.2 408.83 191.124 411.312 195.453 412.801C204.58 415.733 214.389 415.733 223.516 412.801C227.83 411.281 231.748 408.804 234.977 405.552C238.196 402.448 240.514 398.566 242.059 394.037C243.603 389.897 244.377 385.106 244.377 379.929V359.487C244.377 354.311 243.603 349.519 242.059 345.379C240.626 340.999 238.202 337.012 234.977 333.733C231.71 330.567 227.807 328.14 223.529 326.616C218.997 325.122 214.254 324.379 209.484 324.416V324.416ZM209.484 343.049C215.148 343.049 219.268 344.343 221.846 346.931C224.421 349.519 225.835 353.791 225.835 359.487V379.929C225.835 385.626 224.421 389.766 221.846 392.485C219.271 395.073 215.15 396.367 209.484 396.367C203.818 396.367 199.698 395.073 197.123 392.485C194.548 389.766 193.134 385.626 193.134 379.929V359.487C193.134 353.791 194.548 349.519 197.123 346.931C199.698 344.343 203.834 343.049 209.484 343.049V343.049ZM294.732 346.673L315.845 319.887V383.706H319.577C321.603 383.746 323.589 383.134 325.244 381.959C325.992 381.505 326.647 380.912 327.175 380.213L323.195 393.009H315.857V415H294.744V393.009H258.177L265.515 383.706H294.744L294.732 346.673Z" fill="white"/>
</g>
<defs>
<clipPath id="clip0">
<rect width="411" height="823" fill="white"/>
</clipPath>
</defs>
</svg>
