<svg width="274" height="115" viewBox="0 0 274 115" fill="none" xmlns="http://www.w3.org/2000/svg">
<path d="M138.136 37.24C141.472 37.24 143.872 35.368 143.872 32.488V32.44C143.872 29.872 142.144 28.504 138.4 27.688C134.704 26.896 133.84 26.008 133.84 24.424V24.376C133.84 22.864 135.232 21.664 137.416 21.664C139.144 21.664 140.704 22.216 142.264 23.488L143.368 22.024C141.664 20.656 139.912 19.96 137.464 19.96C134.272 19.96 131.944 21.904 131.944 24.544V24.592C131.944 27.352 133.72 28.6 137.584 29.44C141.112 30.184 141.952 31.072 141.952 32.632V32.68C141.952 34.336 140.464 35.536 138.208 35.536C135.88 35.536 134.2 34.744 132.448 33.16L131.272 34.552C133.288 36.352 135.472 37.24 138.136 37.24ZM151.45 37.216C152.338 37.216 153.034 37.024 153.682 36.688V35.104C153.034 35.416 152.506 35.536 151.882 35.536C150.634 35.536 149.794 34.984 149.794 33.472V26.224H153.73V24.592H149.794V20.848H147.946V24.592H146.218V26.224H147.946V33.712C147.946 36.232 149.458 37.216 151.45 37.216ZM161.562 37.264C163.698 37.264 164.97 36.184 165.81 34.84V37H167.634V24.592H165.81V31.696C165.81 34.024 164.202 35.584 162.09 35.584C159.906 35.584 158.658 34.144 158.658 31.84V24.592H156.81V32.296C156.81 35.248 158.562 37.264 161.562 37.264ZM176.999 37.264C179.279 37.264 180.743 35.992 181.751 34.504V37H183.599V19.48H181.751V26.968C180.791 25.576 179.303 24.328 176.999 24.328C174.023 24.328 171.071 26.728 171.071 30.784V30.832C171.071 34.912 174.023 37.264 176.999 37.264ZM177.335 35.608C175.007 35.608 172.967 33.736 172.967 30.808V30.76C172.967 27.76 174.935 25.984 177.335 25.984C179.639 25.984 181.823 27.904 181.823 30.76V30.808C181.823 33.664 179.639 35.608 177.335 35.608ZM193.152 37.288C195.504 37.288 197.016 36.352 198.264 34.96L197.112 33.928C196.104 34.984 194.904 35.68 193.2 35.68C190.992 35.68 189.096 34.168 188.832 31.48H198.672C198.696 31.264 198.696 31.12 198.696 30.88C198.696 27.256 196.584 24.328 192.912 24.328C189.48 24.328 186.96 27.208 186.96 30.784V30.832C186.96 34.672 189.744 37.288 193.152 37.288ZM188.832 30.112C189.072 27.688 190.704 25.888 192.864 25.888C195.336 25.888 196.632 27.856 196.824 30.112H188.832ZM201.931 37H203.779V29.896C203.779 27.568 205.363 26.008 207.499 26.008C209.683 26.008 210.931 27.448 210.931 29.752V37H212.779V29.296C212.779 26.344 211.027 24.328 208.027 24.328C205.891 24.328 204.595 25.408 203.779 26.752V24.592H201.931V37ZM220.872 37.216C221.76 37.216 222.456 37.024 223.104 36.688V35.104C222.456 35.416 221.928 35.536 221.304 35.536C220.056 35.536 219.216 34.984 219.216 33.472V26.224H223.152V24.592H219.216V20.848H217.368V24.592H215.64V26.224H217.368V33.712C217.368 36.232 218.88 37.216 220.872 37.216ZM136.816 66H138.736V50.952H144.376V49.2H131.176V50.952H136.816V66ZM150.004 66.288C152.356 66.288 153.868 65.352 155.116 63.96L153.964 62.928C152.956 63.984 151.756 64.68 150.052 64.68C147.844 64.68 145.948 63.168 145.684 60.48H155.524C155.548 60.264 155.548 60.12 155.548 59.88C155.548 56.256 153.436 53.328 149.764 53.328C146.332 53.328 143.812 56.208 143.812 59.784V59.832C143.812 63.672 146.596 66.288 150.004 66.288ZM145.684 59.112C145.924 56.688 147.556 54.888 149.716 54.888C152.188 54.888 153.484 56.856 153.676 59.112H145.684ZM164.375 66.288C166.703 66.288 168.191 65.28 169.439 63.888L168.263 62.784C167.279 63.84 166.055 64.632 164.471 64.632C161.879 64.632 159.911 62.496 159.911 59.808V59.76C159.911 57.096 161.831 54.96 164.351 54.96C166.031 54.96 167.135 55.8 168.119 56.832L169.343 55.536C168.191 54.312 166.727 53.328 164.375 53.328C160.751 53.328 158.015 56.304 158.015 59.808V59.856C158.015 63.336 160.751 66.288 164.375 66.288ZM172.494 66H174.342V58.896C174.342 56.568 175.926 55.008 178.062 55.008C180.246 55.008 181.494 56.448 181.494 58.752V66H183.342V58.296C183.342 55.344 181.59 53.328 178.59 53.328C176.454 53.328 175.158 54.408 174.342 55.752V48.48H172.494V66ZM187.283 66H189.131V58.896C189.131 56.568 190.715 55.008 192.851 55.008C195.035 55.008 196.283 56.448 196.283 58.752V66H198.131V58.296C198.131 55.344 196.379 53.328 193.379 53.328C191.243 53.328 189.947 54.408 189.131 55.752V53.592H187.283V66ZM202.12 50.88H204.232V48.84H202.12V50.88ZM202.24 66H204.088V53.592H202.24V66ZM213.969 66.288C216.297 66.288 217.785 65.28 219.033 63.888L217.857 62.784C216.873 63.84 215.649 64.632 214.065 64.632C211.473 64.632 209.505 62.496 209.505 59.808V59.76C209.505 57.096 211.425 54.96 213.945 54.96C215.625 54.96 216.729 55.8 217.713 56.832L218.937 55.536C217.785 54.312 216.321 53.328 213.969 53.328C210.345 53.328 207.609 56.304 207.609 59.808V59.856C207.609 63.336 210.345 66.288 213.969 66.288ZM225.783 66.264C227.967 66.264 229.407 65.256 230.271 64.128V66H232.047V58.416C232.047 56.832 231.615 55.632 230.775 54.792C229.863 53.88 228.519 53.424 226.767 53.424C224.967 53.424 223.623 53.832 222.255 54.456L222.807 55.968C223.959 55.44 225.111 55.056 226.575 55.056C228.903 55.056 230.271 56.208 230.271 58.44V58.872C229.167 58.56 228.039 58.344 226.455 58.344C223.311 58.344 221.151 59.736 221.151 62.352V62.4C221.151 64.944 223.479 66.264 225.783 66.264ZM226.143 64.8C224.463 64.8 223.023 63.888 223.023 62.328V62.28C223.023 60.72 224.319 59.712 226.647 59.712C228.159 59.712 229.383 59.976 230.295 60.24V61.44C230.295 63.408 228.423 64.8 226.143 64.8ZM236.154 66H238.002V48.48H236.154V66ZM140.056 95.288C143.104 95.288 145.024 94.112 146.776 92.336L145.528 91.112C143.92 92.648 142.408 93.536 140.104 93.536C136.408 93.536 133.6 90.488 133.6 86.6V86.552C133.6 82.688 136.384 79.664 140.104 79.664C142.384 79.664 143.968 80.624 145.384 81.968L146.68 80.576C145 78.992 143.176 77.912 140.128 77.912C135.184 77.912 131.632 81.848 131.632 86.6V86.648C131.632 91.472 135.208 95.288 140.056 95.288ZM155.212 95.288C158.956 95.288 161.716 92.312 161.716 88.808V88.76C161.716 85.256 158.98 82.328 155.26 82.328C151.516 82.328 148.78 85.304 148.78 88.808V88.856C148.78 92.36 151.492 95.288 155.212 95.288ZM155.26 93.632C152.644 93.632 150.676 91.472 150.676 88.808V88.76C150.676 86.144 152.524 83.96 155.212 83.96C157.828 83.96 159.82 86.144 159.82 88.808V88.856C159.82 91.472 157.948 93.632 155.26 93.632ZM165.064 95H166.912V87.92C166.912 85.64 168.4 84.008 170.368 84.008C172.336 84.008 173.56 85.376 173.56 87.704V95H175.408V87.848C175.408 85.4 176.944 84.008 178.816 84.008C180.832 84.008 182.032 85.352 182.032 87.752V95H183.88V87.32C183.88 84.248 182.128 82.328 179.272 82.328C177.112 82.328 175.792 83.432 174.904 84.8C174.232 83.408 172.936 82.328 170.92 82.328C168.832 82.328 167.728 83.456 166.912 84.68V82.592H165.064V95ZM187.892 95H189.74V87.92C189.74 85.64 191.228 84.008 193.196 84.008C195.164 84.008 196.388 85.376 196.388 87.704V95H198.236V87.848C198.236 85.4 199.772 84.008 201.644 84.008C203.66 84.008 204.86 85.352 204.86 87.752V95H206.708V87.32C206.708 84.248 204.956 82.328 202.1 82.328C199.94 82.328 198.62 83.432 197.732 84.8C197.06 83.408 195.764 82.328 193.748 82.328C191.66 82.328 190.556 83.456 189.74 84.68V82.592H187.892V95ZM215.28 95.264C217.416 95.264 218.688 94.184 219.528 92.84V95H221.352V82.592H219.528V89.696C219.528 92.024 217.92 93.584 215.808 93.584C213.624 93.584 212.376 92.144 212.376 89.84V82.592H210.528V90.296C210.528 93.248 212.28 95.264 215.28 95.264ZM225.509 95H227.357V87.896C227.357 85.568 228.941 84.008 231.077 84.008C233.261 84.008 234.509 85.448 234.509 87.752V95H236.357V87.296C236.357 84.344 234.605 82.328 231.605 82.328C229.469 82.328 228.173 83.408 227.357 84.752V82.592H225.509V95ZM240.346 79.88H242.458V77.84H240.346V79.88ZM240.466 95H242.314V82.592H240.466V95ZM250.755 95.216C251.643 95.216 252.339 95.024 252.987 94.688V93.104C252.339 93.416 251.811 93.536 251.187 93.536C249.939 93.536 249.099 92.984 249.099 91.472V84.224H253.035V82.592H249.099V78.848H247.251V82.592H245.523V84.224H247.251V91.712C247.251 94.232 248.763 95.216 250.755 95.216ZM261.61 92.936L257.098 82.592H255.058L260.698 94.952C259.954 96.704 259.258 97.28 258.154 97.28C257.362 97.28 256.81 97.136 256.21 96.824L255.586 98.288C256.426 98.696 257.194 98.912 258.226 98.912C260.098 98.912 261.298 97.976 262.354 95.408L267.562 82.592H265.594L261.61 92.936Z" fill="white"/>
<path d="M55.7605 1L1.95605 23.9839" stroke="white" stroke-width="2"/>
<path d="M107.94 24.1755L54.6135 1" stroke="white" stroke-width="2"/>
<path d="M2.43408 22.9308V61.9077" stroke="white" stroke-width="2"/>
<path d="M54.7089 113.813L2.05127 91.2119" stroke="white" stroke-width="2"/>
<path d="M107.94 90.9248L53.8489 113.813" stroke="white" stroke-width="2"/>
<path d="M54.3271 83.3593L1.66943 60.7584" stroke="white" stroke-width="2"/>
<path d="M106.602 60.3749L53.7537 83.5503" stroke="white" stroke-width="2"/>
<path d="M107.176 59.2262V92.074" stroke="white" stroke-width="2"/>
<path d="M54.2305 114.1V31.2621" stroke="white" stroke-width="2"/>
<path d="M23.554 30.6877H84.8126" stroke="white" stroke-width="2"/>
<path d="M1 91.3076L16.0996 84.1251" stroke="white" stroke-width="2"/>
<path d="M107.271 23.1222V38.2533" stroke="white" stroke-width="2"/>
<path d="M107.271 44.6695C108.115 44.6695 108.8 43.9835 108.8 43.1372C108.8 42.291 108.115 41.605 107.271 41.605C106.426 41.605 105.742 42.291 105.742 43.1372C105.742 43.9835 106.426 44.6695 107.271 44.6695Z" fill="white"/>
</svg>
